<?xml version="1.0" encoding="UTF-8" standalone="no"?>
<!-- Created with Inkscape (http://www.inkscape.org/) -->

<svg
   version="1.1"
   id="svg2"
   xml:space="preserve"
   width="59.881817mm"
   height="67.404221mm"
   viewBox="0 0 226.32498 254.75611"
   sodipodi:docname="H265K_epistasis.svg"
   inkscape:version="1.1.2 (0a00cf5339, 2022-02-04)"
   inkscape:export-filename="/home/ute/Documents/bioinformatic_analyses/2024-05_LargeRubiscoLibrary/lfcSE_weighted_outputImages/svg/SuppFig_growthCurves/H265K_epistasis.png"
   inkscape:export-xdpi="300"
   inkscape:export-ydpi="300"
   xmlns:inkscape="http://www.inkscape.org/namespaces/inkscape"
   xmlns:sodipodi="http://sodipodi.sourceforge.net/DTD/sodipodi-0.dtd"
   xmlns="http://www.w3.org/2000/svg"
   xmlns:svg="http://www.w3.org/2000/svg"><defs
     id="defs6"><clipPath
       clipPathUnits="userSpaceOnUse"
       id="clipPath24"><path
         d="M 0,0 H 525 V 324 H 0 Z"
         id="path22" /></clipPath><clipPath
       clipPathUnits="userSpaceOnUse"
       id="clipPath36"><path
         d="M 33.73,31.91 H 359.4 V 300.85 H 33.73 Z"
         id="path34" /></clipPath><clipPath
       clipPathUnits="userSpaceOnUse"
       id="clipPath30"><path
         d="m 28.47,31.91 h 78.91 V 162.25 H 28.47 Z"
         id="path28" /></clipPath></defs><sodipodi:namedview
     id="namedview4"
     pagecolor="#ffffff"
     bordercolor="#666666"
     borderopacity="1.0"
     inkscape:pageshadow="2"
     inkscape:pageopacity="0.0"
     inkscape:pagecheckerboard="0"
     showgrid="false"
     inkscape:zoom="1.876161"
     inkscape:cx="106.86716"
     inkscape:cy="171.36056"
     inkscape:window-width="1920"
     inkscape:window-height="1016"
     inkscape:window-x="0"
     inkscape:window-y="0"
     inkscape:window-maximized="1"
     inkscape:current-layer="g8"
     fit-margin-top="2"
     lock-margins="true"
     units="mm"
     fit-margin-left="2"
     fit-margin-right="2"
     fit-margin-bottom="2"
     inkscape:document-units="mm" /><g
     id="g8"
     inkscape:groupmode="layer"
     inkscape:label="Fig3"
     transform="matrix(1.3333333,0,0,-1.3333333,5.4804413,65.668895)"><g
       id="g14" /><g
       id="g16" /><g
       id="g28" /><g
       id="g96" /><g
       id="g98" /><g
       id="g100" /><g
       id="g102" /><g
       id="g104" /><g
       id="g106" /><g
       id="g108" /><g
       id="g110" /><g
       id="g112" /><g
       id="g114" /><g
       id="g116" /><g
       id="g118" /><g
       id="g142" /><g
       id="g156" /><g
       id="g158" /><g
       id="g160" /><g
       id="g162" /><g
       id="g164" /><g
       id="g166" /><g
       id="g168" /><g
       id="g170" /><g
       id="g172" /><g
       id="g186" /><g
       id="g210" /><g
       id="g212" /><g
       id="g214" /><g
       id="g216" /><g
       id="g218" /><g
       id="g220" /><g
       id="g222" /><g
       id="g224" /><g
       id="g232" /><g
       id="g240" /><g
       id="g242" /><g
       id="g244" /><g
       id="g246" /><g
       id="g248" /><g
       id="g250" /><g
       id="g252" /><g
       id="g258" /><g
       id="g266" /><g
       id="g272" /><g
       id="g278" /><g
       id="g284" /><g
       id="g290" /><g
       id="g296" /><g
       id="g302" /><g
       id="g308" /><g
       id="g314" /><g
       id="g320" /><g
       id="g326" /><g
       id="g332" /><g
       id="g338" /><g
       id="g346" /><g
       id="g354" /><g
       id="g362" /><g
       id="g370" /><g
       id="g372" /><g
       id="g374" /><g
       id="g376" /><g
       id="g378" /><g
       id="g380" /><g
       id="g382" /><g
       id="g384" /><g
       id="g386" /><g
       id="g388" /><g
       id="g390" /><g
       id="g392" /><g
       id="g394" /><g
       id="g396" /><g
       id="g398" /><g
       id="g406" /><g
       id="g408" /><g
       id="g410" /><g
       id="g412" /><g
       id="g24787"
       transform="translate(-2.9742129,19.5)"><g
         id="g274"
         transform="matrix(0.52981858,0,0,0.52981858,-190.50994,-221.67741)"
         style="stroke-width:1.88744"><path
           d="m 377.57,184.4 h 13.82"
           style="fill:none;stroke:#f8766d;stroke-width:1.20796;stroke-linecap:butt;stroke-linejoin:round;stroke-miterlimit:10;stroke-dasharray:none;stroke-opacity:1"
           id="path276" /></g><g
         id="g280"
         transform="matrix(0.52981858,0,0,0.52981858,-190.50994,-221.67741)"
         style="stroke-width:1.88744"><path
           d="m 376.55,176.47 h 15.86 v 15.86 h -15.86 z"
           style="fill:#f8766d;fill-opacity:0.102;fill-rule:nonzero;stroke:none;stroke-width:1.88744"
           id="path282" /></g><g
         id="g292"
         transform="matrix(0.52981858,0,0,0.52981858,-190.50994,-221.67741)"
         style="stroke-width:1.88744"><path
           d="m 377.57,167.12 h 13.82"
           style="fill:none;stroke:#7cae00;stroke-width:1.20796;stroke-linecap:butt;stroke-linejoin:round;stroke-miterlimit:10;stroke-dasharray:none;stroke-opacity:1"
           id="path294" /></g><g
         id="g298"
         transform="matrix(0.52981858,0,0,0.52981858,-190.50994,-221.67741)"
         style="stroke-width:1.88744"><path
           d="m 376.55,159.19 h 15.86 v 15.86 h -15.86 z"
           style="fill:#7cae00;fill-opacity:0.102;fill-rule:nonzero;stroke:none;stroke-width:1.88744"
           id="path300" /></g><g
         id="g310"
         transform="matrix(0.52981858,0,0,0.52981858,-190.50994,-221.67741)"
         style="stroke-width:1.88744"><path
           d="m 377.57,149.84 h 13.82"
           style="fill:none;stroke:#00bfc4;stroke-width:1.20796;stroke-linecap:butt;stroke-linejoin:round;stroke-miterlimit:10;stroke-dasharray:none;stroke-opacity:1"
           id="path312" /></g><g
         id="g316"
         transform="matrix(0.52981858,0,0,0.52981858,-190.50994,-221.67741)"
         style="stroke-width:1.88744"><path
           d="m 376.55,141.91 h 15.86 v 15.86 h -15.86 z"
           style="fill:#00bfc4;fill-opacity:0.102;fill-rule:nonzero;stroke:none;stroke-width:1.88744"
           id="path318" /></g><g
         id="g328"
         transform="matrix(0.52981858,0,0,0.52981858,-190.50994,-221.67741)"
         style="stroke-width:1.88744"><path
           d="m 377.57,132.56 h 13.82"
           style="fill:none;stroke:#c77cff;stroke-width:1.20796;stroke-linecap:butt;stroke-linejoin:round;stroke-miterlimit:10;stroke-dasharray:none;stroke-opacity:1"
           id="path330" /></g><g
         id="g334"
         transform="matrix(0.52981858,0,0,0.52981858,-190.50994,-221.67741)"
         style="stroke-width:1.88744"><path
           d="m 376.55,124.63 h 15.86 v 15.86 h -15.86 z"
           style="fill:#c77cff;fill-opacity:0.102;fill-rule:nonzero;stroke:none;stroke-width:1.88744"
           id="path336" /></g><text
         xml:space="preserve"
         style="font-size:8px;line-height:1.25;font-family:sans-serif;letter-spacing:0px;word-spacing:0px;stroke-width:0.75"
         x="20.485073"
         y="126.48277"
         id="text6256-3-2-6-2-7"
         transform="scale(1,-1)"><tspan
           sodipodi:role="line"
           id="tspan6254-6-9-06-6-9"
           style="font-size:8px;stroke-width:0.75"
           x="20.485073"
           y="126.48277">H141V,K261A,H265K,Q406E,S446I</tspan></text><text
         xml:space="preserve"
         style="font-size:8px;line-height:1.25;font-family:sans-serif;letter-spacing:0px;word-spacing:0px;stroke-width:0.75"
         x="20.485073"
         y="135.63803"
         id="text6256-3-2-6-2-7-2"
         transform="scale(1,-1)"><tspan
           sodipodi:role="line"
           id="tspan6254-6-9-06-6-9-0"
           style="font-size:8px;stroke-width:0.75"
           x="20.485073"
           y="135.63803">H141V,K261A,Q406E,S446I</tspan></text><text
         xml:space="preserve"
         style="font-size:8px;line-height:1.25;font-family:sans-serif;letter-spacing:0px;word-spacing:0px;stroke-width:0.75"
         x="20.485073"
         y="145.20151"
         id="text6256-3-2-6-2-7-23"
         transform="scale(1,-1)"><tspan
           sodipodi:role="line"
           id="tspan6254-6-9-06-6-9-7"
           style="font-size:8px;stroke-width:0.75"
           x="20.485073"
           y="145.20151">H265K</tspan></text><text
         xml:space="preserve"
         style="font-size:8px;line-height:1.25;font-family:sans-serif;letter-spacing:0px;word-spacing:0px;stroke-width:0.75"
         x="20.543667"
         y="154.42708"
         id="text6256-3-2-6-2-7-5"
         transform="scale(1,-1)"><tspan
           sodipodi:role="line"
           id="tspan6254-6-9-06-6-9-9"
           style="font-size:8px;stroke-width:0.75"
           x="20.543667"
           y="154.42708">base variant</tspan></text></g><g
       id="g27576"><g
         id="g24"
         transform="matrix(1.8030948,0,0,0.90147999,-33.653199,-102.68206)"
         style="stroke-width:0.784355"><g
           id="g26"
           clip-path="url(#clipPath30)"
           style="stroke-width:0.784355"><path
             d="m 28.47,31.91 h 78.91 V 162.25 H 28.47 Z"
             style="fill:#ffffff;fill-opacity:1;fill-rule:nonzero;stroke:none;stroke-width:0.784355"
             id="path32" /><path
             d="m 28.47,43.49 h 78.91"
             style="fill:none;stroke:#dedede;stroke-width:0.211776;stroke-linecap:butt;stroke-linejoin:round;stroke-miterlimit:10;stroke-dasharray:none;stroke-opacity:1"
             id="path34-3" /><path
             d="m 28.47,74.23 h 78.91"
             style="fill:none;stroke:#dedede;stroke-width:0.211776;stroke-linecap:butt;stroke-linejoin:round;stroke-miterlimit:10;stroke-dasharray:none;stroke-opacity:1"
             id="path36" /><path
             d="m 28.47,104.98 h 78.91"
             style="fill:none;stroke:#dedede;stroke-width:0.211776;stroke-linecap:butt;stroke-linejoin:round;stroke-miterlimit:10;stroke-dasharray:none;stroke-opacity:1"
             id="path38-6" /><path
             d="m 28.47,135.72 h 78.91"
             style="fill:none;stroke:#dedede;stroke-width:0.211776;stroke-linecap:butt;stroke-linejoin:round;stroke-miterlimit:10;stroke-dasharray:none;stroke-opacity:1"
             id="path40-7" /><path
             d="M 40.94,31.91 V 162.25"
             style="fill:none;stroke:#dedede;stroke-width:0.211776;stroke-linecap:butt;stroke-linejoin:round;stroke-miterlimit:10;stroke-dasharray:none;stroke-opacity:1"
             id="path42-5" /><path
             d="M 58.69,31.91 V 162.25"
             style="fill:none;stroke:#dedede;stroke-width:0.211776;stroke-linecap:butt;stroke-linejoin:round;stroke-miterlimit:10;stroke-dasharray:none;stroke-opacity:1"
             id="path44-3" /><path
             d="M 76.45,31.91 V 162.25"
             style="fill:none;stroke:#dedede;stroke-width:0.211776;stroke-linecap:butt;stroke-linejoin:round;stroke-miterlimit:10;stroke-dasharray:none;stroke-opacity:1"
             id="path46-5" /><path
             d="M 94.21,31.91 V 162.25"
             style="fill:none;stroke:#dedede;stroke-width:0.211776;stroke-linecap:butt;stroke-linejoin:round;stroke-miterlimit:10;stroke-dasharray:none;stroke-opacity:1"
             id="path48-6" /><path
             d="m 28.47,58.86 h 78.91"
             style="fill:none;stroke:#dedede;stroke-width:0.415708;stroke-linecap:butt;stroke-linejoin:round;stroke-miterlimit:10;stroke-dasharray:none;stroke-opacity:1"
             id="path50-2" /><path
             d="m 28.47,89.61 h 78.91"
             style="fill:none;stroke:#dedede;stroke-width:0.415708;stroke-linecap:butt;stroke-linejoin:round;stroke-miterlimit:10;stroke-dasharray:none;stroke-opacity:1"
             id="path52-9" /><path
             d="m 28.47,120.35 h 78.91"
             style="fill:none;stroke:#dedede;stroke-width:0.415708;stroke-linecap:butt;stroke-linejoin:round;stroke-miterlimit:10;stroke-dasharray:none;stroke-opacity:1"
             id="path54-1" /><path
             d="m 28.47,151.09 h 78.91"
             style="fill:none;stroke:#dedede;stroke-width:0.415708;stroke-linecap:butt;stroke-linejoin:round;stroke-miterlimit:10;stroke-dasharray:none;stroke-opacity:1"
             id="path56-2" /><path
             d="M 32.06,31.91 V 162.25"
             style="fill:none;stroke:#dedede;stroke-width:0.415708;stroke-linecap:butt;stroke-linejoin:round;stroke-miterlimit:10;stroke-dasharray:none;stroke-opacity:1"
             id="path58-7" /><path
             d="M 49.82,31.91 V 162.25"
             style="fill:none;stroke:#dedede;stroke-width:0.415708;stroke-linecap:butt;stroke-linejoin:round;stroke-miterlimit:10;stroke-dasharray:none;stroke-opacity:1"
             id="path60-0" /><path
             d="M 67.57,31.91 V 162.25"
             style="fill:none;stroke:#dedede;stroke-width:0.415708;stroke-linecap:butt;stroke-linejoin:round;stroke-miterlimit:10;stroke-dasharray:none;stroke-opacity:1"
             id="path62-9" /><path
             d="M 85.33,31.91 V 162.25"
             style="fill:none;stroke:#dedede;stroke-width:0.415708;stroke-linecap:butt;stroke-linejoin:round;stroke-miterlimit:10;stroke-dasharray:none;stroke-opacity:1"
             id="path64-3" /><path
             d="M 103.09,31.91 V 162.25"
             style="fill:none;stroke:#dedede;stroke-width:0.415708;stroke-linecap:butt;stroke-linejoin:round;stroke-miterlimit:10;stroke-dasharray:none;stroke-opacity:1"
             id="path66-6" /><path
             d="m 32.06,58.86 26.28,42.42 34.8,21.58 10.66,10.15"
             style="fill:none;stroke:#f8766d;stroke-width:0.501987;stroke-linecap:butt;stroke-linejoin:round;stroke-miterlimit:10;stroke-dasharray:none;stroke-opacity:1"
             id="path68-0" /><path
             d="M 32.06,58.86 58.34,75.5 93.14,99.29 103.8,118"
             style="fill:none;stroke:#7cae00;stroke-width:0.501987;stroke-linecap:butt;stroke-linejoin:round;stroke-miterlimit:10;stroke-dasharray:none;stroke-opacity:1"
             id="path70-6" /><path
             d="m 32.06,58.86 v 0 0 0 0 0 0 l 26.28,-0.2 v 0 0 0 0 0 0 l 34.8,-1.41 v 0 0 0 0 0 0 l 10.66,-4.77 v 0 0 0 0 0 0"
             style="fill:none;stroke:#00bfc4;stroke-width:0.501987;stroke-linecap:butt;stroke-linejoin:round;stroke-miterlimit:10;stroke-dasharray:none;stroke-opacity:1"
             id="path72-2" /><path
             d="m 32.06,58.86 v 0 0 0 0 0 0 0 0 0 0 0 0 0 0 0 0 0 0 0 0 0 0 0 0 0 0 0 0 0 l 26.28,8.25 v 0 0 0 0 0 0 0 0 0 0 0 0 0 0 0 0 0 0 0 0 0 0 0 0 0 0 0 0 0 l 34.8,12.88 v 0 0 0 0 0 0 0 0 0 0 0 0 0 0 0 0 0 0 0 0 0 0 0 0 0 0 0 0 0 l 10.66,8.62 v 0 0 0 0 0 0 0 0 0 0 0 0 0 0 0 0 0 0 0 0 0 0 0 0 0 0 0 0 0"
             style="fill:none;stroke:#c77cff;stroke-width:0.501987;stroke-linecap:butt;stroke-linejoin:round;stroke-miterlimit:10;stroke-dasharray:none;stroke-opacity:1"
             id="path74-6" /><path
             d="m 32.06,58.86 26.28,66.29 34.8,21.02 10.66,10.15 V 109.69 L 93.14,99.55 58.34,77.42 Z"
             style="fill:#f8766d;fill-opacity:0.102;fill-rule:nonzero;stroke:none;stroke-width:0.784355"
             id="path76-1" /><path
             d="m 32.06,58.86 26.28,24.95 34.8,23.96 10.66,18.7 V 109.53 L 93.14,90.81 58.34,67.18 Z"
             style="fill:#7cae00;fill-opacity:0.102;fill-rule:nonzero;stroke:none;stroke-width:0.784355"
             id="path78-8" /><path
             d="m 32.06,58.86 v 0 0 0 0 0 0 l 26.28,5.45 v 0 0 0 0 0 0 l 34.8,-1.9 v 0 0 0 0 0 0 l 10.66,4.72 v 0 0 0 0 0 0 -29.29 0 0 0 0 0 0 L 93.14,52.08 v 0 0 0 0 0 0 l -34.8,0.94 v 0 0 0 0 0 0 z"
             style="fill:#00bfc4;fill-opacity:0.102;fill-rule:nonzero;stroke:none;stroke-width:0.784355"
             id="path80-7" /><path
             d="m 32.06,58.86 v 0 0 0 0 0 0 0 0 0 0 0 0 0 0 0 0 0 0 0 0 0 0 0 0 0 0 0 0 0 l 26.28,9.56 v 0 0 0 0 0 0 0 0 0 0 0 0 0 0 0 0 0 0 0 0 0 0 0 0 0 0 0 0 0 l 34.8,14.44 v 0 0 0 0 0 0 0 0 0 0 0 0 0 0 0 0 0 0 0 0 0 0 0 0 0 0 0 0 0 l 10.66,9.97 v 0 0 0 0 0 0 0 0 0 0 0 0 0 0 0 0 0 0 0 0 0 0 0 0 0 0 0 0 0 -8.45 0 0 0 0 0 0 0 0 0 0 0 0 0 0 0 0 0 0 0 0 0 0 0 0 0 0 0 0 0 L 93.14,77.12 v 0 0 0 0 0 0 0 0 0 0 0 0 0 0 0 0 0 0 0 0 0 0 0 0 0 0 0 0 0 L 58.34,65.81 v 0 0 0 0 0 0 0 0 0 0 0 0 0 0 0 0 0 0 0 0 0 0 0 0 0 0 0 0 0 L 32.06,58.86 v 0 0 0 0 0 0 0 0 0 0 0 z"
             style="fill:#c77cff;fill-opacity:0.102;fill-rule:nonzero;stroke:none;stroke-width:0.784355"
             id="path82-9" /><path
             d="m 28.47,31.91 h 78.91 V 162.25 H 28.47 Z"
             style="fill:none;stroke:#b3b3b3;stroke-width:0.83926;stroke-linecap:round;stroke-linejoin:round;stroke-miterlimit:10;stroke-dasharray:none;stroke-opacity:1"
             id="path84-2" /></g></g><path
         d="M 16.483821,-49.620948 H 17.68091"
         style="fill:none;stroke:#b3b3b3;stroke-width:0.53;stroke-linecap:butt;stroke-linejoin:round;stroke-miterlimit:10;stroke-dasharray:none;stroke-opacity:1"
         id="path148" /><path
         d="M 16.483821,-21.900438 H 17.68091"
         style="fill:none;stroke:#b3b3b3;stroke-width:0.53;stroke-linecap:butt;stroke-linejoin:round;stroke-miterlimit:10;stroke-dasharray:none;stroke-opacity:1"
         id="path150" /><path
         d="M 16.483821,5.8110568 H 17.68091"
         style="fill:none;stroke:#b3b3b3;stroke-width:0.53;stroke-linecap:butt;stroke-linejoin:round;stroke-miterlimit:10;stroke-dasharray:none;stroke-opacity:1"
         id="path152" /><path
         d="M 16.483821,33.522552 H 17.68091"
         style="fill:none;stroke:#b3b3b3;stroke-width:0.53;stroke-linecap:butt;stroke-linejoin:round;stroke-miterlimit:10;stroke-dasharray:none;stroke-opacity:1"
         id="path154" /><g
         id="g174"
         transform="matrix(0.4368938,0,0,0.4368938,2.9444823,-87.857119)"
         style="stroke-width:2.28889"><path
           d="m 48.53,29.17 v 2.74"
           style="fill:none;stroke:#b3b3b3;stroke-width:1.21311;stroke-linecap:butt;stroke-linejoin:round;stroke-miterlimit:10;stroke-dasharray:none;stroke-opacity:1"
           id="path176" /><path
           d="m 121.82,29.17 v 2.74"
           style="fill:none;stroke:#b3b3b3;stroke-width:1.21311;stroke-linecap:butt;stroke-linejoin:round;stroke-miterlimit:10;stroke-dasharray:none;stroke-opacity:1"
           id="path178" /><path
           d="m 195.1,29.17 v 2.74"
           style="fill:none;stroke:#b3b3b3;stroke-width:1.21311;stroke-linecap:butt;stroke-linejoin:round;stroke-miterlimit:10;stroke-dasharray:none;stroke-opacity:1"
           id="path180" /><path
           d="m 268.38,29.17 v 2.74"
           style="fill:none;stroke:#b3b3b3;stroke-width:1.21311;stroke-linecap:butt;stroke-linejoin:round;stroke-miterlimit:10;stroke-dasharray:none;stroke-opacity:1"
           id="path182" /><path
           d="m 341.67,29.17 v 2.74"
           style="fill:none;stroke:#b3b3b3;stroke-width:1.21311;stroke-linecap:butt;stroke-linejoin:round;stroke-miterlimit:10;stroke-dasharray:none;stroke-opacity:1"
           id="path184" /></g><text
         xml:space="preserve"
         style="font-size:8px;line-height:1.25;font-family:sans-serif;letter-spacing:0px;word-spacing:0px;stroke-width:0.75"
         x="10.919978"
         y="-30.610443"
         id="text6256-3"
         transform="scale(1,-1)"><tspan
           sodipodi:role="line"
           id="tspan6254-6"
           style="font-size:8px;stroke-width:0.75"
           x="10.919978"
           y="-30.610443">6</tspan></text><text
         xml:space="preserve"
         style="font-size:8px;line-height:1.25;font-family:sans-serif;letter-spacing:0px;word-spacing:0px;stroke-width:0.75"
         x="11.080134"
         y="-2.8950412"
         id="text6256-3-7"
         transform="scale(1,-1)"><tspan
           sodipodi:role="line"
           id="tspan6254-6-5"
           style="font-size:8px;stroke-width:0.75"
           x="11.080134"
           y="-2.8950412">4</tspan></text><text
         xml:space="preserve"
         style="font-size:8px;line-height:1.25;font-family:sans-serif;letter-spacing:0px;word-spacing:0px;stroke-width:0.75"
         x="11.017634"
         y="24.869188"
         id="text6256-3-3"
         transform="scale(1,-1)"><tspan
           sodipodi:role="line"
           id="tspan6254-6-56"
           style="font-size:8px;stroke-width:0.75"
           x="11.017634"
           y="24.869188">2</tspan></text><text
         xml:space="preserve"
         style="font-size:8px;line-height:1.25;font-family:sans-serif;letter-spacing:0px;word-spacing:0px;stroke-width:0.75"
         x="10.810603"
         y="52.533058"
         id="text6256-3-2"
         transform="scale(1,-1)"><tspan
           sodipodi:role="line"
           id="tspan6254-6-9"
           style="font-size:8px;stroke-width:0.75"
           x="10.810603"
           y="52.533058">0</tspan></text><text
         xml:space="preserve"
         style="font-size:8px;line-height:1.25;font-family:sans-serif;letter-spacing:0px;word-spacing:0px;stroke-width:0.75"
         x="21.60397"
         y="81.749352"
         id="text6256-3-2-7"
         transform="scale(1,-1)"><tspan
           sodipodi:role="line"
           id="tspan6254-6-9-0"
           style="font-size:8px;stroke-width:0.75"
           x="21.60397"
           y="81.749352">0</tspan></text><text
         xml:space="preserve"
         style="font-size:8px;line-height:1.25;font-family:sans-serif;letter-spacing:0px;word-spacing:0px;stroke-width:0.75"
         x="85.678558"
         y="81.749352"
         id="text6256-3-2-9"
         transform="scale(1,-1)"><tspan
           sodipodi:role="line"
           id="tspan6254-6-9-3"
           style="font-size:8px;stroke-width:0.75"
           x="85.678558"
           y="81.749352">5</tspan></text><text
         xml:space="preserve"
         style="font-size:8px;line-height:1.25;font-family:sans-serif;letter-spacing:0px;word-spacing:0px;stroke-width:0.75"
         x="146.95432"
         y="81.749352"
         id="text6256-3-2-6"
         transform="scale(1,-1)"><tspan
           sodipodi:role="line"
           id="tspan6254-6-9-06"
           style="font-size:8px;stroke-width:0.75"
           x="146.95432"
           y="81.749352">10</tspan></text><text
         xml:space="preserve"
         style="font-size:8px;line-height:1.25;font-family:sans-serif;letter-spacing:0px;word-spacing:0px;stroke-width:0.75"
         x="51.158451"
         y="90.738213"
         id="text6256-3-2-6-2"
         transform="scale(1,-1)"><tspan
           sodipodi:role="line"
           id="tspan6254-6-9-06-6"
           style="font-size:8px;stroke-width:0.75"
           x="51.158451"
           y="90.738213">Time (generations)</tspan></text><text
         xml:space="preserve"
         style="font-size:8px;line-height:1.25;font-family:sans-serif;letter-spacing:0px;word-spacing:0px;stroke-width:0.75"
         x="-48.113995"
         y="7.6292729"
         id="text6256-3-2-6-2-1"
         transform="matrix(0,1,1,0,0,0)"><tspan
           sodipodi:role="line"
           id="tspan6254-6-9-06-6-8"
           style="font-size:8px;stroke-width:0.75"
           x="-48.113995"
           y="7.6292729">Log2FC (to g=0)</tspan></text></g></g></svg>
