<?xml version="1.0" encoding="UTF-8" standalone="no"?>
<!-- Created with Inkscape (http://www.inkscape.org/) -->

<svg
   version="1.1"
   id="svg2"
   xml:space="preserve"
   width="67.706573mm"
   height="67.404465mm"
   viewBox="0 0 255.89887 254.75703"
   sodipodi:docname="V337A_epistasis.svg"
   inkscape:version="1.1.2 (0a00cf5339, 2022-02-04)"
   inkscape:export-filename="/home/ute/Documents/bioinformatic_analyses/2024-05_LargeRubiscoLibrary/lfcSE_weighted_outputImages/svg/SuppFig_growthCurves/V337A_epistasis.png"
   inkscape:export-xdpi="300"
   inkscape:export-ydpi="300"
   xmlns:inkscape="http://www.inkscape.org/namespaces/inkscape"
   xmlns:sodipodi="http://sodipodi.sourceforge.net/DTD/sodipodi-0.dtd"
   xmlns="http://www.w3.org/2000/svg"
   xmlns:svg="http://www.w3.org/2000/svg"><defs
     id="defs6"><clipPath
       clipPathUnits="userSpaceOnUse"
       id="clipPath24"><path
         d="M 0,0 H 525 V 324 H 0 Z"
         id="path22" /></clipPath><clipPath
       clipPathUnits="userSpaceOnUse"
       id="clipPath36"><path
         d="M 33.73,31.91 H 359.4 V 300.85 H 33.73 Z"
         id="path34" /></clipPath><clipPath
       clipPathUnits="userSpaceOnUse"
       id="clipPath30"><path
         d="m 28.47,31.91 h 78.91 V 162.25 H 28.47 Z"
         id="path28" /></clipPath><clipPath
       clipPathUnits="userSpaceOnUse"
       id="clipPath30-3"><path
         d="m 28.47,31.91 h 44.9 v 130.34 h -44.9 z"
         id="path28-6" /></clipPath><clipPath
       clipPathUnits="userSpaceOnUse"
       id="clipPath36-3"><path
         d="M 33.73,31.91 H 301.5 V 300.85 H 33.73 Z"
         id="path34-6" /></clipPath></defs><sodipodi:namedview
     id="namedview4"
     pagecolor="#ffffff"
     bordercolor="#666666"
     borderopacity="1.0"
     inkscape:pageshadow="2"
     inkscape:pageopacity="0.0"
     inkscape:pagecheckerboard="0"
     showgrid="false"
     inkscape:zoom="1.3266462"
     inkscape:cx="110.80573"
     inkscape:cy="192.96781"
     inkscape:window-width="1551"
     inkscape:window-height="991"
     inkscape:window-x="26"
     inkscape:window-y="23"
     inkscape:window-maximized="0"
     inkscape:current-layer="g8"
     fit-margin-top="2"
     lock-margins="true"
     units="mm"
     fit-margin-left="2"
     fit-margin-right="2"
     fit-margin-bottom="2"
     inkscape:document-units="mm" /><g
     id="g8"
     inkscape:groupmode="layer"
     inkscape:label="Fig3"
     transform="matrix(1.3333333,0,0,-1.3333333,21.268053,65.669811)"><g
       id="g14" /><g
       id="g16" /><g
       id="g28" /><g
       id="g96" /><g
       id="g98" /><g
       id="g100" /><g
       id="g102" /><g
       id="g104" /><g
       id="g106" /><g
       id="g108" /><g
       id="g110" /><g
       id="g112" /><g
       id="g114" /><g
       id="g116" /><g
       id="g118" /><g
       id="g142" /><g
       id="g156" /><g
       id="g158" /><g
       id="g160" /><g
       id="g162" /><g
       id="g164" /><g
       id="g166" /><g
       id="g168" /><g
       id="g170" /><g
       id="g172" /><g
       id="g186" /><g
       id="g210" /><g
       id="g212" /><g
       id="g214" /><g
       id="g216" /><g
       id="g218" /><g
       id="g220" /><g
       id="g222" /><g
       id="g224" /><g
       id="g232" /><g
       id="g240" /><g
       id="g242" /><g
       id="g244" /><g
       id="g246" /><g
       id="g248" /><g
       id="g250" /><g
       id="g252" /><g
       id="g258" /><g
       id="g266" /><g
       id="g272" /><g
       id="g278" /><g
       id="g284" /><g
       id="g290" /><g
       id="g296" /><g
       id="g302" /><g
       id="g308" /><g
       id="g314" /><g
       id="g320" /><g
       id="g326" /><g
       id="g332" /><g
       id="g338" /><g
       id="g346" /><g
       id="g354" /><g
       id="g362" /><g
       id="g370" /><g
       id="g372" /><g
       id="g374" /><g
       id="g376" /><g
       id="g378" /><g
       id="g380" /><g
       id="g382" /><g
       id="g384" /><g
       id="g386" /><g
       id="g388" /><g
       id="g390" /><g
       id="g392" /><g
       id="g394" /><g
       id="g396" /><g
       id="g398" /><g
       id="g406" /><g
       id="g408" /><g
       id="g410" /><g
       id="g412" /><g
       id="g24787"
       transform="translate(-19.274995,19.5)"><g
         id="g274"
         transform="matrix(0.52981858,0,0,0.52981858,-190.50994,-221.67741)"
         style="stroke-width:1.88744"><path
           d="m 377.57,184.4 h 13.82"
           style="fill:none;stroke:#f8766d;stroke-width:1.20796;stroke-linecap:butt;stroke-linejoin:round;stroke-miterlimit:10;stroke-dasharray:none;stroke-opacity:1"
           id="path276" /></g><g
         id="g280"
         transform="matrix(0.52981858,0,0,0.52981858,-190.50994,-221.67741)"
         style="stroke-width:1.88744"><path
           d="m 376.55,176.47 h 15.86 v 15.86 h -15.86 z"
           style="fill:#f8766d;fill-opacity:0.102;fill-rule:nonzero;stroke:none;stroke-width:1.88744"
           id="path282" /></g><g
         id="g292"
         transform="matrix(0.52981858,0,0,0.52981858,-190.50994,-221.67741)"
         style="stroke-width:1.88744"><path
           d="m 377.57,167.12 h 13.82"
           style="fill:none;stroke:#7cae00;stroke-width:1.20796;stroke-linecap:butt;stroke-linejoin:round;stroke-miterlimit:10;stroke-dasharray:none;stroke-opacity:1"
           id="path294" /></g><g
         id="g298"
         transform="matrix(0.52981858,0,0,0.52981858,-190.50994,-221.67741)"
         style="stroke-width:1.88744"><path
           d="m 376.55,159.19 h 15.86 v 15.86 h -15.86 z"
           style="fill:#7cae00;fill-opacity:0.102;fill-rule:nonzero;stroke:none;stroke-width:1.88744"
           id="path300" /></g><g
         id="g310"
         transform="matrix(0.52981858,0,0,0.52981858,-190.50994,-221.67741)"
         style="stroke-width:1.88744"><path
           d="m 377.57,149.84 h 13.82"
           style="fill:none;stroke:#00bfc4;stroke-width:1.20796;stroke-linecap:butt;stroke-linejoin:round;stroke-miterlimit:10;stroke-dasharray:none;stroke-opacity:1"
           id="path312" /></g><g
         id="g316"
         transform="matrix(0.52981858,0,0,0.52981858,-190.50994,-221.67741)"
         style="stroke-width:1.88744"><path
           d="m 376.55,141.91 h 15.86 v 15.86 h -15.86 z"
           style="fill:#00bfc4;fill-opacity:0.102;fill-rule:nonzero;stroke:none;stroke-width:1.88744"
           id="path318" /></g><g
         id="g328"
         transform="matrix(0.52981858,0,0,0.52981858,-190.50994,-221.67741)"
         style="stroke-width:1.88744"><path
           d="m 377.57,132.56 h 13.82"
           style="fill:none;stroke:#c77cff;stroke-width:1.20796;stroke-linecap:butt;stroke-linejoin:round;stroke-miterlimit:10;stroke-dasharray:none;stroke-opacity:1"
           id="path330" /></g><g
         id="g334"
         transform="matrix(0.52981858,0,0,0.52981858,-190.50994,-221.67741)"
         style="stroke-width:1.88744"><path
           d="m 376.55,124.63 h 15.86 v 15.86 h -15.86 z"
           style="fill:#c77cff;fill-opacity:0.102;fill-rule:nonzero;stroke:none;stroke-width:1.88744"
           id="path336" /></g><text
         xml:space="preserve"
         style="font-size:8px;line-height:1.25;font-family:sans-serif;letter-spacing:0px;word-spacing:0px;stroke-width:0.75"
         x="20.485073"
         y="126.48277"
         id="text6256-3-2-6-2-7"
         transform="scale(1,-1)"><tspan
           sodipodi:role="line"
           id="tspan6254-6-9-06-6-9"
           style="font-size:8px;stroke-width:0.75"
           x="20.485073"
           y="126.48277">H141V,M154D,H256K,Q406E,S446I</tspan></text><text
         xml:space="preserve"
         style="font-size:8px;line-height:1.25;font-family:sans-serif;letter-spacing:0px;word-spacing:0px;stroke-width:0.75"
         x="20.485073"
         y="135.63803"
         id="text6256-3-2-6-2-7-2"
         transform="scale(1,-1)"><tspan
           sodipodi:role="line"
           id="tspan6254-6-9-06-6-9-0"
           style="font-size:8px;stroke-width:0.75"
           x="20.485073"
           y="135.63803">H141V,M154D,H256K,V337A,Q406E,S446I</tspan></text><text
         xml:space="preserve"
         style="font-size:8px;line-height:1.25;font-family:sans-serif;letter-spacing:0px;word-spacing:0px;stroke-width:0.75"
         x="20.485073"
         y="145.20151"
         id="text6256-3-2-6-2-7-23"
         transform="scale(1,-1)"><tspan
           sodipodi:role="line"
           id="tspan6254-6-9-06-6-9-7"
           style="font-size:8px;stroke-width:0.75"
           x="20.485073"
           y="145.20151">V337A</tspan></text><text
         xml:space="preserve"
         style="font-size:8px;line-height:1.25;font-family:sans-serif;letter-spacing:0px;word-spacing:0px;stroke-width:0.75"
         x="20.543667"
         y="154.42708"
         id="text6256-3-2-6-2-7-5"
         transform="scale(1,-1)"><tspan
           sodipodi:role="line"
           id="tspan6254-6-9-06-6-9-9"
           style="font-size:8px;stroke-width:0.75"
           x="20.543667"
           y="154.42708">base variant</tspan></text></g><text
       xml:space="preserve"
       style="font-size:8px;line-height:1.25;font-family:sans-serif;letter-spacing:0px;word-spacing:0px;stroke-width:0.75"
       x="51.158451"
       y="90.738213"
       id="text6256-3-2-6-2"
       transform="scale(1,-1)"><tspan
         sodipodi:role="line"
         id="tspan6254-6-9-06-6"
         style="font-size:8px;stroke-width:0.75"
         x="51.158451"
         y="90.738213">Time (generations)</tspan></text><g
       id="g15905"><g
         id="g30"
         transform="matrix(0.53135978,0,0,0.43689634,-0.24185564,-87.857196)"
         style="stroke-width:2.07547"><g
           id="g32"
           clip-path="url(#clipPath36-3)"
           style="stroke-width:2.07547"><path
             d="M 33.73,31.91 H 301.5 V 300.85 H 33.73 Z"
             style="fill:#ffffff;fill-opacity:1;fill-rule:nonzero;stroke:none;stroke-width:2.07547"
             id="path38-7" /><path
             d="M 33.73,56.08 H 301.5"
             style="fill:none;stroke:#dedede;stroke-width:0.560377;stroke-linecap:butt;stroke-linejoin:round;stroke-miterlimit:10;stroke-dasharray:none;stroke-opacity:1"
             id="path40-5" /><path
             d="M 33.73,123.87 H 301.5"
             style="fill:none;stroke:#dedede;stroke-width:0.560377;stroke-linecap:butt;stroke-linejoin:round;stroke-miterlimit:10;stroke-dasharray:none;stroke-opacity:1"
             id="path42-3" /><path
             d="M 33.73,191.65 H 301.5"
             style="fill:none;stroke:#dedede;stroke-width:0.560377;stroke-linecap:butt;stroke-linejoin:round;stroke-miterlimit:10;stroke-dasharray:none;stroke-opacity:1"
             id="path44-5" /><path
             d="M 33.73,259.44 H 301.5"
             style="fill:none;stroke:#dedede;stroke-width:0.560377;stroke-linecap:butt;stroke-linejoin:round;stroke-miterlimit:10;stroke-dasharray:none;stroke-opacity:1"
             id="path46-6" /><path
             d="M 76.03,31.91 V 300.85"
             style="fill:none;stroke:#dedede;stroke-width:0.560377;stroke-linecap:butt;stroke-linejoin:round;stroke-miterlimit:10;stroke-dasharray:none;stroke-opacity:1"
             id="path48-2" /><path
             d="M 136.28,31.91 V 300.85"
             style="fill:none;stroke:#dedede;stroke-width:0.560377;stroke-linecap:butt;stroke-linejoin:round;stroke-miterlimit:10;stroke-dasharray:none;stroke-opacity:1"
             id="path50-9" /><path
             d="M 196.54,31.91 V 300.85"
             style="fill:none;stroke:#dedede;stroke-width:0.560377;stroke-linecap:butt;stroke-linejoin:round;stroke-miterlimit:10;stroke-dasharray:none;stroke-opacity:1"
             id="path52-1" /><path
             d="M 256.79,31.91 V 300.85"
             style="fill:none;stroke:#dedede;stroke-width:0.560377;stroke-linecap:butt;stroke-linejoin:round;stroke-miterlimit:10;stroke-dasharray:none;stroke-opacity:1"
             id="path54-2" /><path
             d="M 33.73,89.97 H 301.5"
             style="fill:none;stroke:#dedede;stroke-width:1.1;stroke-linecap:butt;stroke-linejoin:round;stroke-miterlimit:10;stroke-dasharray:none;stroke-opacity:1"
             id="path56-7" /><path
             d="M 33.73,157.76 H 301.5"
             style="fill:none;stroke:#dedede;stroke-width:1.1;stroke-linecap:butt;stroke-linejoin:round;stroke-miterlimit:10;stroke-dasharray:none;stroke-opacity:1"
             id="path58-0" /><path
             d="M 33.73,225.54 H 301.5"
             style="fill:none;stroke:#dedede;stroke-width:1.1;stroke-linecap:butt;stroke-linejoin:round;stroke-miterlimit:10;stroke-dasharray:none;stroke-opacity:1"
             id="path60-9" /><path
             d="M 33.73,293.33 H 301.5"
             style="fill:none;stroke:#dedede;stroke-width:1.1;stroke-linecap:butt;stroke-linejoin:round;stroke-miterlimit:10;stroke-dasharray:none;stroke-opacity:1"
             id="path62-3" /><path
             d="M 45.9,31.91 V 300.85"
             style="fill:none;stroke:#dedede;stroke-width:1.1;stroke-linecap:butt;stroke-linejoin:round;stroke-miterlimit:10;stroke-dasharray:none;stroke-opacity:1"
             id="path64-6" /><path
             d="M 106.16,31.91 V 300.85"
             style="fill:none;stroke:#dedede;stroke-width:1.1;stroke-linecap:butt;stroke-linejoin:round;stroke-miterlimit:10;stroke-dasharray:none;stroke-opacity:1"
             id="path66-0" /><path
             d="M 166.41,31.91 V 300.85"
             style="fill:none;stroke:#dedede;stroke-width:1.1;stroke-linecap:butt;stroke-linejoin:round;stroke-miterlimit:10;stroke-dasharray:none;stroke-opacity:1"
             id="path68-6" /><path
             d="M 226.67,31.91 V 300.85"
             style="fill:none;stroke:#dedede;stroke-width:1.1;stroke-linecap:butt;stroke-linejoin:round;stroke-miterlimit:10;stroke-dasharray:none;stroke-opacity:1"
             id="path70-2" /><path
             d="M 286.92,31.91 V 300.85"
             style="fill:none;stroke:#dedede;stroke-width:1.1;stroke-linecap:butt;stroke-linejoin:round;stroke-miterlimit:10;stroke-dasharray:none;stroke-opacity:1"
             id="path72-6" /><path
             d="m 45.9,157.76 89.18,6.03 118.1,19.92 36.15,2.77"
             style="fill:none;stroke:#f8766d;stroke-width:1.3283;stroke-linecap:butt;stroke-linejoin:round;stroke-miterlimit:10;stroke-dasharray:none;stroke-opacity:1"
             id="path74-1" /><path
             d="m 45.9,157.76 89.18,22.37 118.1,52.47 36.15,29.1"
             style="fill:none;stroke:#7cae00;stroke-width:1.3283;stroke-linecap:butt;stroke-linejoin:round;stroke-miterlimit:10;stroke-dasharray:none;stroke-opacity:1"
             id="path76-8" /><path
             d="m 45.9,157.76 v 0 0 0 0 l 89.18,-25.3 v 0 0 0 0 l 118.1,-49.84 v 0 0 0 0 l 36.15,-24.29 v 0 0 0 0"
             style="fill:none;stroke:#00bfc4;stroke-width:1.3283;stroke-linecap:butt;stroke-linejoin:round;stroke-miterlimit:10;stroke-dasharray:none;stroke-opacity:1"
             id="path78-7" /><path
             d="m 45.9,157.76 v 0 0 0 0 0 0 0 0 0 0 0 0 0 0 0 0 0 0 0 0 0 0 0 0 0 0 0 0 0 l 89.18,18.19 v 0 0 0 0 0 0 0 0 0 0 0 0 0 0 0 0 0 0 0 0 0 0 0 0 0 0 0 0 0 l 118.1,28.4 v 0 0 0 0 0 0 0 0 0 0 0 0 0 0 0 0 0 0 0 0 0 0 0 0 0 0 0 0 0 l 36.15,18.99 v 0 0 0 0 0 0 0 0 0 0 0 0 0 0 0 0 0 0 0 0 0 0 0 0 0 0 0 0 0"
             style="fill:none;stroke:#c77cff;stroke-width:1.3283;stroke-linecap:butt;stroke-linejoin:round;stroke-miterlimit:10;stroke-dasharray:none;stroke-opacity:1"
             id="path80-9" /><path
             d="m 45.9,157.76 89.18,47.34 118.1,18.26 36.15,5.01 v -83.79 l -36.15,-0.52 -118.1,-21.57 z"
             style="fill:#f8766d;fill-opacity:0.102;fill-rule:nonzero;stroke:none;stroke-width:2.07547"
             id="path82-2" /><path
             d="m 45.9,157.76 89.18,52.17 118.1,49.81 36.15,28.88 v -53.84 l -36.15,-29.32 -118.1,-55.13 z"
             style="fill:#7cae00;fill-opacity:0.102;fill-rule:nonzero;stroke:none;stroke-width:2.07547"
             id="path84-0" /><path
             d="m 45.9,157.76 v 0 0 0 0 l 89.18,-18.58 v 0 0 0 0 l 118.1,-42.75 v 0 0 0 0 l 36.15,-23.9 v 0 0 0 0 -28.39 0 0 0 0 l -36.15,24.67 v 0 0 0 0 l -118.1,56.93 v 0 0 0 0 z"
             style="fill:#00bfc4;fill-opacity:0.102;fill-rule:nonzero;stroke:none;stroke-width:2.07547"
             id="path86-2" /><path
             d="m 45.9,157.76 v 0 0 0 0 0 0 0 0 0 0 0 0 0 0 0 0 0 0 0 0 0 0 0 0 0 0 0 0 0 l 89.18,21.08 v 0 0 0 0 0 0 0 0 0 0 0 0 0 0 0 0 0 0 0 0 0 0 0 0 0 0 0 0 0 l 118.1,31.84 v 0 0 0 0 0 0 0 0 0 0 0 0 0 0 0 0 0 0 0 0 0 0 0 0 0 0 0 0 0 l 36.15,21.98 v 0 0 0 0 0 0 0 0 0 0 0 0 0 0 0 0 0 0 0 0 0 0 0 0 0 0 0 0 0 -18.63 0 0 0 0 0 0 0 0 0 0 0 0 0 0 0 0 0 0 0 0 0 0 0 0 0 0 0 0 0 l -36.15,-16.01 v 0 0 0 0 0 0 0 0 0 0 0 0 0 0 0 0 0 0 0 0 0 0 0 0 0 0 0 0 0 l -118.1,-24.95 v 0 0 0 0 0 0 0 0 0 0 0 0 0 0 0 0 0 0 0 0 0 0 0 0 0 0 0 0 0 L 45.9,157.76 v 0 0 0 0 0 0 0 0 z"
             style="fill:#c77cff;fill-opacity:0.102;fill-rule:nonzero;stroke:none;stroke-width:2.07547"
             id="path88-3" /><path
             d="M 33.73,31.91 H 301.5 V 300.85 H 33.73 Z"
             style="fill:none;stroke:#b3b3b3;stroke-width:2.22076;stroke-linecap:round;stroke-linejoin:round;stroke-miterlimit:10;stroke-dasharray:none;stroke-opacity:1"
             id="path90" /></g></g><path
         d="M 16.483821,-18.932429 H 17.68091"
         style="fill:none;stroke:#b3b3b3;stroke-width:0.53;stroke-linecap:butt;stroke-linejoin:round;stroke-miterlimit:10;stroke-dasharray:none;stroke-opacity:1"
         id="path148" /><path
         d="M 16.483821,-48.549632 H 17.68091"
         style="fill:none;stroke:#b3b3b3;stroke-width:0.53;stroke-linecap:butt;stroke-linejoin:round;stroke-miterlimit:10;stroke-dasharray:none;stroke-opacity:1"
         id="path148-1" /><path
         d="M 16.483821,10.680405 H 17.68091"
         style="fill:none;stroke:#b3b3b3;stroke-width:0.53;stroke-linecap:butt;stroke-linejoin:round;stroke-miterlimit:10;stroke-dasharray:none;stroke-opacity:1"
         id="path150" /><path
         d="M 16.483821,40.297607 H 17.68091"
         style="fill:none;stroke:#b3b3b3;stroke-width:0.53;stroke-linecap:butt;stroke-linejoin:round;stroke-miterlimit:10;stroke-dasharray:none;stroke-opacity:1"
         id="path154" /><g
         id="g174"
         transform="matrix(0.4368938,0,0,0.4368938,2.9444823,-87.857119)"
         style="stroke-width:2.28889"><path
           d="m 48.53,29.17 v 2.74"
           style="fill:none;stroke:#b3b3b3;stroke-width:1.21311;stroke-linecap:butt;stroke-linejoin:round;stroke-miterlimit:10;stroke-dasharray:none;stroke-opacity:1"
           id="path176" /><path
           d="m 121.82,29.17 v 2.74"
           style="fill:none;stroke:#b3b3b3;stroke-width:1.21311;stroke-linecap:butt;stroke-linejoin:round;stroke-miterlimit:10;stroke-dasharray:none;stroke-opacity:1"
           id="path178" /><path
           d="m 195.1,29.17 v 2.74"
           style="fill:none;stroke:#b3b3b3;stroke-width:1.21311;stroke-linecap:butt;stroke-linejoin:round;stroke-miterlimit:10;stroke-dasharray:none;stroke-opacity:1"
           id="path180" /><path
           d="m 268.38,29.17 v 2.74"
           style="fill:none;stroke:#b3b3b3;stroke-width:1.21311;stroke-linecap:butt;stroke-linejoin:round;stroke-miterlimit:10;stroke-dasharray:none;stroke-opacity:1"
           id="path182" /><path
           d="m 341.67,29.17 v 2.74"
           style="fill:none;stroke:#b3b3b3;stroke-width:1.21311;stroke-linecap:butt;stroke-linejoin:round;stroke-miterlimit:10;stroke-dasharray:none;stroke-opacity:1"
           id="path184" /></g><text
         xml:space="preserve"
         style="font-size:8px;line-height:1.25;font-family:sans-serif;letter-spacing:0px;word-spacing:0px;stroke-width:0.75"
         x="10.919978"
         y="-37.381592"
         id="text6256-3"
         transform="scale(1,-1)"><tspan
           sodipodi:role="line"
           id="tspan6254-6"
           style="font-size:8px;stroke-width:0.75"
           x="10.919978"
           y="-37.381592">4</tspan></text><text
         xml:space="preserve"
         style="font-size:8px;line-height:1.25;font-family:sans-serif;letter-spacing:0px;word-spacing:0px;stroke-width:0.75"
         x="11.017634"
         y="-7.7116547"
         id="text6256-3-3"
         transform="scale(1,-1)"><tspan
           sodipodi:role="line"
           id="tspan6254-6-56"
           style="font-size:8px;stroke-width:0.75"
           x="11.017634"
           y="-7.7116547">2</tspan></text><text
         xml:space="preserve"
         style="font-size:8px;line-height:1.25;font-family:sans-serif;letter-spacing:0px;word-spacing:0px;stroke-width:0.75"
         x="11.041278"
         y="21.84454"
         id="text6256-3-3-2"
         transform="scale(1,-1)"><tspan
           sodipodi:role="line"
           id="tspan6254-6-56-9"
           style="font-size:8px;stroke-width:0.75"
           x="11.041278"
           y="21.84454">0</tspan></text><text
         xml:space="preserve"
         style="font-size:8px;line-height:1.25;font-family:sans-serif;letter-spacing:0px;word-spacing:0px;stroke-width:0.75"
         x="8.4240904"
         y="51.518383"
         id="text6256-3-2"
         transform="scale(1,-1)"><tspan
           sodipodi:role="line"
           id="tspan6254-6-9"
           style="font-size:8px;stroke-width:0.75"
           x="8.4240904"
           y="51.518383">-2</tspan></text><text
         xml:space="preserve"
         style="font-size:8px;line-height:1.25;font-family:sans-serif;letter-spacing:0px;word-spacing:0px;stroke-width:0.75"
         x="21.60397"
         y="81.749352"
         id="text6256-3-2-7"
         transform="scale(1,-1)"><tspan
           sodipodi:role="line"
           id="tspan6254-6-9-0"
           style="font-size:8px;stroke-width:0.75"
           x="21.60397"
           y="81.749352">0</tspan></text><text
         xml:space="preserve"
         style="font-size:8px;line-height:1.25;font-family:sans-serif;letter-spacing:0px;word-spacing:0px;stroke-width:0.75"
         x="85.678558"
         y="81.749352"
         id="text6256-3-2-9"
         transform="scale(1,-1)"><tspan
           sodipodi:role="line"
           id="tspan6254-6-9-3"
           style="font-size:8px;stroke-width:0.75"
           x="85.678558"
           y="81.749352">5</tspan></text><text
         xml:space="preserve"
         style="font-size:8px;line-height:1.25;font-family:sans-serif;letter-spacing:0px;word-spacing:0px;stroke-width:0.75"
         x="146.95432"
         y="81.749352"
         id="text6256-3-2-6"
         transform="scale(1,-1)"><tspan
           sodipodi:role="line"
           id="tspan6254-6-9-06"
           style="font-size:8px;stroke-width:0.75"
           x="146.95432"
           y="81.749352">10</tspan></text><text
         xml:space="preserve"
         style="font-size:8px;line-height:1.25;font-family:sans-serif;letter-spacing:0px;word-spacing:0px;stroke-width:0.75"
         x="-48.113995"
         y="6.1292729"
         id="text6256-3-2-6-2-1"
         transform="matrix(0,1,1,0,0,0)"><tspan
           sodipodi:role="line"
           id="tspan6254-6-9-06-6-8"
           style="font-size:8px;stroke-width:0.75"
           x="-48.113995"
           y="6.1292729">Log2FC (to g=0)</tspan></text></g></g></svg>
