<?xml version="1.0" encoding="UTF-8" standalone="no"?>
<!-- Created with Inkscape (http://www.inkscape.org/) -->

<svg
   version="1.1"
   id="svg2"
   xml:space="preserve"
   width="60.9398mm"
   height="67.404465mm"
   viewBox="0 0 230.32366 254.75703"
   sodipodi:docname="V337S_epistasis.svg"
   inkscape:version="1.1.2 (0a00cf5339, 2022-02-04)"
   inkscape:export-filename="/home/ute/Documents/bioinformatic_analyses/2024-05_LargeRubiscoLibrary/lfcSE_weighted_outputImages/svg/SuppFig_growthCurves/V337S_epistasis.png"
   inkscape:export-xdpi="300"
   inkscape:export-ydpi="300"
   xmlns:inkscape="http://www.inkscape.org/namespaces/inkscape"
   xmlns:sodipodi="http://sodipodi.sourceforge.net/DTD/sodipodi-0.dtd"
   xmlns="http://www.w3.org/2000/svg"
   xmlns:svg="http://www.w3.org/2000/svg"><defs
     id="defs6"><clipPath
       clipPathUnits="userSpaceOnUse"
       id="clipPath24"><path
         d="M 0,0 H 525 V 324 H 0 Z"
         id="path22" /></clipPath><clipPath
       clipPathUnits="userSpaceOnUse"
       id="clipPath36"><path
         d="M 33.73,31.91 H 359.4 V 300.85 H 33.73 Z"
         id="path34" /></clipPath><clipPath
       clipPathUnits="userSpaceOnUse"
       id="clipPath30"><path
         d="m 28.47,31.91 h 78.91 V 162.25 H 28.47 Z"
         id="path28" /></clipPath><clipPath
       clipPathUnits="userSpaceOnUse"
       id="clipPath30-3"><path
         d="m 28.47,31.91 h 44.9 v 130.34 h -44.9 z"
         id="path28-6" /></clipPath><clipPath
       clipPathUnits="userSpaceOnUse"
       id="clipPath36-3"><path
         d="M 33.73,31.91 H 360.09 V 300.85 H 33.73 Z"
         id="path34-6" /></clipPath></defs><sodipodi:namedview
     id="namedview4"
     pagecolor="#ffffff"
     bordercolor="#666666"
     borderopacity="1.0"
     inkscape:pageshadow="2"
     inkscape:pageopacity="0.0"
     inkscape:pagecheckerboard="0"
     showgrid="false"
     inkscape:zoom="2.6532923"
     inkscape:cx="87.438537"
     inkscape:cy="177.8922"
     inkscape:window-width="1551"
     inkscape:window-height="991"
     inkscape:window-x="26"
     inkscape:window-y="23"
     inkscape:window-maximized="0"
     inkscape:current-layer="g8"
     fit-margin-top="2"
     lock-margins="true"
     units="mm"
     fit-margin-left="2"
     fit-margin-right="2"
     fit-margin-bottom="2"
     inkscape:document-units="mm" /><g
     id="g8"
     inkscape:groupmode="layer"
     inkscape:label="Fig3"
     transform="matrix(1.3333333,0,0,-1.3333333,9.4804412,65.669812)"><g
       id="g30"
       transform="matrix(0.43596706,0,0,0.43689634,2.9757412,-87.857195)"
       style="stroke-width:2.29131"><g
         id="g32"
         clip-path="url(#clipPath36-3)"
         style="stroke-width:2.29131"><path
           d="M 33.73,31.91 H 360.09 V 300.85 H 33.73 Z"
           style="fill:#ffffff;fill-opacity:1;fill-rule:nonzero;stroke:none;stroke-width:2.29131"
           id="path38-7" /><path
           d="M 33.73,44.32 H 360.08"
           style="fill:none;stroke:#dedede;stroke-width:0.618654;stroke-linecap:butt;stroke-linejoin:round;stroke-miterlimit:10;stroke-dasharray:none;stroke-opacity:1"
           id="path40-5" /><path
           d="M 33.73,89.03 H 360.08"
           style="fill:none;stroke:#dedede;stroke-width:0.618654;stroke-linecap:butt;stroke-linejoin:round;stroke-miterlimit:10;stroke-dasharray:none;stroke-opacity:1"
           id="path42-3" /><path
           d="M 33.73,133.74 H 360.08"
           style="fill:none;stroke:#dedede;stroke-width:0.618654;stroke-linecap:butt;stroke-linejoin:round;stroke-miterlimit:10;stroke-dasharray:none;stroke-opacity:1"
           id="path44-5" /><path
           d="M 33.73,178.45 H 360.08"
           style="fill:none;stroke:#dedede;stroke-width:0.618654;stroke-linecap:butt;stroke-linejoin:round;stroke-miterlimit:10;stroke-dasharray:none;stroke-opacity:1"
           id="path46-6" /><path
           d="M 33.73,223.16 H 360.08"
           style="fill:none;stroke:#dedede;stroke-width:0.618654;stroke-linecap:butt;stroke-linejoin:round;stroke-miterlimit:10;stroke-dasharray:none;stroke-opacity:1"
           id="path48-2" /><path
           d="M 33.73,267.86 H 360.08"
           style="fill:none;stroke:#dedede;stroke-width:0.618654;stroke-linecap:butt;stroke-linejoin:round;stroke-miterlimit:10;stroke-dasharray:none;stroke-opacity:1"
           id="path50-9" /><path
           d="M 85.28,31.91 V 300.85"
           style="fill:none;stroke:#dedede;stroke-width:0.618654;stroke-linecap:butt;stroke-linejoin:round;stroke-miterlimit:10;stroke-dasharray:none;stroke-opacity:1"
           id="path52-1" /><path
           d="M 158.72,31.91 V 300.85"
           style="fill:none;stroke:#dedede;stroke-width:0.618654;stroke-linecap:butt;stroke-linejoin:round;stroke-miterlimit:10;stroke-dasharray:none;stroke-opacity:1"
           id="path54-2" /><path
           d="M 232.16,31.91 V 300.85"
           style="fill:none;stroke:#dedede;stroke-width:0.618654;stroke-linecap:butt;stroke-linejoin:round;stroke-miterlimit:10;stroke-dasharray:none;stroke-opacity:1"
           id="path56-7" /><path
           d="M 305.59,31.91 V 300.85"
           style="fill:none;stroke:#dedede;stroke-width:0.618654;stroke-linecap:butt;stroke-linejoin:round;stroke-miterlimit:10;stroke-dasharray:none;stroke-opacity:1"
           id="path58-0" /><path
           d="M 33.73,66.68 H 360.08"
           style="fill:none;stroke:#dedede;stroke-width:1.21439;stroke-linecap:butt;stroke-linejoin:round;stroke-miterlimit:10;stroke-dasharray:none;stroke-opacity:1"
           id="path60-9" /><path
           d="M 33.73,111.39 H 360.08"
           style="fill:none;stroke:#dedede;stroke-width:1.21439;stroke-linecap:butt;stroke-linejoin:round;stroke-miterlimit:10;stroke-dasharray:none;stroke-opacity:1"
           id="path62-3" /><path
           d="M 33.73,156.09 H 360.08"
           style="fill:none;stroke:#dedede;stroke-width:1.21439;stroke-linecap:butt;stroke-linejoin:round;stroke-miterlimit:10;stroke-dasharray:none;stroke-opacity:1"
           id="path64-6" /><path
           d="M 33.73,200.8 H 360.08"
           style="fill:none;stroke:#dedede;stroke-width:1.21439;stroke-linecap:butt;stroke-linejoin:round;stroke-miterlimit:10;stroke-dasharray:none;stroke-opacity:1"
           id="path66-0" /><path
           d="M 33.73,245.51 H 360.08"
           style="fill:none;stroke:#dedede;stroke-width:1.21439;stroke-linecap:butt;stroke-linejoin:round;stroke-miterlimit:10;stroke-dasharray:none;stroke-opacity:1"
           id="path68-6" /><path
           d="M 33.73,290.22 H 360.08"
           style="fill:none;stroke:#dedede;stroke-width:1.21439;stroke-linecap:butt;stroke-linejoin:round;stroke-miterlimit:10;stroke-dasharray:none;stroke-opacity:1"
           id="path70-2" /><path
           d="M 48.56,31.91 V 300.85"
           style="fill:none;stroke:#dedede;stroke-width:1.21439;stroke-linecap:butt;stroke-linejoin:round;stroke-miterlimit:10;stroke-dasharray:none;stroke-opacity:1"
           id="path72-6" /><path
           d="M 122,31.91 V 300.85"
           style="fill:none;stroke:#dedede;stroke-width:1.21439;stroke-linecap:butt;stroke-linejoin:round;stroke-miterlimit:10;stroke-dasharray:none;stroke-opacity:1"
           id="path74-1" /><path
           d="M 195.44,31.91 V 300.85"
           style="fill:none;stroke:#dedede;stroke-width:1.21439;stroke-linecap:butt;stroke-linejoin:round;stroke-miterlimit:10;stroke-dasharray:none;stroke-opacity:1"
           id="path76-8" /><path
           d="M 268.88,31.91 V 300.85"
           style="fill:none;stroke:#dedede;stroke-width:1.21439;stroke-linecap:butt;stroke-linejoin:round;stroke-miterlimit:10;stroke-dasharray:none;stroke-opacity:1"
           id="path78-7" /><path
           d="M 342.31,31.91 V 300.85"
           style="fill:none;stroke:#dedede;stroke-width:1.21439;stroke-linecap:butt;stroke-linejoin:round;stroke-miterlimit:10;stroke-dasharray:none;stroke-opacity:1"
           id="path80-9" /><path
           d="m 48.56,156.09 v 0 l 108.69,20.45 v 0 l 143.94,58.89 v 0 l 44.06,29.61 v 0"
           style="fill:none;stroke:#f8766d;stroke-width:1.46644;stroke-linecap:butt;stroke-linejoin:round;stroke-miterlimit:10;stroke-dasharray:none;stroke-opacity:1"
           id="path82-2" /><path
           d="m 48.56,156.09 108.69,22.94 143.94,61.33 44.06,27.06"
           style="fill:none;stroke:#7cae00;stroke-width:1.46644;stroke-linecap:butt;stroke-linejoin:round;stroke-miterlimit:10;stroke-dasharray:none;stroke-opacity:1"
           id="path84-0" /><path
           d="m 48.56,156.09 v 0 0 0 0 0 l 108.69,-29.05 v 0 0 0 0 0 L 301.19,85.36 v 0 0 0 0 0 l 44.06,-19.52 v 0 0 0 0 0"
           style="fill:none;stroke:#00bfc4;stroke-width:1.46644;stroke-linecap:butt;stroke-linejoin:round;stroke-miterlimit:10;stroke-dasharray:none;stroke-opacity:1"
           id="path86-2" /><path
           d="m 48.56,156.09 v 0 0 0 0 0 0 0 0 0 0 0 0 0 0 0 0 0 0 0 0 0 0 0 0 0 0 0 0 0 l 108.69,24 v 0 0 0 0 0 0 0 0 0 0 0 0 0 0 0 0 0 0 0 0 0 0 0 0 0 0 0 0 0 l 143.94,37.46 v 0 0 0 0 0 0 0 0 0 0 0 0 0 0 0 0 0 0 0 0 0 0 0 0 0 0 0 0 0 l 44.06,25.06 v 0 0 0 0 0 0 0 0 0 0 0 0 0 0 0 0 0 0 0 0 0 0 0 0 0 0 0 0 0"
           style="fill:none;stroke:#c77cff;stroke-width:1.46644;stroke-linecap:butt;stroke-linejoin:round;stroke-miterlimit:10;stroke-dasharray:none;stroke-opacity:1"
           id="path88-3" /><path
           d="m 48.56,156.09 v 0 l 108.69,35.18 v 0 l 143.94,46.23 v 0 l 44.06,28.62 v 0 -2.15 0 l -44.06,-30.61 v 0 L 157.25,161.82 v 0 z"
           style="fill:#f8766d;fill-opacity:0.102;fill-rule:nonzero;stroke:none;stroke-width:2.29131"
           id="path90" /><path
           d="m 48.56,156.09 108.69,45.54 143.94,59.87 44.06,27.12 v -42.4 L 301.19,219.21 157.25,156.42 Z"
           style="fill:#7cae00;fill-opacity:0.102;fill-rule:nonzero;stroke:none;stroke-width:2.29131"
           id="path92" /><path
           d="m 48.56,156.09 v 0 0 0 0 0 l 108.69,-20.97 v 0 0 0 0 0 l 143.94,-31.67 v 0 0 0 0 0 l 44.06,-15.91 v 0 0 0 0 0 -43.4 0 0 0 0 0 l -44.06,23.13 v 0 0 0 0 0 l -143.94,51.68 v 0 0 0 0 0 z"
           style="fill:#00bfc4;fill-opacity:0.102;fill-rule:nonzero;stroke:none;stroke-width:2.29131"
           id="path94" /><path
           d="m 48.56,156.09 v 0 0 0 0 0 0 0 0 0 0 0 0 0 0 0 0 0 0 0 0 0 0 0 0 0 0 0 0 0 l 108.69,27.81 v 0 0 0 0 0 0 0 0 0 0 0 0 0 0 0 0 0 0 0 0 0 0 0 0 0 0 0 0 0 l 143.94,42 v 0 0 0 0 0 0 0 0 0 0 0 0 0 0 0 0 0 0 0 0 0 0 0 0 0 0 0 0 0 l 44.06,28.99 v 0 0 0 0 0 0 0 0 0 0 0 0 0 0 0 0 0 0 0 0 0 0 0 0 0 0 0 0 0 -24.57 0 0 0 0 0 0 0 0 0 0 0 0 0 0 0 0 0 0 0 0 0 0 0 0 0 0 0 0 0 L 301.19,209.2 v 0 0 0 0 0 0 0 0 0 0 0 0 0 0 0 0 0 0 0 0 0 0 0 0 0 0 0 0 0 L 157.25,176.29 v 0 0 0 0 0 0 0 0 0 0 0 0 0 0 0 0 0 0 0 0 0 0 0 0 0 0 0 0 0 L 48.56,156.09 v 0 0 0 0 0 0 0 0 0 z"
           style="fill:#c77cff;fill-opacity:0.102;fill-rule:nonzero;stroke:none;stroke-width:2.29131"
           id="path96" /><path
           d="M 33.73,31.91 H 360.09 V 300.85 H 33.73 Z"
           style="fill:none;stroke:#b3b3b3;stroke-width:2.4517;stroke-linecap:round;stroke-linejoin:round;stroke-miterlimit:10;stroke-dasharray:none;stroke-opacity:1"
           id="path98" /></g></g><g
       id="g14" /><g
       id="g16" /><g
       id="g28" /><g
       id="g96" /><g
       id="g98" /><g
       id="g100" /><g
       id="g102" /><g
       id="g104" /><g
       id="g106" /><g
       id="g108" /><g
       id="g110" /><g
       id="g112" /><g
       id="g114" /><g
       id="g116" /><g
       id="g118" /><g
       id="g142" /><g
       id="g156" /><g
       id="g158" /><g
       id="g160" /><g
       id="g162" /><g
       id="g164" /><g
       id="g166" /><g
       id="g168" /><g
       id="g170" /><g
       id="g172" /><g
       id="g186" /><g
       id="g210" /><g
       id="g212" /><g
       id="g214" /><g
       id="g216" /><g
       id="g218" /><g
       id="g220" /><g
       id="g222" /><g
       id="g224" /><g
       id="g232" /><g
       id="g240" /><g
       id="g242" /><g
       id="g244" /><g
       id="g246" /><g
       id="g248" /><g
       id="g250" /><g
       id="g252" /><g
       id="g258" /><g
       id="g266" /><g
       id="g272" /><g
       id="g278" /><g
       id="g284" /><g
       id="g290" /><g
       id="g296" /><g
       id="g302" /><g
       id="g308" /><g
       id="g314" /><g
       id="g320" /><g
       id="g326" /><g
       id="g332" /><g
       id="g338" /><g
       id="g346" /><g
       id="g354" /><g
       id="g362" /><g
       id="g370" /><g
       id="g372" /><g
       id="g374" /><g
       id="g376" /><g
       id="g378" /><g
       id="g380" /><g
       id="g382" /><g
       id="g384" /><g
       id="g386" /><g
       id="g388" /><g
       id="g390" /><g
       id="g392" /><g
       id="g394" /><g
       id="g396" /><g
       id="g398" /><g
       id="g406" /><g
       id="g408" /><g
       id="g410" /><g
       id="g412" /><g
       id="g24787"
       transform="translate(8.6876635,19.5)"><g
         id="g274"
         transform="matrix(0.52981858,0,0,0.52981858,-190.50994,-221.67741)"
         style="stroke-width:1.88744"><path
           d="m 377.57,184.4 h 13.82"
           style="fill:none;stroke:#f8766d;stroke-width:1.20796;stroke-linecap:butt;stroke-linejoin:round;stroke-miterlimit:10;stroke-dasharray:none;stroke-opacity:1"
           id="path276" /></g><g
         id="g280"
         transform="matrix(0.52981858,0,0,0.52981858,-190.50994,-221.67741)"
         style="stroke-width:1.88744"><path
           d="m 376.55,176.47 h 15.86 v 15.86 h -15.86 z"
           style="fill:#f8766d;fill-opacity:0.102;fill-rule:nonzero;stroke:none;stroke-width:1.88744"
           id="path282" /></g><g
         id="g292"
         transform="matrix(0.52981858,0,0,0.52981858,-190.50994,-221.67741)"
         style="stroke-width:1.88744"><path
           d="m 377.57,167.12 h 13.82"
           style="fill:none;stroke:#7cae00;stroke-width:1.20796;stroke-linecap:butt;stroke-linejoin:round;stroke-miterlimit:10;stroke-dasharray:none;stroke-opacity:1"
           id="path294" /></g><g
         id="g298"
         transform="matrix(0.52981858,0,0,0.52981858,-190.50994,-221.67741)"
         style="stroke-width:1.88744"><path
           d="m 376.55,159.19 h 15.86 v 15.86 h -15.86 z"
           style="fill:#7cae00;fill-opacity:0.102;fill-rule:nonzero;stroke:none;stroke-width:1.88744"
           id="path300" /></g><g
         id="g310"
         transform="matrix(0.52981858,0,0,0.52981858,-190.50994,-221.67741)"
         style="stroke-width:1.88744"><path
           d="m 377.57,149.84 h 13.82"
           style="fill:none;stroke:#00bfc4;stroke-width:1.20796;stroke-linecap:butt;stroke-linejoin:round;stroke-miterlimit:10;stroke-dasharray:none;stroke-opacity:1"
           id="path312" /></g><g
         id="g316"
         transform="matrix(0.52981858,0,0,0.52981858,-190.50994,-221.67741)"
         style="stroke-width:1.88744"><path
           d="m 376.55,141.91 h 15.86 v 15.86 h -15.86 z"
           style="fill:#00bfc4;fill-opacity:0.102;fill-rule:nonzero;stroke:none;stroke-width:1.88744"
           id="path318" /></g><g
         id="g328"
         transform="matrix(0.52981858,0,0,0.52981858,-190.50994,-221.67741)"
         style="stroke-width:1.88744"><path
           d="m 377.57,132.56 h 13.82"
           style="fill:none;stroke:#c77cff;stroke-width:1.20796;stroke-linecap:butt;stroke-linejoin:round;stroke-miterlimit:10;stroke-dasharray:none;stroke-opacity:1"
           id="path330" /></g><g
         id="g334"
         transform="matrix(0.52981858,0,0,0.52981858,-190.50994,-221.67741)"
         style="stroke-width:1.88744"><path
           d="m 376.55,124.63 h 15.86 v 15.86 h -15.86 z"
           style="fill:#c77cff;fill-opacity:0.102;fill-rule:nonzero;stroke:none;stroke-width:1.88744"
           id="path336" /></g><text
         xml:space="preserve"
         style="font-size:8px;line-height:1.25;font-family:sans-serif;letter-spacing:0px;word-spacing:0px;stroke-width:0.75"
         x="20.485073"
         y="126.48277"
         id="text6256-3-2-6-2-7"
         transform="scale(1,-1)"><tspan
           sodipodi:role="line"
           id="tspan6254-6-9-06-6-9"
           style="font-size:8px;stroke-width:0.75"
           x="20.485073"
           y="126.48277">H141V,H265A,S446T</tspan></text><text
         xml:space="preserve"
         style="font-size:8px;line-height:1.25;font-family:sans-serif;letter-spacing:0px;word-spacing:0px;stroke-width:0.75"
         x="20.485073"
         y="135.63803"
         id="text6256-3-2-6-2-7-2"
         transform="scale(1,-1)"><tspan
           sodipodi:role="line"
           id="tspan6254-6-9-06-6-9-0"
           style="font-size:8px;stroke-width:0.75"
           x="20.485073"
           y="135.63803">H141V,H265A,V337S,S446T</tspan></text><text
         xml:space="preserve"
         style="font-size:8px;line-height:1.25;font-family:sans-serif;letter-spacing:0px;word-spacing:0px;stroke-width:0.75"
         x="20.485073"
         y="145.20151"
         id="text6256-3-2-6-2-7-23"
         transform="scale(1,-1)"><tspan
           sodipodi:role="line"
           id="tspan6254-6-9-06-6-9-7"
           style="font-size:8px;stroke-width:0.75"
           x="20.485073"
           y="145.20151">V337S</tspan></text><text
         xml:space="preserve"
         style="font-size:8px;line-height:1.25;font-family:sans-serif;letter-spacing:0px;word-spacing:0px;stroke-width:0.75"
         x="20.543667"
         y="154.42708"
         id="text6256-3-2-6-2-7-5"
         transform="scale(1,-1)"><tspan
           sodipodi:role="line"
           id="tspan6254-6-9-06-6-9-9"
           style="font-size:8px;stroke-width:0.75"
           x="20.543667"
           y="154.42708">base variant</tspan></text></g><path
       d="M 16.483821,-19.662045 H 17.68091"
       style="fill:none;stroke:#b3b3b3;stroke-width:0.53;stroke-linecap:butt;stroke-linejoin:round;stroke-miterlimit:10;stroke-dasharray:none;stroke-opacity:1"
       id="path148" /><path
       d="M 16.483821,-58.724947 H 17.68091"
       style="fill:none;stroke:#b3b3b3;stroke-width:0.53;stroke-linecap:butt;stroke-linejoin:round;stroke-miterlimit:10;stroke-dasharray:none;stroke-opacity:1"
       id="path148-1" /><path
       d="M 16.483821,-39.191312 H 17.68091"
       style="fill:none;stroke:#b3b3b3;stroke-width:0.53;stroke-linecap:butt;stroke-linejoin:round;stroke-miterlimit:10;stroke-dasharray:none;stroke-opacity:1"
       id="path148-1-7" /><path
       d="M 16.483821,-0.12840993 H 17.68091"
       style="fill:none;stroke:#b3b3b3;stroke-width:0.53;stroke-linecap:butt;stroke-linejoin:round;stroke-miterlimit:10;stroke-dasharray:none;stroke-opacity:1"
       id="path150" /><path
       d="M 16.483821,19.405225 H 17.68091"
       style="fill:none;stroke:#b3b3b3;stroke-width:0.53;stroke-linecap:butt;stroke-linejoin:round;stroke-miterlimit:10;stroke-dasharray:none;stroke-opacity:1"
       id="path152" /><path
       d="M 16.483821,38.938861 H 17.68091"
       style="fill:none;stroke:#b3b3b3;stroke-width:0.53;stroke-linecap:butt;stroke-linejoin:round;stroke-miterlimit:10;stroke-dasharray:none;stroke-opacity:1"
       id="path154" /><g
       id="g174"
       transform="matrix(0.4368938,0,0,0.4368938,2.9444823,-87.857119)"
       style="stroke-width:2.28889"><path
         d="m 48.53,29.17 v 2.74"
         style="fill:none;stroke:#b3b3b3;stroke-width:1.21311;stroke-linecap:butt;stroke-linejoin:round;stroke-miterlimit:10;stroke-dasharray:none;stroke-opacity:1"
         id="path176" /><path
         d="m 121.82,29.17 v 2.74"
         style="fill:none;stroke:#b3b3b3;stroke-width:1.21311;stroke-linecap:butt;stroke-linejoin:round;stroke-miterlimit:10;stroke-dasharray:none;stroke-opacity:1"
         id="path178" /><path
         d="m 195.1,29.17 v 2.74"
         style="fill:none;stroke:#b3b3b3;stroke-width:1.21311;stroke-linecap:butt;stroke-linejoin:round;stroke-miterlimit:10;stroke-dasharray:none;stroke-opacity:1"
         id="path180" /><path
         d="m 268.38,29.17 v 2.74"
         style="fill:none;stroke:#b3b3b3;stroke-width:1.21311;stroke-linecap:butt;stroke-linejoin:round;stroke-miterlimit:10;stroke-dasharray:none;stroke-opacity:1"
         id="path182" /><path
         d="m 341.67,29.17 v 2.74"
         style="fill:none;stroke:#b3b3b3;stroke-width:1.21311;stroke-linecap:butt;stroke-linejoin:round;stroke-miterlimit:10;stroke-dasharray:none;stroke-opacity:1"
         id="path184" /></g><text
       xml:space="preserve"
       style="font-size:8px;line-height:1.25;font-family:sans-serif;letter-spacing:0px;word-spacing:0px;stroke-width:0.75"
       x="10.919978"
       y="-36.026752"
       id="text6256-3"
       transform="scale(1,-1)"><tspan
         sodipodi:role="line"
         id="tspan6254-6"
         style="font-size:8px;stroke-width:0.75"
         x="10.919978"
         y="-36.026752">3</tspan></text><text
       xml:space="preserve"
       style="font-size:8px;line-height:1.25;font-family:sans-serif;letter-spacing:0px;word-spacing:0px;stroke-width:0.75"
       x="11.017634"
       y="-16.436476"
       id="text6256-3-3"
       transform="scale(1,-1)"><tspan
         sodipodi:role="line"
         id="tspan6254-6-56"
         style="font-size:8px;stroke-width:0.75"
         x="11.017634"
         y="-16.436476">2</tspan></text><text
       xml:space="preserve"
       style="font-size:8px;line-height:1.25;font-family:sans-serif;letter-spacing:0px;word-spacing:0px;stroke-width:0.75"
       x="11.041278"
       y="3.0444255"
       id="text6256-3-3-2"
       transform="scale(1,-1)"><tspan
         sodipodi:role="line"
         id="tspan6254-6-56-9"
         style="font-size:8px;stroke-width:0.75"
         x="11.041278"
         y="3.0444255">1</tspan></text><text
       xml:space="preserve"
       style="font-size:8px;line-height:1.25;font-family:sans-serif;letter-spacing:0px;word-spacing:0px;stroke-width:0.75"
       x="8.1934156"
       y="61.693699"
       id="text6256-3-3-5"
       transform="scale(1,-1)"><tspan
         sodipodi:role="line"
         id="tspan6254-6-56-92"
         style="font-size:8px;stroke-width:0.75"
         x="8.1934156"
         y="61.693699">-2</tspan></text><text
       xml:space="preserve"
       style="font-size:8px;line-height:1.25;font-family:sans-serif;letter-spacing:0px;word-spacing:0px;stroke-width:0.75"
       x="8.1309156"
       y="42.107327"
       id="text6256-3-3-2-2"
       transform="scale(1,-1)"><tspan
         sodipodi:role="line"
         id="tspan6254-6-56-9-8"
         style="font-size:8px;stroke-width:0.75"
         x="8.1309156"
         y="42.107327">-1</tspan></text><text
       xml:space="preserve"
       style="font-size:8px;line-height:1.25;font-family:sans-serif;letter-spacing:0px;word-spacing:0px;stroke-width:0.75"
       x="10.810603"
       y="22.574154"
       id="text6256-3-2"
       transform="scale(1,-1)"><tspan
         sodipodi:role="line"
         id="tspan6254-6-9"
         style="font-size:8px;stroke-width:0.75"
         x="10.810603"
         y="22.574154">0</tspan></text><text
       xml:space="preserve"
       style="font-size:8px;line-height:1.25;font-family:sans-serif;letter-spacing:0px;word-spacing:0px;stroke-width:0.75"
       x="21.60397"
       y="81.749352"
       id="text6256-3-2-7"
       transform="scale(1,-1)"><tspan
         sodipodi:role="line"
         id="tspan6254-6-9-0"
         style="font-size:8px;stroke-width:0.75"
         x="21.60397"
         y="81.749352">0</tspan></text><text
       xml:space="preserve"
       style="font-size:8px;line-height:1.25;font-family:sans-serif;letter-spacing:0px;word-spacing:0px;stroke-width:0.75"
       x="85.678558"
       y="81.749352"
       id="text6256-3-2-9"
       transform="scale(1,-1)"><tspan
         sodipodi:role="line"
         id="tspan6254-6-9-3"
         style="font-size:8px;stroke-width:0.75"
         x="85.678558"
         y="81.749352">5</tspan></text><text
       xml:space="preserve"
       style="font-size:8px;line-height:1.25;font-family:sans-serif;letter-spacing:0px;word-spacing:0px;stroke-width:0.75"
       x="146.95432"
       y="81.749352"
       id="text6256-3-2-6"
       transform="scale(1,-1)"><tspan
         sodipodi:role="line"
         id="tspan6254-6-9-06"
         style="font-size:8px;stroke-width:0.75"
         x="146.95432"
         y="81.749352">10</tspan></text><text
       xml:space="preserve"
       style="font-size:8px;line-height:1.25;font-family:sans-serif;letter-spacing:0px;word-spacing:0px;stroke-width:0.75"
       x="51.158451"
       y="90.738213"
       id="text6256-3-2-6-2"
       transform="scale(1,-1)"><tspan
         sodipodi:role="line"
         id="tspan6254-6-9-06-6"
         style="font-size:8px;stroke-width:0.75"
         x="51.158451"
         y="90.738213">Time (generations)</tspan></text><text
       xml:space="preserve"
       style="font-size:8px;line-height:1.25;font-family:sans-serif;letter-spacing:0px;word-spacing:0px;stroke-width:0.75"
       x="-48.113995"
       y="4.6292729"
       id="text6256-3-2-6-2-1"
       transform="matrix(0,1,1,0,0,0)"><tspan
         sodipodi:role="line"
         id="tspan6254-6-9-06-6-8"
         style="font-size:8px;stroke-width:0.75"
         x="-48.113995"
         y="4.6292729">Log2FC (to g=0)</tspan></text></g></svg>
