<?xml version="1.0" encoding="UTF-8" standalone="no"?>
<!-- Created with Inkscape (http://www.inkscape.org/) -->

<svg
   version="1.1"
   id="svg2"
   xml:space="preserve"
   width="60.939796mm"
   height="60.944912mm"
   viewBox="0 0 230.32365 230.34297"
   sodipodi:docname="WT_and_K214H.svg"
   inkscape:version="1.1.2 (0a00cf5339, 2022-02-04)"
   inkscape:export-filename="/home/ute/Documents/bioinformatic_analyses/2024-05_LargeRubiscoLibrary/lfcSE_weighted_outputImages/svg/SuppFig_growthCurves/WT_K214H.png"
   inkscape:export-xdpi="300"
   inkscape:export-ydpi="300"
   xmlns:inkscape="http://www.inkscape.org/namespaces/inkscape"
   xmlns:sodipodi="http://sodipodi.sourceforge.net/DTD/sodipodi-0.dtd"
   xmlns="http://www.w3.org/2000/svg"
   xmlns:svg="http://www.w3.org/2000/svg"><defs
     id="defs6"><clipPath
       clipPathUnits="userSpaceOnUse"
       id="clipPath24"><path
         d="M 0,0 H 525 V 324 H 0 Z"
         id="path22" /></clipPath><clipPath
       clipPathUnits="userSpaceOnUse"
       id="clipPath36"><path
         d="M 33.73,31.91 H 359.4 V 300.85 H 33.73 Z"
         id="path34" /></clipPath><clipPath
       clipPathUnits="userSpaceOnUse"
       id="clipPath30"><path
         d="m 28.47,31.91 h 78.91 V 162.25 H 28.47 Z"
         id="path28" /></clipPath><clipPath
       clipPathUnits="userSpaceOnUse"
       id="clipPath30-3"><path
         d="m 28.47,31.91 h 44.9 v 130.34 h -44.9 z"
         id="path28-6" /></clipPath><clipPath
       clipPathUnits="userSpaceOnUse"
       id="clipPath30-36"><path
         d="M 33.73,31.91 H 169.02 V 162.25 H 33.73 Z"
         id="path28-7" /></clipPath></defs><sodipodi:namedview
     id="namedview4"
     pagecolor="#ffffff"
     bordercolor="#666666"
     borderopacity="1.0"
     inkscape:pageshadow="2"
     inkscape:pageopacity="0.0"
     inkscape:pagecheckerboard="0"
     showgrid="true"
     inkscape:zoom="2.6532923"
     inkscape:cx="-52.387745"
     inkscape:cy="128.14269"
     inkscape:window-width="1551"
     inkscape:window-height="991"
     inkscape:window-x="26"
     inkscape:window-y="23"
     inkscape:window-maximized="0"
     inkscape:current-layer="g8"
     fit-margin-top="2"
     lock-margins="true"
     units="mm"
     fit-margin-left="2"
     fit-margin-right="2"
     fit-margin-bottom="2"
     inkscape:document-units="mm" /><g
     id="g8"
     inkscape:groupmode="layer"
     inkscape:label="Fig3"
     transform="matrix(1.3333333,0,0,-1.3333333,9.4804412,65.669809)"><g
       id="g24"
       transform="matrix(1.0516831,0,0,0.90147998,-17.792361,-102.68206)"
       style="stroke-width:1.02702"><g
         id="g26"
         clip-path="url(#clipPath30-36)"
         style="stroke-width:1.02702"><path
           d="M 33.73,31.91 H 169.02 V 162.25 H 33.73 Z"
           style="fill:#ffffff;fill-opacity:1;fill-rule:nonzero;stroke:none;stroke-width:1.02702"
           id="path32" /><path
           d="M 33.73,52.15 H 169.02"
           style="fill:none;stroke:#dedede;stroke-width:0.277296;stroke-linecap:butt;stroke-linejoin:round;stroke-miterlimit:10;stroke-dasharray:none;stroke-opacity:1"
           id="path34-53" /><path
           d="M 33.73,92.14 H 169.02"
           style="fill:none;stroke:#dedede;stroke-width:0.277296;stroke-linecap:butt;stroke-linejoin:round;stroke-miterlimit:10;stroke-dasharray:none;stroke-opacity:1"
           id="path36" /><path
           d="M 33.73,132.13 H 169.02"
           style="fill:none;stroke:#dedede;stroke-width:0.277296;stroke-linecap:butt;stroke-linejoin:round;stroke-miterlimit:10;stroke-dasharray:none;stroke-opacity:1"
           id="path38-5" /><path
           d="M 55.1,31.91 V 162.25"
           style="fill:none;stroke:#dedede;stroke-width:0.277296;stroke-linecap:butt;stroke-linejoin:round;stroke-miterlimit:10;stroke-dasharray:none;stroke-opacity:1"
           id="path40-6" /><path
           d="M 85.54,31.91 V 162.25"
           style="fill:none;stroke:#dedede;stroke-width:0.277296;stroke-linecap:butt;stroke-linejoin:round;stroke-miterlimit:10;stroke-dasharray:none;stroke-opacity:1"
           id="path42-2" /><path
           d="M 115.98,31.91 V 162.25"
           style="fill:none;stroke:#dedede;stroke-width:0.277296;stroke-linecap:butt;stroke-linejoin:round;stroke-miterlimit:10;stroke-dasharray:none;stroke-opacity:1"
           id="path44-9" /><path
           d="M 146.43,31.91 V 162.25"
           style="fill:none;stroke:#dedede;stroke-width:0.277296;stroke-linecap:butt;stroke-linejoin:round;stroke-miterlimit:10;stroke-dasharray:none;stroke-opacity:1"
           id="path46-1" /><path
           d="M 33.73,32.16 H 169.02"
           style="fill:none;stroke:#dedede;stroke-width:0.544321;stroke-linecap:butt;stroke-linejoin:round;stroke-miterlimit:10;stroke-dasharray:none;stroke-opacity:1"
           id="path48-2" /><path
           d="M 33.73,72.15 H 169.02"
           style="fill:none;stroke:#dedede;stroke-width:0.544321;stroke-linecap:butt;stroke-linejoin:round;stroke-miterlimit:10;stroke-dasharray:none;stroke-opacity:1"
           id="path50-7" /><path
           d="M 33.73,112.14 H 169.02"
           style="fill:none;stroke:#dedede;stroke-width:0.544321;stroke-linecap:butt;stroke-linejoin:round;stroke-miterlimit:10;stroke-dasharray:none;stroke-opacity:1"
           id="path52-0" /><path
           d="M 33.73,152.13 H 169.02"
           style="fill:none;stroke:#dedede;stroke-width:0.544321;stroke-linecap:butt;stroke-linejoin:round;stroke-miterlimit:10;stroke-dasharray:none;stroke-opacity:1"
           id="path54-9" /><path
           d="M 39.88,31.91 V 162.25"
           style="fill:none;stroke:#dedede;stroke-width:0.544321;stroke-linecap:butt;stroke-linejoin:round;stroke-miterlimit:10;stroke-dasharray:none;stroke-opacity:1"
           id="path56-3" /><path
           d="M 70.32,31.91 V 162.25"
           style="fill:none;stroke:#dedede;stroke-width:0.544321;stroke-linecap:butt;stroke-linejoin:round;stroke-miterlimit:10;stroke-dasharray:none;stroke-opacity:1"
           id="path58-6" /><path
           d="M 100.76,31.91 V 162.25"
           style="fill:none;stroke:#dedede;stroke-width:0.544321;stroke-linecap:butt;stroke-linejoin:round;stroke-miterlimit:10;stroke-dasharray:none;stroke-opacity:1"
           id="path60-0" /><path
           d="M 131.21,31.91 V 162.25"
           style="fill:none;stroke:#dedede;stroke-width:0.544321;stroke-linecap:butt;stroke-linejoin:round;stroke-miterlimit:10;stroke-dasharray:none;stroke-opacity:1"
           id="path62-6" /><path
           d="M 161.65,31.91 V 162.25"
           style="fill:none;stroke:#dedede;stroke-width:0.544321;stroke-linecap:butt;stroke-linejoin:round;stroke-miterlimit:10;stroke-dasharray:none;stroke-opacity:1"
           id="path64-2" /><path
           d="m 39.88,112.14 v 0 0 L 84.93,96.29 v 0 0 L 144.6,79.91 v 0 0 l 18.27,10.69 v 0 0"
           style="fill:none;stroke:#f8766d;stroke-width:0.657294;stroke-linecap:butt;stroke-linejoin:round;stroke-miterlimit:10;stroke-dasharray:none;stroke-opacity:1"
           id="path66-6" /><path
           d="m 39.88,112.14 v 0 0 0 0 0 0 0 0 0 0 0 0 0 0 0 0 0 0 0 0 0 0 0 0 0 0 0 0 0 l 45.05,10.73 v 0 0 0 0 0 0 0 0 0 0 0 0 0 0 0 0 0 0 0 0 0 0 0 0 0 0 0 0 0 l 59.67,16.75 v 0 0 0 0 0 0 0 0 0 0 0 0 0 0 0 0 0 0 0 0 0 0 0 0 0 0 0 0 0 l 18.27,11.21 v 0 0 0 0 0 0 0 0 0 0 0 0 0 0 0 0 0 0 0 0 0 0 0 0 0 0 0 0 0"
           style="fill:none;stroke:#00bfc4;stroke-width:0.657294;stroke-linecap:butt;stroke-linejoin:round;stroke-miterlimit:10;stroke-dasharray:none;stroke-opacity:1"
           id="path68-1" /><path
           d="m 39.88,112.14 v 0 0 l 45.05,-5.69 v 0 0 l 59.67,15.53 v 0 0 l 18.27,11.49 v 0 0 -85.74 0 0 L 144.6,37.84 v 0 0 L 84.93,86.13 v 0 0 z"
           style="fill:#f8766d;fill-opacity:0.102;fill-rule:nonzero;stroke:none;stroke-width:1.02702"
           id="path70-8" /><path
           d="m 39.88,112.14 v 0 0 0 0 0 0 0 0 0 0 0 0 0 0 0 0 0 0 0 0 0 0 0 0 0 0 0 0 0 l 45.05,12.43 v 0 0 0 0 0 0 0 0 0 0 0 0 0 0 0 0 0 0 0 0 0 0 0 0 0 0 0 0 0 l 59.67,18.79 v 0 0 0 0 0 0 0 0 0 0 0 0 0 0 0 0 0 0 0 0 0 0 0 0 0 0 0 0 0 l 18.27,12.96 v 0 0 0 0 0 0 0 0 0 0 0 0 0 0 0 0 0 0 0 0 0 0 0 0 0 0 0 0 0 -10.99 0 0 0 0 0 0 0 0 0 0 0 0 0 0 0 0 0 0 0 0 0 0 0 0 0 0 0 0 0 l -18.27,-9.44 v 0 0 0 0 0 0 0 0 0 0 0 0 0 0 0 0 0 0 0 0 0 0 0 0 0 0 0 0 0 L 84.93,121.17 v 0 0 0 0 0 0 0 0 0 0 0 0 0 0 0 0 0 0 0 0 0 0 0 0 0 0 0 0 0 l -45.05,-9.03 v 0 0 0 0 0 0 0 0 z"
           style="fill:#00bfc4;fill-opacity:0.102;fill-rule:nonzero;stroke:none;stroke-width:1.02702"
           id="path72-7" /><path
           d="M 33.73,31.91 H 169.02 V 162.25 H 33.73 Z"
           style="fill:none;stroke:#b3b3b3;stroke-width:1.09892;stroke-linecap:round;stroke-linejoin:round;stroke-miterlimit:10;stroke-dasharray:none;stroke-opacity:1"
           id="path74-9" /></g></g><g
       id="g14" /><g
       id="g16" /><g
       id="g28" /><g
       id="g96" /><g
       id="g98" /><g
       id="g100" /><g
       id="g102" /><g
       id="g104" /><g
       id="g106" /><g
       id="g108" /><g
       id="g110" /><g
       id="g112" /><g
       id="g114" /><g
       id="g116" /><g
       id="g118" /><g
       id="g142" /><g
       id="g156" /><g
       id="g158" /><g
       id="g160" /><g
       id="g162" /><g
       id="g164" /><g
       id="g166" /><g
       id="g168" /><g
       id="g170" /><g
       id="g172" /><g
       id="g186" /><g
       id="g210" /><g
       id="g212" /><g
       id="g214" /><g
       id="g216" /><g
       id="g218" /><g
       id="g220" /><g
       id="g222" /><g
       id="g224" /><g
       id="g232" /><g
       id="g240" /><g
       id="g242" /><g
       id="g244" /><g
       id="g246" /><g
       id="g248" /><g
       id="g250" /><g
       id="g252" /><g
       id="g258" /><g
       id="g266" /><g
       id="g272" /><g
       id="g278" /><g
       id="g284" /><g
       id="g290" /><g
       id="g296" /><g
       id="g302" /><g
       id="g308" /><g
       id="g314" /><g
       id="g320" /><g
       id="g326" /><g
       id="g332" /><g
       id="g338" /><g
       id="g346" /><g
       id="g354" /><g
       id="g362" /><g
       id="g370" /><g
       id="g372" /><g
       id="g374" /><g
       id="g376" /><g
       id="g378" /><g
       id="g380" /><g
       id="g382" /><g
       id="g384" /><g
       id="g386" /><g
       id="g388" /><g
       id="g390" /><g
       id="g392" /><g
       id="g394" /><g
       id="g396" /><g
       id="g398" /><g
       id="g406" /><g
       id="g408" /><g
       id="g410" /><g
       id="g412" /><g
       id="g24787"
       transform="translate(8.6876637,19.5)"><g
         id="g316"
         transform="matrix(0.52981858,0,0,0.52981858,-190.50994,-212.52214)"
         style="stroke-width:1.88744"><path
           d="m 376.55,141.91 h 15.86 v 15.86 h -15.86 z"
           style="fill:#00bfc4;fill-opacity:0.102;fill-rule:nonzero;stroke:none;stroke-width:1.88744"
           id="path318" /></g><g
         id="g274"
         transform="matrix(0.52981858,0,0,0.52981858,-190.50994,-221.67741)"
         style="stroke-width:1.88744"><path
           d="m 377.57,184.4 h 13.82"
           style="fill:none;stroke:#f8766d;stroke-width:1.20796;stroke-linecap:butt;stroke-linejoin:round;stroke-miterlimit:10;stroke-dasharray:none;stroke-opacity:1"
           id="path276" /></g><g
         id="g280"
         transform="matrix(0.52981858,0,0,0.52981858,-190.50994,-221.67741)"
         style="stroke-width:1.88744"><path
           d="m 376.55,176.47 h 15.86 v 15.86 h -15.86 z"
           style="fill:#f8766d;fill-opacity:0.102;fill-rule:nonzero;stroke:none;stroke-width:1.88744"
           id="path282" /></g><g
         id="g310"
         transform="matrix(0.52981858,0,0,0.52981858,-190.50994,-212.52214)"
         style="stroke-width:1.88744"><path
           d="m 377.57,149.84 h 13.82"
           style="fill:none;stroke:#00bfc4;stroke-width:1.20796;stroke-linecap:butt;stroke-linejoin:round;stroke-miterlimit:10;stroke-dasharray:none;stroke-opacity:1"
           id="path312" /></g><text
         xml:space="preserve"
         style="font-size:8px;line-height:1.25;font-family:sans-serif;letter-spacing:0px;word-spacing:0px;stroke-width:0.75"
         x="20.485073"
         y="126.48277"
         id="text6256-3-2-6-2-7"
         transform="scale(1,-1)"><tspan
           sodipodi:role="line"
           id="tspan6254-6-9-06-6-9"
           style="font-size:8px;stroke-width:0.75"
           x="20.485073"
           y="126.48277">K214H</tspan></text><text
         xml:space="preserve"
         style="font-size:8px;line-height:1.25;font-family:sans-serif;letter-spacing:0px;word-spacing:0px;stroke-width:0.75"
         x="20.543667"
         y="135.63803"
         id="text6256-3-2-6-2-7-5"
         transform="scale(1,-1)"><tspan
           sodipodi:role="line"
           id="tspan6254-6-9-06-6-9-9"
           style="font-size:8px;stroke-width:0.75"
           x="20.543667"
           y="135.63803">base variant</tspan></text></g><path
       d="M 16.483821,-1.590095 H 17.68091"
       style="fill:none;stroke:#b3b3b3;stroke-width:0.53;stroke-linecap:butt;stroke-linejoin:round;stroke-miterlimit:10;stroke-dasharray:none;stroke-opacity:1"
       id="path148-1" /><path
       d="M 16.483821,34.460089 H 17.68091"
       style="fill:none;stroke:#b3b3b3;stroke-width:0.53;stroke-linecap:butt;stroke-linejoin:round;stroke-miterlimit:10;stroke-dasharray:none;stroke-opacity:1"
       id="path150" /><path
       d="M 16.483821,-37.640279 H 17.68091"
       style="fill:none;stroke:#b3b3b3;stroke-width:0.53;stroke-linecap:butt;stroke-linejoin:round;stroke-miterlimit:10;stroke-dasharray:none;stroke-opacity:1"
       id="path152" /><g
       id="g174"
       transform="matrix(0.4368938,0,0,0.4368938,2.9444823,-87.857119)"
       style="stroke-width:2.28889"><path
         d="m 48.53,29.17 v 2.74"
         style="fill:none;stroke:#b3b3b3;stroke-width:1.21311;stroke-linecap:butt;stroke-linejoin:round;stroke-miterlimit:10;stroke-dasharray:none;stroke-opacity:1"
         id="path176" /><path
         d="m 121.82,29.17 v 2.74"
         style="fill:none;stroke:#b3b3b3;stroke-width:1.21311;stroke-linecap:butt;stroke-linejoin:round;stroke-miterlimit:10;stroke-dasharray:none;stroke-opacity:1"
         id="path178" /><path
         d="m 195.1,29.17 v 2.74"
         style="fill:none;stroke:#b3b3b3;stroke-width:1.21311;stroke-linecap:butt;stroke-linejoin:round;stroke-miterlimit:10;stroke-dasharray:none;stroke-opacity:1"
         id="path180" /><path
         d="m 268.38,29.17 v 2.74"
         style="fill:none;stroke:#b3b3b3;stroke-width:1.21311;stroke-linecap:butt;stroke-linejoin:round;stroke-miterlimit:10;stroke-dasharray:none;stroke-opacity:1"
         id="path182" /><path
         d="m 341.67,29.17 v 2.74"
         style="fill:none;stroke:#b3b3b3;stroke-width:1.21311;stroke-linecap:butt;stroke-linejoin:round;stroke-miterlimit:10;stroke-dasharray:none;stroke-opacity:1"
         id="path184" /></g><text
       xml:space="preserve"
       style="font-size:8px;line-height:1.25;font-family:sans-serif;letter-spacing:0px;word-spacing:0px;stroke-width:0.75"
       x="8.1309156"
       y="40.609028"
       id="text6256-3-7"
       transform="scale(1,-1)"><tspan
         sodipodi:role="line"
         id="tspan6254-6-5"
         style="font-size:8px;stroke-width:0.75"
         x="8.1309156"
         y="40.609028">-2</tspan></text><text
       xml:space="preserve"
       style="font-size:8px;line-height:1.25;font-family:sans-serif;letter-spacing:0px;word-spacing:0px;stroke-width:0.75"
       x="11.017634"
       y="-31.491339"
       id="text6256-3-3"
       transform="scale(1,-1)"><tspan
         sodipodi:role="line"
         id="tspan6254-6-56"
         style="font-size:8px;stroke-width:0.75"
         x="11.017634"
         y="-31.491339">2</tspan></text><text
       xml:space="preserve"
       style="font-size:8px;line-height:1.25;font-family:sans-serif;letter-spacing:0px;word-spacing:0px;stroke-width:0.75"
       x="10.810603"
       y="4.5022044"
       id="text6256-3-2"
       transform="scale(1,-1)"><tspan
         sodipodi:role="line"
         id="tspan6254-6-9"
         style="font-size:8px;stroke-width:0.75"
         x="10.810603"
         y="4.5022044">0</tspan></text><text
       xml:space="preserve"
       style="font-size:8px;line-height:1.25;font-family:sans-serif;letter-spacing:0px;word-spacing:0px;stroke-width:0.75"
       x="21.60397"
       y="81.749352"
       id="text6256-3-2-7"
       transform="scale(1,-1)"><tspan
         sodipodi:role="line"
         id="tspan6254-6-9-0"
         style="font-size:8px;stroke-width:0.75"
         x="21.60397"
         y="81.749352">0</tspan></text><text
       xml:space="preserve"
       style="font-size:8px;line-height:1.25;font-family:sans-serif;letter-spacing:0px;word-spacing:0px;stroke-width:0.75"
       x="85.678558"
       y="81.749352"
       id="text6256-3-2-9"
       transform="scale(1,-1)"><tspan
         sodipodi:role="line"
         id="tspan6254-6-9-3"
         style="font-size:8px;stroke-width:0.75"
         x="85.678558"
         y="81.749352">5</tspan></text><text
       xml:space="preserve"
       style="font-size:8px;line-height:1.25;font-family:sans-serif;letter-spacing:0px;word-spacing:0px;stroke-width:0.75"
       x="146.95432"
       y="81.749352"
       id="text6256-3-2-6"
       transform="scale(1,-1)"><tspan
         sodipodi:role="line"
         id="tspan6254-6-9-06"
         style="font-size:8px;stroke-width:0.75"
         x="146.95432"
         y="81.749352">10</tspan></text><text
       xml:space="preserve"
       style="font-size:8px;line-height:1.25;font-family:sans-serif;letter-spacing:0px;word-spacing:0px;stroke-width:0.75"
       x="51.158451"
       y="90.738213"
       id="text6256-3-2-6-2"
       transform="scale(1,-1)"><tspan
         sodipodi:role="line"
         id="tspan6254-6-9-06-6"
         style="font-size:8px;stroke-width:0.75"
         x="51.158451"
         y="90.738213">Time (generations)</tspan></text><text
       xml:space="preserve"
       style="font-size:8px;line-height:1.25;font-family:sans-serif;letter-spacing:0px;word-spacing:0px;stroke-width:0.75"
       x="-48.113995"
       y="4.6292729"
       id="text6256-3-2-6-2-1"
       transform="matrix(0,1,1,0,0,0)"><tspan
         sodipodi:role="line"
         id="tspan6254-6-9-06-6-8"
         style="font-size:8px;stroke-width:0.75"
         x="-48.113995"
         y="4.6292729">Log2FC (to g=0)</tspan></text></g></svg>
