<svg class="main-svg" xmlns="http://www.w3.org/2000/svg" xmlns:xlink="http://www.w3.org/1999/xlink" width="2200" height="546" style="" viewBox="0 0 1100 273"><rect x="0" y="0" width="1100" height="273" style="fill: rgb(255, 255, 255); fill-opacity: 1;"/><defs id="defs-cdefc0"><g class="clips"><clipPath id="clipcdefc0xyplot" class="plotclip"><rect width="1005" height="42.230769230769226"/></clipPath><clipPath id="clipcdefc0x2y2plot" class="plotclip"><rect width="1005" height="42.230769230769226"/></clipPath><clipPath id="clipcdefc0x3y3plot" class="plotclip"><rect width="1005" height="42.230769230769226"/></clipPath><clipPath class="axesclip" id="clipcdefc0x"><rect x="80" y="0" width="1005" height="273"/></clipPath><clipPath class="axesclip" id="clipcdefc0y"><rect x="0" y="50.00000000000002" width="1100" height="42.230769230769226"/></clipPath><clipPath class="axesclip" id="clipcdefc0xy"><rect x="80" y="50.00000000000002" width="1005" height="42.230769230769226"/></clipPath><clipPath class="axesclip" id="clipcdefc0y2"><rect x="0" y="120.3846153846154" width="1100" height="42.230769230769226"/></clipPath><clipPath class="axesclip" id="clipcdefc0xy2"><rect x="80" y="120.3846153846154" width="1005" height="42.230769230769226"/></clipPath><clipPath class="axesclip" id="clipcdefc0y3"><rect x="0" y="190.76923076923077" width="1100" height="42.230769230769226"/></clipPath><clipPath class="axesclip" id="clipcdefc0xy3"><rect x="80" y="190.76923076923077" width="1005" height="42.230769230769226"/></clipPath><clipPath class="axesclip" id="clipcdefc0x2"><rect x="80" y="0" width="1005" height="273"/></clipPath><clipPath class="axesclip" id="clipcdefc0x2y"><rect x="80" y="50.00000000000002" width="1005" height="42.230769230769226"/></clipPath><clipPath class="axesclip" id="clipcdefc0x2y2"><rect x="80" y="120.3846153846154" width="1005" height="42.230769230769226"/></clipPath><clipPath class="axesclip" id="clipcdefc0x2y3"><rect x="80" y="190.76923076923077" width="1005" height="42.230769230769226"/></clipPath><clipPath class="axesclip" id="clipcdefc0x3"><rect x="80" y="0" width="1005" height="273"/></clipPath><clipPath class="axesclip" id="clipcdefc0x3y"><rect x="80" y="50.00000000000002" width="1005" height="42.230769230769226"/></clipPath><clipPath class="axesclip" id="clipcdefc0x3y2"><rect x="80" y="120.3846153846154" width="1005" height="42.230769230769226"/></clipPath><clipPath class="axesclip" id="clipcdefc0x3y3"><rect x="80" y="190.76923076923077" width="1005" height="42.230769230769226"/></clipPath></g><g class="gradients"/><g class="patterns"/></defs><g class="bglayer"/><g class="layer-below"><g class="imagelayer"/><g class="shapelayer"/></g><g class="cartesianlayer"><g class="subplot xy"><g class="layer-subplot"><g class="shapelayer"/><g class="imagelayer"/></g><g class="minor-gridlayer"><g class="x"/><g class="y"/></g><g class="gridlayer"><g class="x"><path class="xgrid crisp" transform="translate(219.44,0)" d="M0,50.00000000000002v42.230769230769226" style="stroke: rgb(0, 0, 0); stroke-opacity: 0.1; stroke-width: 1px;"/><path class="xgrid crisp" transform="translate(353.9,0)" d="M0,50.00000000000002v42.230769230769226" style="stroke: rgb(0, 0, 0); stroke-opacity: 0.1; stroke-width: 1px;"/><path class="xgrid crisp" transform="translate(488.36,0)" d="M0,50.00000000000002v42.230769230769226" style="stroke: rgb(0, 0, 0); stroke-opacity: 0.1; stroke-width: 1px;"/><path class="xgrid crisp" transform="translate(622.83,0)" d="M0,50.00000000000002v42.230769230769226" style="stroke: rgb(0, 0, 0); stroke-opacity: 0.1; stroke-width: 1px;"/><path class="xgrid crisp" transform="translate(757.29,0)" d="M0,50.00000000000002v42.230769230769226" style="stroke: rgb(0, 0, 0); stroke-opacity: 0.1; stroke-width: 1px;"/><path class="xgrid crisp" transform="translate(891.75,0)" d="M0,50.00000000000002v42.230769230769226" style="stroke: rgb(0, 0, 0); stroke-opacity: 0.1; stroke-width: 1px;"/><path class="xgrid crisp" transform="translate(1026.21,0)" d="M0,50.00000000000002v42.230769230769226" style="stroke: rgb(0, 0, 0); stroke-opacity: 0.1; stroke-width: 1px;"/></g><g class="y"><path class="ygrid crisp" transform="translate(0,71.12000000000002)" d="M80,0h1005" style="stroke: rgb(0, 0, 0); stroke-opacity: 0.1; stroke-width: 1px;"/></g></g><g class="zerolinelayer"><path class="xzl zl crisp" transform="translate(84.98,0)" d="M0,50.00000000000002v42.230769230769226" style="stroke: rgb(0, 0, 0); stroke-opacity: 0.1; stroke-width: 2px;"/></g><g class="layer-between"><g class="shapelayer"/><g class="imagelayer"/></g><path class="xlines-below"/><path class="ylines-below"/><g class="overlines-below"/><g class="xaxislayer-below"/><g class="yaxislayer-below"/><g class="overaxes-below"/><g class="overplot"><g class="xy" transform="translate(80,50.00000000000002)" clip-path="url(#clipcdefc0xyplot)"><g class="violinlayer mlayer"><g class="trace violins" style="opacity: 0.5;"><path class="violin" d="M61.47,20.44Q81.72,20.06 91.85,19.78C101.98,19.49 112.1,19.15 122.23,18.73C132.36,18.3 142.49,17.8 152.61,17.23C162.74,16.66 172.86,15.99 182.99,15.3C193.12,14.61 203.24,13.84 213.37,13.11C223.5,12.38 233.62,11.6 243.75,10.91C253.88,10.22 264,9.54 274.13,8.97C284.25,8.4 294.38,7.89 304.51,7.5C314.63,7.11 324.76,6.81 334.89,6.62C345.02,6.43 355.14,6.34 365.27,6.33C375.4,6.32 385.52,6.42 395.65,6.57C405.78,6.73 415.9,6.97 426.03,7.26C436.16,7.55 446.28,7.92 456.41,8.33C466.54,8.74 476.66,9.21 486.79,9.71C496.92,10.21 507.04,10.78 517.17,11.34C527.3,11.91 537.42,12.51 547.55,13.1C557.68,13.69 567.8,14.3 577.93,14.87C588.06,15.44 598.18,16 608.31,16.51C618.44,17.02 628.56,17.5 638.69,17.91C648.82,18.32 658.94,18.69 669.07,18.99C679.2,19.29 689.32,19.53 699.45,19.71C709.58,19.89 719.7,20.01 729.83,20.07C739.96,20.13 750.08,20.14 760.21,20.1C770.34,20.06 780.46,19.97 790.59,19.85C800.72,19.73 810.85,19.56 820.98,19.38C831.11,19.2 841.23,18.99 851.36,18.79C861.49,18.59 871.61,18.38 881.74,18.2C891.87,18.02 901.99,17.85 912.12,17.73C922.25,17.61 932.37,17.51 942.5,17.48C952.63,17.45 962.75,17.47 972.88,17.54C983.01,17.61 993.13,17.73 1003.26,17.88C1013.39,18.03 1023.51,18.23 1033.64,18.43C1043.77,18.63 1053.89,18.87 1064.02,19.08C1074.15,19.29 1084.27,19.52 1094.4,19.71C1104.53,19.9 1114.65,20.08 1124.78,20.23C1134.91,20.38 1145.03,20.51 1155.16,20.61Q1165.29,20.71 1185.54,20.85L1185.54,21.38Q1165.29,21.52 1155.16,21.62C1145.03,21.72 1134.91,21.85 1124.78,22C1114.65,22.15 1104.53,22.34 1094.4,22.53C1084.27,22.72 1074.15,22.94 1064.02,23.15C1053.89,23.36 1043.77,23.6 1033.64,23.8C1023.51,24 1013.39,24.21 1003.26,24.36C993.13,24.51 983.01,24.63 972.88,24.69C962.75,24.75 952.63,24.78 942.5,24.75C932.37,24.72 922.25,24.63 912.12,24.51C901.99,24.39 891.87,24.21 881.74,24.03C871.61,23.85 861.49,23.64 851.36,23.44C841.23,23.24 831.11,23.03 820.98,22.85C810.85,22.67 800.72,22.5 790.59,22.38C780.46,22.26 770.34,22.17 760.21,22.13C750.08,22.09 739.96,22.1 729.83,22.16C719.7,22.22 709.58,22.34 699.45,22.52C689.32,22.7 679.2,22.94 669.07,23.24C658.94,23.54 648.82,23.91 638.69,24.32C628.56,24.73 618.44,25.21 608.31,25.72C598.18,26.23 588.06,26.79 577.93,27.36C567.8,27.93 557.68,28.54 547.55,29.13C537.42,29.72 527.3,30.32 517.17,30.89C507.04,31.45 496.92,32.02 486.79,32.52C476.66,33.02 466.54,33.49 456.41,33.9C446.28,34.31 436.16,34.68 426.03,34.97C415.9,35.26 405.78,35.5 395.65,35.66C385.52,35.81 375.4,35.91 365.27,35.9C355.14,35.89 345.02,35.8 334.89,35.61C324.76,35.42 314.63,35.12 304.51,34.73C294.38,34.34 284.25,33.83 274.13,33.26C264,32.69 253.88,32.01 243.75,31.32C233.62,30.63 223.5,29.85 213.37,29.12C203.24,28.39 193.12,27.62 182.99,26.93C172.86,26.24 162.74,25.57 152.61,25C142.49,24.43 132.36,23.93 122.23,23.5C112.1,23.08 101.98,22.73 91.85,22.45Q81.72,22.17 61.47,21.8Z" style="vector-effect: none; stroke-width: 2px; stroke: rgb(181, 181, 181); stroke-opacity: 1; fill: rgb(181, 181, 181); fill-opacity: 1;"/><path class="box" d="M401.64,24.81V17.42M300.79,24.81V17.42H515.93V24.81ZM300.79,21.12H247.01M515.93,21.12H583.17" style="vector-effect: non-scaling-stroke; stroke-width: 2px; stroke: rgb(181, 181, 181); stroke-opacity: 1; fill: rgb(181, 181, 181); fill-opacity: 1;"/><path class="mean" d="M470.22,24.81V17.42" style="fill: none; vector-effect: non-scaling-stroke; stroke-width: 2px; stroke-dasharray: 4px, 2px; stroke: rgb(181, 181, 181); stroke-opacity: 1;"/></g></g><g class="scatterlayer mlayer"><g class="trace scatter tracef7609f" style="stroke-miterlimit: 2; opacity: 1;"><g class="fills"/><g class="errorbars"/><g class="lines"/><g class="points"><path class="point" transform="translate(1000,21.12)" d="M2,0A2,2 0 1,1 0,-2A2,2 0 0,1 2,0Z" style="opacity: 1; stroke-width: 0px; fill: rgb(11, 121, 230); fill-opacity: 1;"/></g><g class="text"/></g><g class="trace scatter trace56e3ba" style="stroke-miterlimit: 2; opacity: 1;"><g class="fills"/><g class="errorbars"/><g class="lines"/><g class="points"><path class="point" transform="translate(959.66,21.12)" d="M2,0A2,2 0 1,1 0,-2A2,2 0 0,1 2,0Z" style="opacity: 1; stroke-width: 0px; fill: rgb(11, 121, 230); fill-opacity: 1;"/></g><g class="text"/></g><g class="trace scatter traceaeeb71" style="stroke-miterlimit: 2; opacity: 1;"><g class="fills"/><g class="errorbars"/><g class="lines"/><g class="points"><path class="point" transform="translate(892.43,21.12)" d="M2,0A2,2 0 1,1 0,-2A2,2 0 0,1 2,0Z" style="opacity: 1; stroke-width: 0px; fill: rgb(11, 121, 230); fill-opacity: 1;"/></g><g class="text"/></g><g class="trace scatter trace285eae" style="stroke-miterlimit: 2; opacity: 1;"><g class="fills"/><g class="errorbars"/><g class="lines"/><g class="points"><path class="point" transform="translate(583.17,21.12)" d="M2,0A2,2 0 1,1 0,-2A2,2 0 0,1 2,0Z" style="opacity: 1; stroke-width: 0px; fill: rgb(11, 121, 230); fill-opacity: 1;"/></g><g class="text"/></g><g class="trace scatter trace65ab05" style="stroke-miterlimit: 2; opacity: 1;"><g class="fills"/><g class="errorbars"/><g class="lines"/><g class="points"><path class="point" transform="translate(529.38,21.12)" d="M2,0A2,2 0 1,1 0,-2A2,2 0 0,1 2,0Z" style="opacity: 1; stroke-width: 0px; fill: rgb(11, 121, 230); fill-opacity: 1;"/></g><g class="text"/></g><g class="trace scatter trace9fab36" style="stroke-miterlimit: 2; opacity: 1;"><g class="fills"/><g class="errorbars"/><g class="lines"/><g class="points"><path class="point" transform="translate(502.49,21.12)" d="M2,0A2,2 0 1,1 0,-2A2,2 0 0,1 2,0Z" style="opacity: 1; stroke-width: 0px; fill: rgb(11, 121, 230); fill-opacity: 1;"/></g><g class="text"/></g><g class="trace scatter trace3c62b9" style="stroke-miterlimit: 2; opacity: 1;"><g class="fills"/><g class="errorbars"/><g class="lines"/><g class="points"><path class="point" transform="translate(489.04,21.12)" d="M2,0A2,2 0 1,1 0,-2A2,2 0 0,1 2,0Z" style="opacity: 1; stroke-width: 0px; fill: rgb(11, 121, 230); fill-opacity: 1;"/></g><g class="text"/></g><g class="trace scatter trace7a8201" style="stroke-miterlimit: 2; opacity: 1;"><g class="fills"/><g class="errorbars"/><g class="lines"/><g class="points"><path class="point" transform="translate(462.15,21.12)" d="M2,0A2,2 0 1,1 0,-2A2,2 0 0,1 2,0Z" style="opacity: 1; stroke-width: 0px; fill: rgb(11, 121, 230); fill-opacity: 1;"/></g><g class="text"/></g><g class="trace scatter tracef89b7e" style="stroke-miterlimit: 2; opacity: 1;"><g class="fills"/><g class="errorbars"/><g class="lines"/><g class="points"><path class="point" transform="translate(435.26,21.12)" d="M2,0A2,2 0 1,1 0,-2A2,2 0 0,1 2,0Z" style="opacity: 1; stroke-width: 0px; fill: rgb(11, 121, 230); fill-opacity: 1;"/></g><g class="text"/></g><g class="trace scatter tracead9458" style="stroke-miterlimit: 2; opacity: 1;"><g class="fills"/><g class="errorbars"/><g class="lines"/><g class="points"><path class="point" transform="translate(408.36,21.12)" d="M2,0A2,2 0 1,1 0,-2A2,2 0 0,1 2,0Z" style="opacity: 1; stroke-width: 0px; fill: rgb(11, 121, 230); fill-opacity: 1;"/></g><g class="text"/></g><g class="trace scatter trace30d747" style="stroke-miterlimit: 2; opacity: 1;"><g class="fills"/><g class="errorbars"/><g class="lines"/><g class="points"><path class="point" transform="translate(394.92,21.12)" d="M2,0A2,2 0 1,1 0,-2A2,2 0 0,1 2,0Z" style="opacity: 1; stroke-width: 0px; fill: rgb(11, 121, 230); fill-opacity: 1;"/></g><g class="text"/></g><g class="trace scatter trace878520" style="stroke-miterlimit: 2; opacity: 1;"><g class="fills"/><g class="errorbars"/><g class="lines"/><g class="points"><path class="point" transform="translate(394.92,21.12)" d="M2,0A2,2 0 1,1 0,-2A2,2 0 0,1 2,0Z" style="opacity: 1; stroke-width: 0px; fill: rgb(11, 121, 230); fill-opacity: 1;"/></g><g class="text"/></g><g class="trace scatter tracee7438e" style="stroke-miterlimit: 2; opacity: 1;"><g class="fills"/><g class="errorbars"/><g class="lines"/><g class="points"><path class="point" transform="translate(354.58,21.12)" d="M2,0A2,2 0 1,1 0,-2A2,2 0 0,1 2,0Z" style="opacity: 1; stroke-width: 0px; fill: rgb(11, 121, 230); fill-opacity: 1;"/></g><g class="text"/></g><g class="trace scatter trace8b83ba" style="stroke-miterlimit: 2; opacity: 1;"><g class="fills"/><g class="errorbars"/><g class="lines"/><g class="points"><path class="point" transform="translate(341.13,21.12)" d="M2,0A2,2 0 1,1 0,-2A2,2 0 0,1 2,0Z" style="opacity: 1; stroke-width: 0px; fill: rgb(11, 121, 230); fill-opacity: 1;"/></g><g class="text"/></g><g class="trace scatter trace177fff" style="stroke-miterlimit: 2; opacity: 1;"><g class="fills"/><g class="errorbars"/><g class="lines"/><g class="points"><path class="point" transform="translate(300.79,21.12)" d="M2,0A2,2 0 1,1 0,-2A2,2 0 0,1 2,0Z" style="opacity: 1; stroke-width: 0px; fill: rgb(11, 121, 230); fill-opacity: 1;"/></g><g class="text"/></g><g class="trace scatter trace1798fb" style="stroke-miterlimit: 2; opacity: 1;"><g class="fills"/><g class="errorbars"/><g class="lines"/><g class="points"><path class="point" transform="translate(300.79,21.12)" d="M2,0A2,2 0 1,1 0,-2A2,2 0 0,1 2,0Z" style="opacity: 1; stroke-width: 0px; fill: rgb(11, 121, 230); fill-opacity: 1;"/></g><g class="text"/></g><g class="trace scatter trace063c96" style="stroke-miterlimit: 2; opacity: 1;"><g class="fills"/><g class="errorbars"/><g class="lines"/><g class="points"><path class="point" transform="translate(300.79,21.12)" d="M2,0A2,2 0 1,1 0,-2A2,2 0 0,1 2,0Z" style="opacity: 1; stroke-width: 0px; fill: rgb(11, 121, 230); fill-opacity: 1;"/></g><g class="text"/></g><g class="trace scatter tracee36847" style="stroke-miterlimit: 2; opacity: 1;"><g class="fills"/><g class="errorbars"/><g class="lines"/><g class="points"><path class="point" transform="translate(260.45,21.12)" d="M2,0A2,2 0 1,1 0,-2A2,2 0 0,1 2,0Z" style="opacity: 1; stroke-width: 0px; fill: rgb(11, 121, 230); fill-opacity: 1;"/></g><g class="text"/></g><g class="trace scatter traceabf5b0" style="stroke-miterlimit: 2; opacity: 1;"><g class="fills"/><g class="errorbars"/><g class="lines"/><g class="points"><path class="point" transform="translate(247.01,21.12)" d="M2,0A2,2 0 1,1 0,-2A2,2 0 0,1 2,0Z" style="opacity: 1; stroke-width: 0px; fill: rgb(11, 121, 230); fill-opacity: 1;"/></g><g class="text"/></g><g class="trace scatter trace543fae" style="stroke-miterlimit: 2; opacity: 1;"><g class="fills"/><g class="errorbars"/><g class="lines"/><g class="points"><path class="point" transform="translate(247.01,21.12)" d="M2,0A2,2 0 1,1 0,-2A2,2 0 0,1 2,0Z" style="opacity: 1; stroke-width: 0px; fill: rgb(11, 121, 230); fill-opacity: 1;"/></g><g class="text"/></g></g></g></g><path class="xlines-above crisp" d="M0,0" style="fill: none;"/><path class="ylines-above crisp" d="M0,0" style="fill: none;"/><g class="overlines-above"/><g class="xaxislayer-above"><g class="xtick"><text text-anchor="middle" x="0" y="102.23076923076925" transform="translate(84.98,0)" style="font-family: 'Lucida Grande', 'Open Sans', verdana, arial, sans-serif; font-size: 9px; fill: rgb(0, 0, 0); fill-opacity: 0.5; white-space: pre; opacity: 1;">0</text></g><g class="xtick"><text text-anchor="middle" x="0" y="102.23076923076925" style="font-family: 'Lucida Grande', 'Open Sans', verdana, arial, sans-serif; font-size: 9px; fill: rgb(0, 0, 0); fill-opacity: 0.5; white-space: pre; opacity: 1;" transform="translate(219.44,0)">10</text></g><g class="xtick"><text text-anchor="middle" x="0" y="102.23076923076925" style="font-family: 'Lucida Grande', 'Open Sans', verdana, arial, sans-serif; font-size: 9px; fill: rgb(0, 0, 0); fill-opacity: 0.5; white-space: pre; opacity: 1;" transform="translate(353.9,0)">20</text></g><g class="xtick"><text text-anchor="middle" x="0" y="102.23076923076925" style="font-family: 'Lucida Grande', 'Open Sans', verdana, arial, sans-serif; font-size: 9px; fill: rgb(0, 0, 0); fill-opacity: 0.5; white-space: pre; opacity: 1;" transform="translate(488.36,0)">30</text></g><g class="xtick"><text text-anchor="middle" x="0" y="102.23076923076925" style="font-family: 'Lucida Grande', 'Open Sans', verdana, arial, sans-serif; font-size: 9px; fill: rgb(0, 0, 0); fill-opacity: 0.5; white-space: pre; opacity: 1;" transform="translate(622.83,0)">40</text></g><g class="xtick"><text text-anchor="middle" x="0" y="102.23076923076925" style="font-family: 'Lucida Grande', 'Open Sans', verdana, arial, sans-serif; font-size: 9px; fill: rgb(0, 0, 0); fill-opacity: 0.5; white-space: pre; opacity: 1;" transform="translate(757.29,0)">50</text></g><g class="xtick"><text text-anchor="middle" x="0" y="102.23076923076925" style="font-family: 'Lucida Grande', 'Open Sans', verdana, arial, sans-serif; font-size: 9px; fill: rgb(0, 0, 0); fill-opacity: 0.5; white-space: pre; opacity: 1;" transform="translate(891.75,0)">60</text></g><g class="xtick"><text text-anchor="middle" x="0" y="102.23076923076925" style="font-family: 'Lucida Grande', 'Open Sans', verdana, arial, sans-serif; font-size: 9px; fill: rgb(0, 0, 0); fill-opacity: 0.5; white-space: pre; opacity: 1;" transform="translate(1026.21,0)">70</text></g></g><g class="yaxislayer-above"><g class="ytick"><text text-anchor="end" x="79" y="3.15" transform="translate(0,71.12000000000002)" style="font-family: 'Lucida Grande', 'Open Sans', verdana, arial, sans-serif; font-size: 9px; fill: rgb(0, 0, 0); fill-opacity: 0.5; white-space: pre; opacity: 1;">Reports  </text></g></g><g class="overaxes-above"/></g><g class="subplot x2y2"><g class="layer-subplot"><g class="shapelayer"/><g class="imagelayer"/></g><g class="minor-gridlayer"><g class="x2"/><g class="y2"/></g><g class="gridlayer"><g class="x2"><path class="x2grid crisp" transform="translate(220.31,0)" d="M0,120.3846153846154v42.230769230769226" style="stroke: rgb(0, 0, 0); stroke-opacity: 0.1; stroke-width: 1px;"/><path class="x2grid crisp" transform="translate(355.64,0)" d="M0,120.3846153846154v42.230769230769226" style="stroke: rgb(0, 0, 0); stroke-opacity: 0.1; stroke-width: 1px;"/><path class="x2grid crisp" transform="translate(490.97,0)" d="M0,120.3846153846154v42.230769230769226" style="stroke: rgb(0, 0, 0); stroke-opacity: 0.1; stroke-width: 1px;"/><path class="x2grid crisp" transform="translate(626.3,0)" d="M0,120.3846153846154v42.230769230769226" style="stroke: rgb(0, 0, 0); stroke-opacity: 0.1; stroke-width: 1px;"/><path class="x2grid crisp" transform="translate(761.63,0)" d="M0,120.3846153846154v42.230769230769226" style="stroke: rgb(0, 0, 0); stroke-opacity: 0.1; stroke-width: 1px;"/><path class="x2grid crisp" transform="translate(896.96,0)" d="M0,120.3846153846154v42.230769230769226" style="stroke: rgb(0, 0, 0); stroke-opacity: 0.1; stroke-width: 1px;"/><path class="x2grid crisp" transform="translate(1032.29,0)" d="M0,120.3846153846154v42.230769230769226" style="stroke: rgb(0, 0, 0); stroke-opacity: 0.1; stroke-width: 1px;"/></g><g class="y2"><path class="y2grid crisp" transform="translate(0,141.5046153846154)" d="M80,0h1005" style="stroke: rgb(0, 0, 0); stroke-opacity: 0.1; stroke-width: 1px;"/></g></g><g class="zerolinelayer"><path class="x2zl zl crisp" transform="translate(84.98,0)" d="M0,120.3846153846154v42.230769230769226" style="stroke: rgb(0, 0, 0); stroke-opacity: 0.1; stroke-width: 2px;"/></g><g class="layer-between"><g class="shapelayer"/><g class="imagelayer"/></g><path class="xlines-below"/><path class="ylines-below"/><g class="overlines-below"/><g class="xaxislayer-below"/><g class="yaxislayer-below"/><g class="overaxes-below"/><g class="overplot"><g class="x2y2" transform="translate(80,120.3846153846154)" clip-path="url(#clipcdefc0x2y2plot)"><g class="violinlayer mlayer"><g class="trace violins" style="opacity: 0.5;"><path class="violin" d="M-27.21,20.71Q-22.65,20.46 -20.37,20.24C-18.08,20.02 -15.8,19.77 -13.52,19.41C-11.23,19.05 -8.94,18.62 -6.67,18.08C-4.38,17.54 -2.09,16.89 0.18,16.17C2.48,15.45 4.75,14.6 7.03,13.76C9.32,12.92 11.59,11.97 13.88,11.13C16.16,10.29 18.42,9.41 20.72,8.72C22.99,8.04 25.27,7.4 27.57,7C29.84,6.61 32.14,6.37 34.42,6.33C36.7,6.29 39,6.48 41.27,6.77C43.56,7.06 45.84,7.57 48.12,8.07C50.41,8.58 52.69,9.22 54.97,9.81C57.25,10.4 59.53,11.04 61.81,11.6C64.09,12.16 66.37,12.71 68.66,13.19C70.94,13.67 73.22,14.09 75.51,14.5C77.79,14.9 80.08,15.27 82.36,15.62C84.64,15.97 86.93,16.29 89.21,16.61C91.49,16.92 93.78,17.23 96.06,17.51C98.34,17.79 100.62,18.06 102.9,18.29C105.18,18.52 107.47,18.72 109.75,18.88C112.03,19.04 114.32,19.17 116.6,19.27C118.88,19.37 121.17,19.43 123.45,19.48C125.73,19.53 128.02,19.55 130.3,19.58C132.58,19.61 134.86,19.62 137.14,19.64C139.42,19.66 141.71,19.67 143.99,19.69C146.27,19.71 148.56,19.73 150.84,19.74C153.12,19.75 155.41,19.76 157.69,19.76C159.97,19.76 162.26,19.75 164.54,19.75C166.82,19.75 169.11,19.74 171.39,19.75C173.67,19.76 175.95,19.77 178.23,19.8C180.51,19.83 182.8,19.87 185.08,19.93C187.36,19.99 189.65,20.06 191.93,20.14C194.21,20.22 196.5,20.31 198.78,20.39C201.06,20.47 203.35,20.55 205.63,20.62C207.91,20.69 210.2,20.76 212.48,20.82C214.76,20.87 217.04,20.91 219.32,20.95C221.6,20.99 223.89,21.02 226.17,21.04C228.45,21.06 230.74,21.07 233.02,21.08C235.3,21.09 237.59,21.09 239.87,21.1C242.15,21.1 244.44,21.11 246.72,21.11C249,21.11 251.29,21.11 253.57,21.11C255.85,21.11 258.13,21.11 260.41,21.11C262.69,21.11 264.98,21.12 267.26,21.12C269.54,21.12 271.83,21.12 274.11,21.12C276.39,21.12 278.68,21.12 280.96,21.12C283.24,21.12 285.53,21.12 287.81,21.12C290.09,21.12 292.38,21.12 294.66,21.12C296.94,21.12 299.22,21.12 301.5,21.12C303.78,21.12 306.07,21.12 308.35,21.12C310.63,21.12 312.92,21.12 315.2,21.12C317.48,21.12 319.77,21.12 322.05,21.12C324.33,21.12 326.62,21.12 328.9,21.12C331.18,21.12 333.46,21.12 335.74,21.12C338.02,21.12 340.31,21.12 342.59,21.12C344.87,21.12 347.16,21.12 349.44,21.12C351.72,21.12 354.01,21.12 356.29,21.12C358.57,21.12 360.86,21.12 363.14,21.12C365.42,21.12 367.71,21.12 369.99,21.12C372.27,21.12 374.55,21.12 376.83,21.12C379.11,21.12 381.4,21.12 383.68,21.12C385.96,21.12 388.25,21.12 390.53,21.12C392.81,21.12 395.1,21.12 397.38,21.12C399.66,21.12 401.95,21.12 404.23,21.12C406.51,21.12 408.8,21.12 411.08,21.12C413.36,21.12 415.64,21.12 417.92,21.12C420.2,21.12 422.49,21.12 424.77,21.12C427.05,21.12 429.34,21.12 431.62,21.12C433.9,21.12 436.19,21.12 438.47,21.12C440.75,21.12 443.04,21.12 445.32,21.12C447.6,21.12 449.89,21.12 452.17,21.12C454.45,21.12 456.73,21.12 459.01,21.12C461.29,21.12 463.58,21.12 465.86,21.12C468.14,21.12 470.43,21.12 472.71,21.12C474.99,21.12 477.28,21.12 479.56,21.12C481.84,21.12 484.13,21.12 486.41,21.12C488.69,21.12 490.98,21.12 493.26,21.12C495.54,21.12 497.82,21.12 500.1,21.12C502.38,21.12 504.67,21.12 506.95,21.12C509.23,21.12 511.52,21.12 513.8,21.12C516.08,21.12 518.37,21.12 520.65,21.12C522.93,21.12 525.22,21.12 527.5,21.12C529.78,21.12 532.07,21.12 534.35,21.12C536.63,21.12 538.91,21.12 541.19,21.12C543.47,21.12 545.76,21.12 548.04,21.12C550.32,21.12 552.61,21.12 554.89,21.12C557.17,21.12 559.46,21.12 561.74,21.12C564.02,21.12 566.31,21.12 568.59,21.12C570.87,21.12 573.15,21.12 575.43,21.12C577.71,21.12 580,21.12 582.28,21.12C584.56,21.12 586.85,21.12 589.13,21.12C591.41,21.12 593.7,21.12 595.98,21.12C598.26,21.12 600.55,21.12 602.83,21.12C605.11,21.12 607.4,21.12 609.68,21.12C611.96,21.12 614.24,21.12 616.52,21.12C618.8,21.12 621.09,21.12 623.37,21.12C625.65,21.12 627.94,21.12 630.22,21.12C632.5,21.12 634.79,21.12 637.07,21.12C639.35,21.12 641.64,21.12 643.92,21.12C646.2,21.12 648.49,21.12 650.77,21.12C653.05,21.12 655.33,21.12 657.61,21.12C659.89,21.12 662.18,21.12 664.46,21.12C666.74,21.12 669.03,21.12 671.31,21.12C673.59,21.12 675.88,21.12 678.16,21.12C680.44,21.12 682.73,21.12 685.01,21.12C687.29,21.12 689.58,21.12 691.86,21.12C694.14,21.12 696.42,21.12 698.7,21.12C700.98,21.12 703.27,21.12 705.55,21.12C707.83,21.12 710.12,21.12 712.4,21.12C714.68,21.12 716.97,21.12 719.25,21.12C721.53,21.12 723.82,21.12 726.1,21.12C728.38,21.12 730.67,21.12 732.95,21.12C735.23,21.12 737.51,21.12 739.79,21.12C742.07,21.12 744.36,21.12 746.64,21.12C748.92,21.12 751.21,21.12 753.49,21.12C755.77,21.12 758.06,21.12 760.34,21.12C762.62,21.12 764.91,21.12 767.19,21.12C769.47,21.12 771.76,21.12 774.04,21.12C776.32,21.12 778.6,21.12 780.88,21.12C783.16,21.12 785.45,21.12 787.73,21.12C790.01,21.12 792.3,21.12 794.58,21.12C796.86,21.12 799.15,21.12 801.43,21.12C803.71,21.12 806,21.12 808.28,21.12C810.56,21.12 812.84,21.12 815.12,21.12C817.4,21.12 819.69,21.12 821.97,21.12C824.25,21.12 826.54,21.12 828.82,21.12C831.1,21.12 833.39,21.12 835.67,21.12C837.95,21.12 840.24,21.12 842.52,21.12C844.8,21.12 847.09,21.12 849.37,21.12C851.65,21.12 853.93,21.12 856.21,21.12C858.49,21.12 860.78,21.12 863.06,21.12C865.34,21.12 867.63,21.12 869.91,21.12C872.19,21.12 874.48,21.12 876.76,21.12C879.04,21.12 881.33,21.12 883.61,21.12C885.89,21.12 888.18,21.12 890.46,21.12C892.74,21.12 895.02,21.12 897.3,21.12C899.58,21.12 901.87,21.12 904.15,21.12C906.43,21.12 908.72,21.12 911,21.12C913.28,21.12 915.57,21.11 917.85,21.11C920.13,21.11 922.42,21.11 924.7,21.11C926.98,21.11 929.27,21.11 931.55,21.11C933.83,21.11 936.11,21.1 938.39,21.1C940.67,21.09 942.96,21.09 945.24,21.08C947.52,21.07 949.81,21.06 952.09,21.04C954.37,21.02 956.66,20.99 958.94,20.95C961.22,20.91 963.51,20.87 965.79,20.82C968.07,20.77 970.36,20.7 972.64,20.63C974.92,20.56 977.2,20.47 979.48,20.39C981.76,20.31 984.05,20.23 986.33,20.16C988.61,20.09 990.9,20.03 993.18,19.99C995.46,19.95 997.75,19.93 1000.03,19.93C1002.31,19.93 1004.6,19.95 1006.88,19.99C1009.16,20.03 1011.45,20.09 1013.73,20.16C1016.01,20.23 1018.29,20.31 1020.57,20.39C1022.85,20.47 1025.14,20.56 1027.42,20.63C1029.7,20.7 1031.99,20.77 1034.27,20.82Q1036.55,20.87 1041.12,20.95L1041.12,21.28Q1036.55,21.36 1034.27,21.41C1031.99,21.46 1029.7,21.53 1027.42,21.6C1025.14,21.67 1022.85,21.76 1020.57,21.84C1018.29,21.92 1016.01,22 1013.73,22.07C1011.45,22.14 1009.16,22.2 1006.88,22.24C1004.6,22.28 1002.31,22.3 1000.03,22.3C997.75,22.3 995.46,22.28 993.18,22.24C990.9,22.2 988.61,22.14 986.33,22.07C984.05,22 981.76,21.92 979.48,21.84C977.2,21.76 974.92,21.68 972.64,21.61C970.36,21.54 968.07,21.47 965.79,21.41C963.51,21.36 961.22,21.32 958.94,21.28C956.66,21.24 954.37,21.21 952.09,21.19C949.81,21.17 947.52,21.16 945.24,21.15C942.96,21.14 940.67,21.14 938.39,21.13C936.11,21.13 933.83,21.12 931.55,21.12C929.27,21.12 926.98,21.12 924.7,21.12C922.42,21.12 920.13,21.12 917.85,21.12C915.57,21.12 913.28,21.12 911,21.12C908.72,21.12 906.43,21.12 904.15,21.12C901.87,21.12 899.58,21.12 897.3,21.12C895.02,21.12 892.74,21.12 890.46,21.12C888.18,21.12 885.89,21.12 883.61,21.12C881.33,21.12 879.04,21.12 876.76,21.12C874.48,21.12 872.19,21.12 869.91,21.12C867.63,21.12 865.34,21.12 863.06,21.12C860.78,21.12 858.49,21.12 856.21,21.12C853.93,21.12 851.65,21.12 849.37,21.12C847.09,21.12 844.8,21.12 842.52,21.12C840.24,21.12 837.95,21.12 835.67,21.12C833.39,21.12 831.1,21.12 828.82,21.12C826.54,21.12 824.25,21.12 821.97,21.12C819.69,21.12 817.4,21.12 815.12,21.12C812.84,21.12 810.56,21.12 808.28,21.12C806,21.12 803.71,21.12 801.43,21.12C799.15,21.12 796.86,21.12 794.58,21.12C792.3,21.12 790.01,21.12 787.73,21.12C785.45,21.12 783.16,21.12 780.88,21.12C778.6,21.12 776.32,21.12 774.04,21.12C771.76,21.12 769.47,21.12 767.19,21.12C764.91,21.12 762.62,21.12 760.34,21.12C758.06,21.12 755.77,21.12 753.49,21.12C751.21,21.12 748.92,21.12 746.64,21.12C744.36,21.12 742.07,21.12 739.79,21.12C737.51,21.12 735.23,21.12 732.95,21.12C730.67,21.12 728.38,21.12 726.1,21.12C723.82,21.12 721.53,21.12 719.25,21.12C716.97,21.12 714.68,21.12 712.4,21.12C710.12,21.12 707.83,21.12 705.55,21.12C703.27,21.12 700.98,21.12 698.7,21.12C696.42,21.12 694.14,21.12 691.86,21.12C689.58,21.12 687.29,21.12 685.01,21.12C682.73,21.12 680.44,21.12 678.16,21.12C675.88,21.12 673.59,21.12 671.31,21.12C669.03,21.12 666.74,21.12 664.46,21.12C662.18,21.12 659.89,21.12 657.61,21.12C655.33,21.12 653.05,21.12 650.77,21.12C648.49,21.12 646.2,21.12 643.92,21.12C641.64,21.12 639.35,21.12 637.07,21.12C634.79,21.12 632.5,21.12 630.22,21.12C627.94,21.12 625.65,21.12 623.37,21.12C621.09,21.12 618.8,21.12 616.52,21.12C614.24,21.12 611.96,21.12 609.68,21.12C607.4,21.12 605.11,21.12 602.83,21.12C600.55,21.12 598.26,21.12 595.98,21.12C593.7,21.12 591.41,21.12 589.13,21.12C586.85,21.12 584.56,21.12 582.28,21.12C580,21.12 577.71,21.12 575.43,21.12C573.15,21.12 570.87,21.12 568.59,21.12C566.31,21.12 564.02,21.12 561.74,21.12C559.46,21.12 557.17,21.12 554.89,21.12C552.61,21.12 550.32,21.12 548.04,21.12C545.76,21.12 543.47,21.12 541.19,21.12C538.91,21.12 536.63,21.12 534.35,21.12C532.07,21.12 529.78,21.12 527.5,21.12C525.22,21.12 522.93,21.12 520.65,21.12C518.37,21.12 516.08,21.12 513.8,21.12C511.52,21.12 509.23,21.12 506.95,21.12C504.67,21.12 502.38,21.12 500.1,21.12C497.82,21.12 495.54,21.12 493.26,21.12C490.98,21.12 488.69,21.12 486.41,21.12C484.13,21.12 481.84,21.12 479.56,21.12C477.28,21.12 474.99,21.12 472.71,21.12C470.43,21.12 468.14,21.12 465.86,21.12C463.58,21.12 461.29,21.12 459.01,21.12C456.73,21.12 454.45,21.12 452.17,21.12C449.89,21.12 447.6,21.12 445.32,21.12C443.04,21.12 440.75,21.12 438.47,21.12C436.19,21.12 433.9,21.12 431.62,21.12C429.34,21.12 427.05,21.12 424.77,21.12C422.49,21.12 420.2,21.12 417.92,21.12C415.64,21.12 413.36,21.12 411.08,21.12C408.8,21.12 406.51,21.12 404.23,21.12C401.95,21.12 399.66,21.12 397.38,21.12C395.1,21.12 392.81,21.12 390.53,21.12C388.25,21.12 385.96,21.12 383.68,21.12C381.4,21.12 379.11,21.12 376.83,21.12C374.55,21.12 372.27,21.12 369.99,21.12C367.71,21.12 365.42,21.12 363.14,21.12C360.86,21.12 358.57,21.12 356.29,21.12C354.01,21.12 351.72,21.12 349.44,21.12C347.16,21.12 344.87,21.12 342.59,21.12C340.31,21.12 338.02,21.12 335.74,21.12C333.46,21.12 331.18,21.12 328.9,21.12C326.62,21.12 324.33,21.12 322.05,21.12C319.77,21.12 317.48,21.12 315.2,21.12C312.92,21.12 310.63,21.12 308.35,21.12C306.07,21.12 303.78,21.12 301.5,21.12C299.22,21.12 296.94,21.12 294.66,21.12C292.38,21.12 290.09,21.12 287.81,21.12C285.53,21.12 283.24,21.12 280.96,21.12C278.68,21.12 276.39,21.12 274.11,21.12C271.83,21.12 269.54,21.12 267.26,21.12C264.98,21.12 262.69,21.12 260.41,21.12C258.13,21.12 255.85,21.12 253.57,21.12C251.29,21.12 249,21.12 246.72,21.12C244.44,21.12 242.15,21.13 239.87,21.13C237.59,21.14 235.3,21.14 233.02,21.15C230.74,21.16 228.45,21.17 226.17,21.19C223.89,21.21 221.6,21.24 219.32,21.28C217.04,21.32 214.76,21.36 212.48,21.41C210.2,21.47 207.91,21.54 205.63,21.61C203.35,21.68 201.06,21.77 198.78,21.85C196.5,21.93 194.21,22.01 191.93,22.09C189.65,22.16 187.36,22.24 185.08,22.3C182.8,22.36 180.51,22.4 178.23,22.43C175.95,22.46 173.67,22.47 171.39,22.48C169.11,22.49 166.82,22.48 164.54,22.48C162.26,22.48 159.97,22.47 157.69,22.47C155.41,22.47 153.12,22.48 150.84,22.49C148.56,22.5 146.27,22.52 143.99,22.54C141.71,22.56 139.42,22.57 137.14,22.59C134.86,22.61 132.58,22.62 130.3,22.65C128.02,22.68 125.73,22.7 123.45,22.75C121.17,22.8 118.88,22.86 116.6,22.96C114.32,23.06 112.03,23.19 109.75,23.35C107.47,23.52 105.18,23.72 102.9,23.95C100.62,24.18 98.34,24.44 96.06,24.72C93.78,25 91.49,25.3 89.21,25.62C86.93,25.94 84.64,26.27 82.36,26.62C80.08,26.97 77.79,27.33 75.51,27.73C73.22,28.14 70.94,28.57 68.66,29.05C66.37,29.53 64.09,30.07 61.81,30.63C59.53,31.19 57.25,31.83 54.97,32.42C52.69,33.01 50.41,33.66 48.12,34.17C45.84,34.67 43.56,35.17 41.27,35.46C39,35.75 36.7,35.94 34.42,35.9C32.14,35.86 29.84,35.62 27.57,35.23C25.27,34.83 22.99,34.19 20.72,33.51C18.42,32.82 16.16,31.94 13.88,31.1C11.59,30.26 9.32,29.31 7.03,28.47C4.75,27.63 2.48,26.78 0.18,26.06C-2.09,25.34 -4.38,24.69 -6.67,24.15C-8.94,23.61 -11.23,23.18 -13.52,22.82C-15.8,22.46 -18.08,22.21 -20.37,21.99Q-22.65,21.77 -27.21,21.52Z" style="vector-effect: none; stroke-width: 2px; stroke: rgb(181, 181, 181); stroke-opacity: 1; fill: rgb(181, 181, 181); fill-opacity: 1;"/><path class="box" d="M37.8,24.81V17.42M31.06,24.81V17.42H78.74V24.81ZM31.06,21.12H13.9M78.74,21.12H134.46" style="vector-effect: non-scaling-stroke; stroke-width: 2px; stroke: rgb(181, 181, 181); stroke-opacity: 1; fill: rgb(181, 181, 181); fill-opacity: 1;"/><path class="mean" d="M102.5,24.81V17.42" style="fill: none; vector-effect: non-scaling-stroke; stroke-width: 2px; stroke-dasharray: 4px, 2px; stroke: rgb(181, 181, 181); stroke-opacity: 1;"/></g></g><g class="scatterlayer mlayer"><g class="trace scatter trace0a3f1f" style="stroke-miterlimit: 2; opacity: 1;"><g class="fills"/><g class="errorbars"/><g class="lines"/><g class="points"><path class="point" transform="translate(1000,21.12)" d="M2,0A2,2 0 1,1 0,-2A2,2 0 0,1 2,0Z" style="opacity: 1; stroke-width: 0px; fill: rgb(11, 121, 230); fill-opacity: 1;"/></g><g class="text"/></g><g class="trace scatter traced23f5d" style="stroke-miterlimit: 2; opacity: 1;"><g class="fills"/><g class="errorbars"/><g class="lines"/><g class="points"><path class="point" transform="translate(76.64,21.12)" d="M2,0A2,2 0 1,1 0,-2A2,2 0 0,1 2,0Z" style="opacity: 1; stroke-width: 0px; fill: rgb(11, 121, 230); fill-opacity: 1;"/></g><g class="text"/></g><g class="trace scatter trace81918b" style="stroke-miterlimit: 2; opacity: 1;"><g class="fills"/><g class="errorbars"/><g class="lines"/><g class="points"><path class="point" transform="translate(90.35,21.12)" d="M2,0A2,2 0 1,1 0,-2A2,2 0 0,1 2,0Z" style="opacity: 1; stroke-width: 0px; fill: rgb(11, 121, 230); fill-opacity: 1;"/></g><g class="text"/></g><g class="trace scatter trace06a388" style="stroke-miterlimit: 2; opacity: 1;"><g class="fills"/><g class="errorbars"/><g class="lines"/><g class="points"><path class="point" transform="translate(36.16,21.12)" d="M2,0A2,2 0 1,1 0,-2A2,2 0 0,1 2,0Z" style="opacity: 1; stroke-width: 0px; fill: rgb(11, 121, 230); fill-opacity: 1;"/></g><g class="text"/></g><g class="trace scatter trace477ec9" style="stroke-miterlimit: 2; opacity: 1;"><g class="fills"/><g class="errorbars"/><g class="lines"/><g class="points"><path class="point" transform="translate(80.85,21.12)" d="M2,0A2,2 0 1,1 0,-2A2,2 0 0,1 2,0Z" style="opacity: 1; stroke-width: 0px; fill: rgb(11, 121, 230); fill-opacity: 1;"/></g><g class="text"/></g><g class="trace scatter tracedff2c1" style="stroke-miterlimit: 2; opacity: 1;"><g class="fills"/><g class="errorbars"/><g class="lines"/><g class="points"><path class="point" transform="translate(32.46,21.12)" d="M2,0A2,2 0 1,1 0,-2A2,2 0 0,1 2,0Z" style="opacity: 1; stroke-width: 0px; fill: rgb(11, 121, 230); fill-opacity: 1;"/></g><g class="text"/></g><g class="trace scatter trace4f53e8" style="stroke-miterlimit: 2; opacity: 1;"><g class="fills"/><g class="errorbars"/><g class="lines"/><g class="points"><path class="point" transform="translate(178.22,21.12)" d="M2,0A2,2 0 1,1 0,-2A2,2 0 0,1 2,0Z" style="opacity: 1; stroke-width: 0px; fill: rgb(11, 121, 230); fill-opacity: 1;"/></g><g class="text"/></g><g class="trace scatter trace3c6408" style="stroke-miterlimit: 2; opacity: 1;"><g class="fills"/><g class="errorbars"/><g class="lines"/><g class="points"><path class="point" transform="translate(134.46,21.12)" d="M2,0A2,2 0 1,1 0,-2A2,2 0 0,1 2,0Z" style="opacity: 1; stroke-width: 0px; fill: rgb(11, 121, 230); fill-opacity: 1;"/></g><g class="text"/></g><g class="trace scatter traceae739b" style="stroke-miterlimit: 2; opacity: 1;"><g class="fills"/><g class="errorbars"/><g class="lines"/><g class="points"><path class="point" transform="translate(21.92,21.12)" d="M2,0A2,2 0 1,1 0,-2A2,2 0 0,1 2,0Z" style="opacity: 1; stroke-width: 0px; fill: rgb(11, 121, 230); fill-opacity: 1;"/></g><g class="text"/></g><g class="trace scatter trace83fb43" style="stroke-miterlimit: 2; opacity: 1;"><g class="fills"/><g class="errorbars"/><g class="lines"/><g class="points"><path class="point" transform="translate(32.01,21.12)" d="M2,0A2,2 0 1,1 0,-2A2,2 0 0,1 2,0Z" style="opacity: 1; stroke-width: 0px; fill: rgb(11, 121, 230); fill-opacity: 1;"/></g><g class="text"/></g><g class="trace scatter traceb0db1f" style="stroke-miterlimit: 2; opacity: 1;"><g class="fills"/><g class="errorbars"/><g class="lines"/><g class="points"><path class="point" transform="translate(34.06,21.12)" d="M2,0A2,2 0 1,1 0,-2A2,2 0 0,1 2,0Z" style="opacity: 1; stroke-width: 0px; fill: rgb(11, 121, 230); fill-opacity: 1;"/></g><g class="text"/></g><g class="trace scatter trace7f22eb" style="stroke-miterlimit: 2; opacity: 1;"><g class="fills"/><g class="errorbars"/><g class="lines"/><g class="points"><path class="point" transform="translate(53.65,21.12)" d="M2,0A2,2 0 1,1 0,-2A2,2 0 0,1 2,0Z" style="opacity: 1; stroke-width: 0px; fill: rgb(11, 121, 230); fill-opacity: 1;"/></g><g class="text"/></g><g class="trace scatter tracea1f3d4" style="stroke-miterlimit: 2; opacity: 1;"><g class="fills"/><g class="errorbars"/><g class="lines"/><g class="points"><path class="point" transform="translate(25.7,21.12)" d="M2,0A2,2 0 1,1 0,-2A2,2 0 0,1 2,0Z" style="opacity: 1; stroke-width: 0px; fill: rgb(11, 121, 230); fill-opacity: 1;"/></g><g class="text"/></g><g class="trace scatter trace8d4f14" style="stroke-miterlimit: 2; opacity: 1;"><g class="fills"/><g class="errorbars"/><g class="lines"/><g class="points"><path class="point" transform="translate(39.44,21.12)" d="M2,0A2,2 0 1,1 0,-2A2,2 0 0,1 2,0Z" style="opacity: 1; stroke-width: 0px; fill: rgb(11, 121, 230); fill-opacity: 1;"/></g><g class="text"/></g><g class="trace scatter trace203070" style="stroke-miterlimit: 2; opacity: 1;"><g class="fills"/><g class="errorbars"/><g class="lines"/><g class="points"><path class="point" transform="translate(61.47,21.12)" d="M2,0A2,2 0 1,1 0,-2A2,2 0 0,1 2,0Z" style="opacity: 1; stroke-width: 0px; fill: rgb(11, 121, 230); fill-opacity: 1;"/></g><g class="text"/></g><g class="trace scatter traceae0865" style="stroke-miterlimit: 2; opacity: 1;"><g class="fills"/><g class="errorbars"/><g class="lines"/><g class="points"><path class="point" transform="translate(44.42,21.12)" d="M2,0A2,2 0 1,1 0,-2A2,2 0 0,1 2,0Z" style="opacity: 1; stroke-width: 0px; fill: rgb(11, 121, 230); fill-opacity: 1;"/></g><g class="text"/></g><g class="trace scatter tracedebc99" style="stroke-miterlimit: 2; opacity: 1;"><g class="fills"/><g class="errorbars"/><g class="lines"/><g class="points"><path class="point" transform="translate(30.12,21.12)" d="M2,0A2,2 0 1,1 0,-2A2,2 0 0,1 2,0Z" style="opacity: 1; stroke-width: 0px; fill: rgb(11, 121, 230); fill-opacity: 1;"/></g><g class="text"/></g><g class="trace scatter tracef5ade0" style="stroke-miterlimit: 2; opacity: 1;"><g class="fills"/><g class="errorbars"/><g class="lines"/><g class="points"><path class="point" transform="translate(29.31,21.12)" d="M2,0A2,2 0 1,1 0,-2A2,2 0 0,1 2,0Z" style="opacity: 1; stroke-width: 0px; fill: rgb(11, 121, 230); fill-opacity: 1;"/></g><g class="text"/></g><g class="trace scatter trace028331" style="stroke-miterlimit: 2; opacity: 1;"><g class="fills"/><g class="errorbars"/><g class="lines"/><g class="points"><path class="point" transform="translate(13.9,21.12)" d="M2,0A2,2 0 1,1 0,-2A2,2 0 0,1 2,0Z" style="opacity: 1; stroke-width: 0px; fill: rgb(11, 121, 230); fill-opacity: 1;"/></g><g class="text"/></g><g class="trace scatter trace331ea7" style="stroke-miterlimit: 2; opacity: 1;"><g class="fills"/><g class="errorbars"/><g class="lines"/><g class="points"><path class="point" transform="translate(34.96,21.12)" d="M2,0A2,2 0 1,1 0,-2A2,2 0 0,1 2,0Z" style="opacity: 1; stroke-width: 0px; fill: rgb(11, 121, 230); fill-opacity: 1;"/></g><g class="text"/></g></g></g></g><path class="xlines-above crisp" d="M0,0" style="fill: none;"/><path class="ylines-above crisp" d="M0,0" style="fill: none;"/><g class="overlines-above"/><g class="xaxislayer-above"><g class="x2tick"><text text-anchor="middle" x="0" y="172.61538461538464" transform="translate(84.98,0)" style="font-family: 'Lucida Grande', 'Open Sans', verdana, arial, sans-serif; font-size: 9px; fill: rgb(0, 0, 0); fill-opacity: 0.5; white-space: pre; opacity: 1;">0</text></g><g class="x2tick"><text text-anchor="middle" x="0" y="172.61538461538464" style="font-family: 'Lucida Grande', 'Open Sans', verdana, arial, sans-serif; font-size: 9px; fill: rgb(0, 0, 0); fill-opacity: 0.5; white-space: pre; opacity: 1;" transform="translate(220.31,0)">1M</text></g><g class="x2tick"><text text-anchor="middle" x="0" y="172.61538461538464" style="font-family: 'Lucida Grande', 'Open Sans', verdana, arial, sans-serif; font-size: 9px; fill: rgb(0, 0, 0); fill-opacity: 0.5; white-space: pre; opacity: 1;" transform="translate(355.64,0)">2M</text></g><g class="x2tick"><text text-anchor="middle" x="0" y="172.61538461538464" style="font-family: 'Lucida Grande', 'Open Sans', verdana, arial, sans-serif; font-size: 9px; fill: rgb(0, 0, 0); fill-opacity: 0.5; white-space: pre; opacity: 1;" transform="translate(490.97,0)">3M</text></g><g class="x2tick"><text text-anchor="middle" x="0" y="172.61538461538464" style="font-family: 'Lucida Grande', 'Open Sans', verdana, arial, sans-serif; font-size: 9px; fill: rgb(0, 0, 0); fill-opacity: 0.5; white-space: pre; opacity: 1;" transform="translate(626.3,0)">4M</text></g><g class="x2tick"><text text-anchor="middle" x="0" y="172.61538461538464" style="font-family: 'Lucida Grande', 'Open Sans', verdana, arial, sans-serif; font-size: 9px; fill: rgb(0, 0, 0); fill-opacity: 0.5; white-space: pre; opacity: 1;" transform="translate(761.63,0)">5M</text></g><g class="x2tick"><text text-anchor="middle" x="0" y="172.61538461538464" style="font-family: 'Lucida Grande', 'Open Sans', verdana, arial, sans-serif; font-size: 9px; fill: rgb(0, 0, 0); fill-opacity: 0.5; white-space: pre; opacity: 1;" transform="translate(896.96,0)">6M</text></g><g class="x2tick"><text text-anchor="middle" x="0" y="172.61538461538464" style="font-family: 'Lucida Grande', 'Open Sans', verdana, arial, sans-serif; font-size: 9px; fill: rgb(0, 0, 0); fill-opacity: 0.5; white-space: pre; opacity: 1;" transform="translate(1032.29,0)">7M</text></g></g><g class="yaxislayer-above"><g class="y2tick"><text text-anchor="end" x="79" y="3.15" transform="translate(0,141.5046153846154)" style="font-family: 'Lucida Grande', 'Open Sans', verdana, arial, sans-serif; font-size: 9px; fill: rgb(0, 0, 0); fill-opacity: 0.5; white-space: pre; opacity: 1;">Occurrences  </text></g></g><g class="overaxes-above"/></g><g class="subplot x3y3"><g class="layer-subplot"><g class="shapelayer"/><g class="imagelayer"/></g><g class="minor-gridlayer"><g class="x3"/><g class="y3"/></g><g class="gridlayer"><g class="x3"><path class="x3grid crisp" transform="translate(283.98,0)" d="M0,190.76923076923077v42.230769230769226" style="stroke: rgb(0, 0, 0); stroke-opacity: 0.1; stroke-width: 1px;"/><path class="x3grid crisp" transform="translate(482.99,0)" d="M0,190.76923076923077v42.230769230769226" style="stroke: rgb(0, 0, 0); stroke-opacity: 0.1; stroke-width: 1px;"/><path class="x3grid crisp" transform="translate(681.99,0)" d="M0,190.76923076923077v42.230769230769226" style="stroke: rgb(0, 0, 0); stroke-opacity: 0.1; stroke-width: 1px;"/><path class="x3grid crisp" transform="translate(881,0)" d="M0,190.76923076923077v42.230769230769226" style="stroke: rgb(0, 0, 0); stroke-opacity: 0.1; stroke-width: 1px;"/><path class="x3grid crisp" transform="translate(1080,0)" d="M0,190.76923076923077v42.230769230769226" style="stroke: rgb(0, 0, 0); stroke-opacity: 0.1; stroke-width: 1px;"/></g><g class="y3"><path class="y3grid crisp" transform="translate(0,211.88923076923078)" d="M80,0h1005" style="stroke: rgb(0, 0, 0); stroke-opacity: 0.1; stroke-width: 1px;"/></g></g><g class="zerolinelayer"><path class="x3zl zl crisp" transform="translate(84.98,0)" d="M0,190.76923076923077v42.230769230769226" style="stroke: rgb(0, 0, 0); stroke-opacity: 0.1; stroke-width: 2px;"/></g><g class="layer-between"><g class="shapelayer"/><g class="imagelayer"/></g><path class="xlines-below"/><path class="ylines-below"/><g class="overlines-below"/><g class="xaxislayer-below"/><g class="yaxislayer-below"/><g class="overaxes-below"/><g class="overplot"><g class="x3y3" transform="translate(80,190.76923076923077)" clip-path="url(#clipcdefc0x3y3plot)"><g class="violinlayer mlayer"><g class="trace violins" style="opacity: 0.5;"><path class="violin" d="M4.23,20.71Q4.34,20.42 4.39,20.24C4.45,20 4.5,19.72 4.55,19.41C4.61,19.02 4.66,18.56 4.71,18.08C4.77,17.5 4.81,16.84 4.86,16.17C4.91,15.41 4.97,14.58 5.02,13.76C5.07,12.9 5.13,11.99 5.18,11.13C5.23,10.31 5.28,9.46 5.34,8.72C5.39,8.1 5.43,7.44 5.5,7C5.55,6.72 5.6,6.33 5.66,6.33C5.71,6.33 5.77,6.58 5.82,6.77C5.9,7.09 5.93,7.6 5.98,8.07C6.04,8.61 6.08,9.23 6.13,9.81C6.18,10.4 6.24,11.02 6.29,11.6C6.34,12.15 6.39,12.69 6.45,13.19C6.5,13.65 6.55,14.08 6.61,14.5C6.66,14.89 6.71,15.26 6.77,15.62C6.82,15.96 6.88,16.29 6.93,16.61C6.98,16.92 7.03,17.22 7.09,17.51C7.14,17.78 7.19,18.05 7.25,18.29C7.3,18.5 7.34,18.71 7.4,18.88C7.45,19.03 7.5,19.16 7.56,19.27C7.61,19.35 7.66,19.43 7.72,19.48C7.77,19.53 7.83,19.55 7.88,19.58C7.93,19.61 7.99,19.62 8.04,19.64C8.09,19.66 8.15,19.67 8.2,19.69C8.25,19.71 8.31,19.73 8.36,19.74C8.41,19.75 8.47,19.76 8.52,19.76C8.57,19.76 8.63,19.75 8.68,19.75C8.73,19.75 8.78,19.74 8.83,19.75C8.88,19.76 8.94,19.77 8.99,19.8C9.05,19.83 9.1,19.88 9.15,19.93C9.21,19.99 9.26,20.07 9.31,20.14C9.36,20.22 9.42,20.31 9.47,20.39C9.52,20.47 9.58,20.55 9.63,20.62C9.68,20.69 9.73,20.76 9.79,20.82C9.84,20.87 9.9,20.91 9.95,20.95C10,20.98 10.05,21.02 10.1,21.04C10.15,21.06 10.21,21.07 10.26,21.08C10.31,21.09 10.37,21.09 10.42,21.1C10.47,21.1 10.53,21.11 10.58,21.11C10.63,21.11 10.69,21.11 10.74,21.11C10.79,21.11 10.85,21.11 10.9,21.11C10.95,21.11 11.01,21.12 11.06,21.12C11.11,21.12 11.17,21.12 11.22,21.12C11.27,21.12 11.33,21.12 11.38,21.12C11.43,21.12 11.48,21.12 11.53,21.12C11.58,21.12 11.64,21.12 11.69,21.12C11.74,21.12 11.8,21.12 11.85,21.12C11.9,21.12 11.96,21.12 12.01,21.12C12.06,21.12 12.12,21.12 12.17,21.12C12.22,21.12 12.28,21.12 12.33,21.12C12.38,21.12 12.44,21.12 12.49,21.12C12.54,21.12 12.6,21.12 12.65,21.12C12.7,21.12 12.75,21.12 12.8,21.12C12.85,21.12 12.91,21.12 12.96,21.12C13.01,21.12 13.07,21.12 13.12,21.12C13.17,21.12 13.23,21.12 13.28,21.12C13.33,21.12 13.39,21.12 13.44,21.12C13.49,21.12 13.55,21.12 13.6,21.12C13.65,21.12 13.71,21.12 13.76,21.12C13.81,21.12 13.87,21.12 13.92,21.12C13.97,21.12 14.02,21.12 14.07,21.12C14.12,21.12 14.18,21.12 14.23,21.12C14.28,21.12 14.34,21.12 14.39,21.12C14.44,21.12 14.5,21.12 14.55,21.12C14.6,21.12 14.66,21.12 14.71,21.12C14.76,21.12 14.82,21.12 14.87,21.12C14.92,21.12 14.98,21.12 15.03,21.12C15.08,21.12 15.14,21.12 15.19,21.12C15.24,21.12 15.3,21.12 15.35,21.12C15.4,21.12 15.45,21.12 15.5,21.12C15.55,21.12 15.61,21.12 15.66,21.12C15.71,21.12 15.77,21.12 15.82,21.12C15.87,21.12 15.93,21.12 15.98,21.12C16.03,21.12 16.09,21.12 16.14,21.12C16.19,21.12 16.25,21.12 16.3,21.12C16.35,21.12 16.41,21.12 16.46,21.12C16.51,21.12 16.57,21.12 16.62,21.12C16.67,21.12 16.72,21.12 16.77,21.12C16.82,21.12 16.88,21.12 16.93,21.12C16.98,21.12 17.04,21.12 17.09,21.12C17.14,21.12 17.2,21.12 17.25,21.12C17.3,21.12 17.36,21.12 17.41,21.12C17.46,21.12 17.52,21.12 17.57,21.12C17.62,21.12 17.68,21.12 17.73,21.12C17.78,21.12 17.84,21.12 17.89,21.12C17.94,21.12 18,21.12 18.05,21.12C18.1,21.12 18.15,21.12 18.2,21.12C18.25,21.12 18.31,21.12 18.36,21.12C18.41,21.12 18.47,21.12 18.52,21.12C18.57,21.12 18.63,21.12 18.68,21.12C18.73,21.12 18.79,21.12 18.84,21.12C18.89,21.12 18.95,21.12 19,21.12C19.05,21.12 19.11,21.12 19.16,21.12C19.21,21.12 19.27,21.12 19.32,21.12C19.37,21.12 19.42,21.12 19.47,21.12C19.52,21.12 19.58,21.12 19.63,21.12C19.68,21.12 19.74,21.12 19.79,21.12C19.84,21.12 19.9,21.12 19.95,21.12C20,21.12 20.06,21.12 20.11,21.12C20.16,21.12 20.22,21.12 20.27,21.12C20.32,21.12 20.38,21.12 20.43,21.12C20.48,21.12 20.54,21.12 20.59,21.12C20.64,21.12 20.7,21.12 20.75,21.12C20.8,21.12 20.85,21.12 20.9,21.12C20.95,21.12 21.01,21.12 21.06,21.12C21.11,21.12 21.17,21.12 21.22,21.12C21.27,21.12 21.33,21.12 21.38,21.12C21.43,21.12 21.49,21.12 21.54,21.12C21.59,21.12 21.65,21.12 21.7,21.12C21.75,21.12 21.81,21.12 21.86,21.12C21.91,21.12 21.97,21.12 22.02,21.12C22.07,21.12 22.12,21.12 22.17,21.12C22.22,21.12 22.28,21.12 22.33,21.12C22.38,21.12 22.44,21.12 22.49,21.12C22.54,21.12 22.6,21.12 22.65,21.12C22.7,21.12 22.76,21.12 22.81,21.12C22.86,21.12 22.92,21.12 22.97,21.12C23.02,21.12 23.08,21.12 23.13,21.12C23.18,21.12 23.24,21.12 23.29,21.12C23.34,21.12 23.39,21.12 23.44,21.12C23.49,21.12 23.55,21.12 23.6,21.12C23.65,21.12 23.71,21.12 23.76,21.12C23.81,21.12 23.87,21.12 23.92,21.12C23.97,21.12 24.03,21.12 24.08,21.12C24.13,21.12 24.19,21.12 24.24,21.12C24.29,21.12 24.35,21.12 24.4,21.12C24.45,21.12 24.51,21.12 24.56,21.12C24.61,21.12 24.67,21.12 24.72,21.12C24.77,21.12 24.82,21.12 24.87,21.12C24.92,21.12 24.98,21.12 25.03,21.12C25.08,21.12 25.14,21.12 25.19,21.12C25.24,21.12 25.3,21.12 25.35,21.12C25.4,21.12 25.46,21.12 25.51,21.12C25.56,21.12 25.62,21.12 25.67,21.12C25.72,21.12 25.78,21.12 25.83,21.12C25.88,21.12 25.94,21.12 25.99,21.12C26.04,21.12 26.09,21.11 26.14,21.11C26.19,21.11 26.25,21.11 26.3,21.11C26.35,21.11 26.41,21.11 26.46,21.11C26.51,21.11 26.57,21.1 26.62,21.1C26.67,21.09 26.73,21.09 26.78,21.08C26.83,21.07 26.89,21.06 26.94,21.04C26.99,21.02 27.05,20.99 27.1,20.95C27.15,20.91 27.21,20.87 27.26,20.82C27.32,20.76 27.37,20.7 27.42,20.63C27.47,20.56 27.52,20.47 27.57,20.39C27.62,20.31 27.67,20.23 27.73,20.16C27.78,20.1 27.83,20.03 27.89,19.99C27.94,19.96 28,19.93 28.05,19.93C28.1,19.93 28.16,19.96 28.21,19.99C28.27,20.03 28.32,20.1 28.37,20.16C28.43,20.23 28.48,20.31 28.53,20.39C28.58,20.47 28.64,20.56 28.69,20.63C28.74,20.7 28.79,20.77 28.84,20.82Q28.89,20.87 29,20.95L29,21.28Q28.89,21.36 28.84,21.41C28.79,21.46 28.74,21.53 28.69,21.6C28.64,21.67 28.58,21.76 28.53,21.84C28.48,21.92 28.43,22 28.37,22.07C28.32,22.13 28.27,22.2 28.21,22.24C28.16,22.27 28.1,22.3 28.05,22.3C28,22.3 27.94,22.27 27.89,22.24C27.83,22.2 27.78,22.13 27.73,22.07C27.67,22 27.62,21.92 27.57,21.84C27.52,21.76 27.47,21.68 27.42,21.61C27.37,21.54 27.32,21.47 27.26,21.41C27.21,21.36 27.15,21.32 27.1,21.28C27.05,21.24 26.99,21.21 26.94,21.19C26.89,21.17 26.83,21.16 26.78,21.15C26.73,21.14 26.67,21.14 26.62,21.13C26.57,21.13 26.51,21.12 26.46,21.12C26.41,21.12 26.35,21.12 26.3,21.12C26.25,21.12 26.19,21.12 26.14,21.12C26.09,21.12 26.04,21.12 25.99,21.12C25.94,21.12 25.88,21.12 25.83,21.12C25.78,21.12 25.72,21.12 25.67,21.12C25.62,21.12 25.56,21.12 25.51,21.12C25.46,21.12 25.4,21.12 25.35,21.12C25.3,21.12 25.24,21.12 25.19,21.12C25.14,21.12 25.08,21.12 25.03,21.12C24.98,21.12 24.92,21.12 24.87,21.12C24.82,21.12 24.77,21.12 24.72,21.12C24.67,21.12 24.61,21.12 24.56,21.12C24.51,21.12 24.45,21.12 24.4,21.12C24.35,21.12 24.29,21.12 24.24,21.12C24.19,21.12 24.13,21.12 24.08,21.12C24.03,21.12 23.97,21.12 23.92,21.12C23.87,21.12 23.81,21.12 23.76,21.12C23.71,21.12 23.65,21.12 23.6,21.12C23.55,21.12 23.49,21.12 23.44,21.12C23.39,21.12 23.34,21.12 23.29,21.12C23.24,21.12 23.18,21.12 23.13,21.12C23.08,21.12 23.02,21.12 22.97,21.12C22.92,21.12 22.86,21.12 22.81,21.12C22.76,21.12 22.7,21.12 22.65,21.12C22.6,21.12 22.54,21.12 22.49,21.12C22.44,21.12 22.38,21.12 22.33,21.12C22.28,21.12 22.22,21.12 22.17,21.12C22.12,21.12 22.07,21.12 22.02,21.12C21.97,21.12 21.91,21.12 21.86,21.12C21.81,21.12 21.75,21.12 21.7,21.12C21.65,21.12 21.59,21.12 21.54,21.12C21.49,21.12 21.43,21.12 21.38,21.12C21.33,21.12 21.27,21.12 21.22,21.12C21.17,21.12 21.11,21.12 21.06,21.12C21.01,21.12 20.95,21.12 20.9,21.12C20.85,21.12 20.8,21.12 20.75,21.12C20.7,21.12 20.64,21.12 20.59,21.12C20.54,21.12 20.48,21.12 20.43,21.12C20.38,21.12 20.32,21.12 20.27,21.12C20.22,21.12 20.16,21.12 20.11,21.12C20.06,21.12 20,21.12 19.95,21.12C19.9,21.12 19.84,21.12 19.79,21.12C19.74,21.12 19.68,21.12 19.63,21.12C19.58,21.12 19.52,21.12 19.47,21.12C19.42,21.12 19.37,21.12 19.32,21.12C19.27,21.12 19.21,21.12 19.16,21.12C19.11,21.12 19.05,21.12 19,21.12C18.95,21.12 18.89,21.12 18.84,21.12C18.79,21.12 18.73,21.12 18.68,21.12C18.63,21.12 18.57,21.12 18.52,21.12C18.47,21.12 18.41,21.12 18.36,21.12C18.31,21.12 18.25,21.12 18.2,21.12C18.15,21.12 18.1,21.12 18.05,21.12C18,21.12 17.94,21.12 17.89,21.12C17.84,21.12 17.78,21.12 17.73,21.12C17.68,21.12 17.62,21.12 17.57,21.12C17.52,21.12 17.46,21.12 17.41,21.12C17.36,21.12 17.3,21.12 17.25,21.12C17.2,21.12 17.14,21.12 17.09,21.12C17.04,21.12 16.98,21.12 16.93,21.12C16.88,21.12 16.82,21.12 16.77,21.12C16.72,21.12 16.67,21.12 16.62,21.12C16.57,21.12 16.51,21.12 16.46,21.12C16.41,21.12 16.35,21.12 16.3,21.12C16.25,21.12 16.19,21.12 16.14,21.12C16.09,21.12 16.03,21.12 15.98,21.12C15.93,21.12 15.87,21.12 15.82,21.12C15.77,21.12 15.71,21.12 15.66,21.12C15.61,21.12 15.55,21.12 15.5,21.12C15.45,21.12 15.4,21.12 15.35,21.12C15.3,21.12 15.24,21.12 15.19,21.12C15.14,21.12 15.08,21.12 15.03,21.12C14.98,21.12 14.92,21.12 14.87,21.12C14.82,21.12 14.76,21.12 14.71,21.12C14.66,21.12 14.6,21.12 14.55,21.12C14.5,21.12 14.44,21.12 14.39,21.12C14.34,21.12 14.28,21.12 14.23,21.12C14.18,21.12 14.12,21.12 14.07,21.12C14.02,21.12 13.97,21.12 13.92,21.12C13.87,21.12 13.81,21.12 13.76,21.12C13.71,21.12 13.65,21.12 13.6,21.12C13.55,21.12 13.49,21.12 13.44,21.12C13.39,21.12 13.33,21.12 13.28,21.12C13.23,21.12 13.17,21.12 13.12,21.12C13.07,21.12 13.01,21.12 12.96,21.12C12.91,21.12 12.85,21.12 12.8,21.12C12.75,21.12 12.7,21.12 12.65,21.12C12.6,21.12 12.54,21.12 12.49,21.12C12.44,21.12 12.38,21.12 12.33,21.12C12.28,21.12 12.22,21.12 12.17,21.12C12.12,21.12 12.06,21.12 12.01,21.12C11.96,21.12 11.9,21.12 11.85,21.12C11.8,21.12 11.74,21.12 11.69,21.12C11.64,21.12 11.58,21.12 11.53,21.12C11.48,21.12 11.43,21.12 11.38,21.12C11.33,21.12 11.27,21.12 11.22,21.12C11.17,21.12 11.11,21.12 11.06,21.12C11.01,21.12 10.95,21.12 10.9,21.12C10.85,21.12 10.79,21.12 10.74,21.12C10.69,21.12 10.63,21.12 10.58,21.12C10.53,21.12 10.47,21.13 10.42,21.13C10.37,21.14 10.31,21.14 10.26,21.15C10.21,21.16 10.15,21.17 10.1,21.19C10.05,21.21 10,21.25 9.95,21.28C9.9,21.32 9.84,21.36 9.79,21.41C9.73,21.47 9.68,21.54 9.63,21.61C9.57,21.69 9.52,21.77 9.47,21.85C9.42,21.93 9.36,22.01 9.31,22.09C9.26,22.16 9.21,22.24 9.15,22.3C9.1,22.35 9.05,22.4 8.99,22.43C8.94,22.46 8.88,22.47 8.83,22.48C8.78,22.49 8.73,22.48 8.68,22.48C8.63,22.48 8.57,22.47 8.52,22.47C8.47,22.47 8.41,22.48 8.36,22.49C8.31,22.5 8.25,22.52 8.2,22.54C8.15,22.56 8.09,22.57 8.04,22.59C7.99,22.61 7.93,22.62 7.88,22.65C7.83,22.68 7.77,22.7 7.72,22.75C7.66,22.8 7.61,22.88 7.56,22.96C7.5,23.07 7.45,23.2 7.4,23.35C7.34,23.53 7.3,23.74 7.25,23.95C7.2,24.19 7.14,24.45 7.09,24.72C7.03,25.01 6.98,25.31 6.93,25.62C6.88,25.94 6.82,26.28 6.77,26.62C6.72,26.98 6.66,27.34 6.61,27.73C6.55,28.15 6.5,28.59 6.45,29.05C6.39,29.55 6.34,30.09 6.29,30.63C6.23,31.21 6.18,31.83 6.13,32.42C6.08,33.01 6.04,33.63 5.98,34.17C5.93,34.63 5.9,35.15 5.82,35.46C5.77,35.65 5.71,35.9 5.66,35.9C5.6,35.9 5.55,35.51 5.5,35.23C5.43,34.79 5.39,34.13 5.34,33.51C5.28,32.77 5.23,31.92 5.18,31.1C5.13,30.24 5.07,29.33 5.02,28.47C4.97,27.65 4.91,26.82 4.86,26.06C4.81,25.39 4.77,24.73 4.71,24.15C4.66,23.67 4.61,23.21 4.55,22.82C4.5,22.51 4.45,22.23 4.39,21.99Q4.34,21.81 4.23,21.52Z" style="vector-effect: none; stroke-width: 2px; stroke: rgb(181, 181, 181); stroke-opacity: 1; fill: rgb(181, 181, 181); fill-opacity: 1;"/><path class="box" d="M5.74,24.81V17.42M5.58,24.81V17.42H6.69V24.81ZM5.58,21.12H5.18M6.69,21.12H7.98" style="vector-effect: non-scaling-stroke; stroke-width: 2px; stroke: rgb(181, 181, 181); stroke-opacity: 1; fill: rgb(181, 181, 181); fill-opacity: 1;"/><path class="mean" d="M7.24,24.81V17.42" style="fill: none; vector-effect: non-scaling-stroke; stroke-width: 2px; stroke-dasharray: 4px, 2px; stroke: rgb(181, 181, 181); stroke-opacity: 1;"/></g></g><g class="scatterlayer mlayer"><g class="trace scatter trace1fc7a7" style="stroke-miterlimit: 2; opacity: 1;"><g class="fills"/><g class="errorbars"/><g class="lines"/><g class="points"><path class="point" transform="translate(28.05,21.12)" d="M2,0A2,2 0 1,1 0,-2A2,2 0 0,1 2,0Z" style="opacity: 1; stroke-width: 0px; fill: rgb(11, 121, 230); fill-opacity: 1;"/></g><g class="text"/></g><g class="trace scatter tracedacd66" style="stroke-miterlimit: 2; opacity: 1;"><g class="fills"/><g class="errorbars"/><g class="lines"/><g class="points"><path class="point" transform="translate(6.64,21.12)" d="M2,0A2,2 0 1,1 0,-2A2,2 0 0,1 2,0Z" style="opacity: 1; stroke-width: 0px; fill: rgb(11, 121, 230); fill-opacity: 1;"/></g><g class="text"/></g><g class="trace scatter trace3a351f" style="stroke-miterlimit: 2; opacity: 1;"><g class="fills"/><g class="errorbars"/><g class="lines"/><g class="points"><path class="point" transform="translate(6.95,21.12)" d="M2,0A2,2 0 1,1 0,-2A2,2 0 0,1 2,0Z" style="opacity: 1; stroke-width: 0px; fill: rgb(11, 121, 230); fill-opacity: 1;"/></g><g class="text"/></g><g class="trace scatter trace695aea" style="stroke-miterlimit: 2; opacity: 1;"><g class="fills"/><g class="errorbars"/><g class="lines"/><g class="points"><path class="point" transform="translate(5.7,21.12)" d="M2,0A2,2 0 1,1 0,-2A2,2 0 0,1 2,0Z" style="opacity: 1; stroke-width: 0px; fill: rgb(11, 121, 230); fill-opacity: 1;"/></g><g class="text"/></g><g class="trace scatter trace33d0e5" style="stroke-miterlimit: 2; opacity: 1;"><g class="fills"/><g class="errorbars"/><g class="lines"/><g class="points"><path class="point" transform="translate(6.73,21.12)" d="M2,0A2,2 0 1,1 0,-2A2,2 0 0,1 2,0Z" style="opacity: 1; stroke-width: 0px; fill: rgb(11, 121, 230); fill-opacity: 1;"/></g><g class="text"/></g><g class="trace scatter trace598895" style="stroke-miterlimit: 2; opacity: 1;"><g class="fills"/><g class="errorbars"/><g class="lines"/><g class="points"><path class="point" transform="translate(5.61,21.12)" d="M2,0A2,2 0 1,1 0,-2A2,2 0 0,1 2,0Z" style="opacity: 1; stroke-width: 0px; fill: rgb(11, 121, 230); fill-opacity: 1;"/></g><g class="text"/></g><g class="trace scatter tracee92c0d" style="stroke-miterlimit: 2; opacity: 1;"><g class="fills"/><g class="errorbars"/><g class="lines"/><g class="points"><path class="point" transform="translate(8.99,21.12)" d="M2,0A2,2 0 1,1 0,-2A2,2 0 0,1 2,0Z" style="opacity: 1; stroke-width: 0px; fill: rgb(11, 121, 230); fill-opacity: 1;"/></g><g class="text"/></g><g class="trace scatter tracea740d1" style="stroke-miterlimit: 2; opacity: 1;"><g class="fills"/><g class="errorbars"/><g class="lines"/><g class="points"><path class="point" transform="translate(7.98,21.12)" d="M2,0A2,2 0 1,1 0,-2A2,2 0 0,1 2,0Z" style="opacity: 1; stroke-width: 0px; fill: rgb(11, 121, 230); fill-opacity: 1;"/></g><g class="text"/></g><g class="trace scatter traced9e175" style="stroke-miterlimit: 2; opacity: 1;"><g class="fills"/><g class="errorbars"/><g class="lines"/><g class="points"><path class="point" transform="translate(5.37,21.12)" d="M2,0A2,2 0 1,1 0,-2A2,2 0 0,1 2,0Z" style="opacity: 1; stroke-width: 0px; fill: rgb(11, 121, 230); fill-opacity: 1;"/></g><g class="text"/></g><g class="trace scatter tracebb41ca" style="stroke-miterlimit: 2; opacity: 1;"><g class="fills"/><g class="errorbars"/><g class="lines"/><g class="points"><path class="point" transform="translate(5.6,21.12)" d="M2,0A2,2 0 1,1 0,-2A2,2 0 0,1 2,0Z" style="opacity: 1; stroke-width: 0px; fill: rgb(11, 121, 230); fill-opacity: 1;"/></g><g class="text"/></g><g class="trace scatter trace4e88cd" style="stroke-miterlimit: 2; opacity: 1;"><g class="fills"/><g class="errorbars"/><g class="lines"/><g class="points"><path class="point" transform="translate(5.65,21.12)" d="M2,0A2,2 0 1,1 0,-2A2,2 0 0,1 2,0Z" style="opacity: 1; stroke-width: 0px; fill: rgb(11, 121, 230); fill-opacity: 1;"/></g><g class="text"/></g><g class="trace scatter tracea0e272" style="stroke-miterlimit: 2; opacity: 1;"><g class="fills"/><g class="errorbars"/><g class="lines"/><g class="points"><path class="point" transform="translate(6.1,21.12)" d="M2,0A2,2 0 1,1 0,-2A2,2 0 0,1 2,0Z" style="opacity: 1; stroke-width: 0px; fill: rgb(11, 121, 230); fill-opacity: 1;"/></g><g class="text"/></g><g class="trace scatter tracedebb76" style="stroke-miterlimit: 2; opacity: 1;"><g class="fills"/><g class="errorbars"/><g class="lines"/><g class="points"><path class="point" transform="translate(5.46,21.12)" d="M2,0A2,2 0 1,1 0,-2A2,2 0 0,1 2,0Z" style="opacity: 1; stroke-width: 0px; fill: rgb(11, 121, 230); fill-opacity: 1;"/></g><g class="text"/></g><g class="trace scatter traced97fcf" style="stroke-miterlimit: 2; opacity: 1;"><g class="fills"/><g class="errorbars"/><g class="lines"/><g class="points"><path class="point" transform="translate(5.77,21.12)" d="M2,0A2,2 0 1,1 0,-2A2,2 0 0,1 2,0Z" style="opacity: 1; stroke-width: 0px; fill: rgb(11, 121, 230); fill-opacity: 1;"/></g><g class="text"/></g><g class="trace scatter trace48f17d" style="stroke-miterlimit: 2; opacity: 1;"><g class="fills"/><g class="errorbars"/><g class="lines"/><g class="points"><path class="point" transform="translate(6.29,21.12)" d="M2,0A2,2 0 1,1 0,-2A2,2 0 0,1 2,0Z" style="opacity: 1; stroke-width: 0px; fill: rgb(11, 121, 230); fill-opacity: 1;"/></g><g class="text"/></g><g class="trace scatter traceacebe8" style="stroke-miterlimit: 2; opacity: 1;"><g class="fills"/><g class="errorbars"/><g class="lines"/><g class="points"><path class="point" transform="translate(5.89,21.12)" d="M2,0A2,2 0 1,1 0,-2A2,2 0 0,1 2,0Z" style="opacity: 1; stroke-width: 0px; fill: rgb(11, 121, 230); fill-opacity: 1;"/></g><g class="text"/></g><g class="trace scatter tracec2a724" style="stroke-miterlimit: 2; opacity: 1;"><g class="fills"/><g class="errorbars"/><g class="lines"/><g class="points"><path class="point" transform="translate(5.56,21.12)" d="M2,0A2,2 0 1,1 0,-2A2,2 0 0,1 2,0Z" style="opacity: 1; stroke-width: 0px; fill: rgb(11, 121, 230); fill-opacity: 1;"/></g><g class="text"/></g><g class="trace scatter trace871368" style="stroke-miterlimit: 2; opacity: 1;"><g class="fills"/><g class="errorbars"/><g class="lines"/><g class="points"><path class="point" transform="translate(5.54,21.12)" d="M2,0A2,2 0 1,1 0,-2A2,2 0 0,1 2,0Z" style="opacity: 1; stroke-width: 0px; fill: rgb(11, 121, 230); fill-opacity: 1;"/></g><g class="text"/></g><g class="trace scatter trace1764ce" style="stroke-miterlimit: 2; opacity: 1;"><g class="fills"/><g class="errorbars"/><g class="lines"/><g class="points"><path class="point" transform="translate(5.18,21.12)" d="M2,0A2,2 0 1,1 0,-2A2,2 0 0,1 2,0Z" style="opacity: 1; stroke-width: 0px; fill: rgb(11, 121, 230); fill-opacity: 1;"/></g><g class="text"/></g><g class="trace scatter tracea79f37" style="stroke-miterlimit: 2; opacity: 1;"><g class="fills"/><g class="errorbars"/><g class="lines"/><g class="points"><path class="point" transform="translate(5.67,21.12)" d="M2,0A2,2 0 1,1 0,-2A2,2 0 0,1 2,0Z" style="opacity: 1; stroke-width: 0px; fill: rgb(11, 121, 230); fill-opacity: 1;"/></g><g class="text"/></g></g></g></g><path class="xlines-above crisp" d="M0,0" style="fill: none;"/><path class="ylines-above crisp" d="M0,0" style="fill: none;"/><g class="overlines-above"/><g class="xaxislayer-above"><g class="x3tick"><text text-anchor="middle" x="0" y="243" transform="translate(84.98,0)" style="font-family: 'Lucida Grande', 'Open Sans', verdana, arial, sans-serif; font-size: 9px; fill: rgb(0, 0, 0); fill-opacity: 0.5; white-space: pre; opacity: 1;">0%</text></g><g class="x3tick"><text text-anchor="middle" x="0" y="243" style="font-family: 'Lucida Grande', 'Open Sans', verdana, arial, sans-serif; font-size: 9px; fill: rgb(0, 0, 0); fill-opacity: 0.5; white-space: pre; opacity: 1;" transform="translate(283.98,0)">20%</text></g><g class="x3tick"><text text-anchor="middle" x="0" y="243" style="font-family: 'Lucida Grande', 'Open Sans', verdana, arial, sans-serif; font-size: 9px; fill: rgb(0, 0, 0); fill-opacity: 0.5; white-space: pre; opacity: 1;" transform="translate(482.99,0)">40%</text></g><g class="x3tick"><text text-anchor="middle" x="0" y="243" style="font-family: 'Lucida Grande', 'Open Sans', verdana, arial, sans-serif; font-size: 9px; fill: rgb(0, 0, 0); fill-opacity: 0.5; white-space: pre; opacity: 1;" transform="translate(681.99,0)">60%</text></g><g class="x3tick"><text text-anchor="middle" x="0" y="243" style="font-family: 'Lucida Grande', 'Open Sans', verdana, arial, sans-serif; font-size: 9px; fill: rgb(0, 0, 0); fill-opacity: 0.5; white-space: pre; opacity: 1;" transform="translate(881,0)">80%</text></g><g class="x3tick"><text text-anchor="middle" x="0" y="243" style="font-family: 'Lucida Grande', 'Open Sans', verdana, arial, sans-serif; font-size: 9px; fill: rgb(0, 0, 0); fill-opacity: 0.5; white-space: pre; opacity: 1;" transform="translate(1080,0)">100%</text></g></g><g class="yaxislayer-above"><g class="y3tick"><text text-anchor="end" x="79" y="3.15" transform="translate(0,211.88923076923078)" style="font-family: 'Lucida Grande', 'Open Sans', verdana, arial, sans-serif; font-size: 9px; fill: rgb(0, 0, 0); fill-opacity: 0.5; white-space: pre; opacity: 1;">% of all reads  </text></g></g><g class="overaxes-above"/></g></g><g class="polarlayer"/><g class="smithlayer"/><g class="ternarylayer"/><g class="geolayer"/><g class="funnelarealayer"/><g class="pielayer"/><g class="iciclelayer"/><g class="treemaplayer"/><g class="sunburstlayer"/><g class="glimages"/><defs id="topdefs-cdefc0"><g class="clips"/></defs><g class="layer-above"><g class="imagelayer"/><g class="shapelayer"/></g><g class="infolayer"><g class="g-gtitle"><text class="gtitle" x="550" y="25" text-anchor="middle" dy="0em" style="opacity: 1; font-family: 'Lucida Grande', 'Open Sans', verdana, arial, sans-serif; font-size: 20px; fill: rgb(42, 63, 95); fill-opacity: 1; white-space: pre;"><tspan class="line" dy="0em" x="550" y="25">FastQC: Top overrepresented sequences</tspan><tspan class="line" dy="1.3em" x="550" y="25"><tspan style="font-size:70%" dy="-0.6em">20 samples</tspan><tspan dy="0.42em"></tspan></tspan></text></g><g class="g-xtitle"/><g class="g-x2title"/><g class="g-x3title"/><g class="g-ytitle"/><g class="g-y2title"/><g class="g-y3title"/></g></svg>