<?xml version="1.0" encoding="UTF-8" standalone="no"?>
<!-- Created with Inkscape (http://www.inkscape.org/) -->

<svg
   version="1.1"
   id="svg2"
   xml:space="preserve"
   width="59.881817mm"
   height="67.404221mm"
   viewBox="0 0 226.32498 254.75611"
   sodipodi:docname="Fig3.svg"
   inkscape:version="1.1.2 (0a00cf5339, 2022-02-04)"
   inkscape:export-filename="/home/ute/Documents/bioinformatic_analyses/2024-05_LargeRubiscoLibrary/lfcSE_weighted_outputImages/svg/Fig3/Fig3.png"
   inkscape:export-xdpi="300"
   inkscape:export-ydpi="300"
   xmlns:inkscape="http://www.inkscape.org/namespaces/inkscape"
   xmlns:sodipodi="http://sodipodi.sourceforge.net/DTD/sodipodi-0.dtd"
   xmlns="http://www.w3.org/2000/svg"
   xmlns:svg="http://www.w3.org/2000/svg"><defs
     id="defs6"><clipPath
       clipPathUnits="userSpaceOnUse"
       id="clipPath24"><path
         d="M 0,0 H 525 V 324 H 0 Z"
         id="path22" /></clipPath><clipPath
       clipPathUnits="userSpaceOnUse"
       id="clipPath36"><path
         d="M 33.73,31.91 H 359.4 V 300.85 H 33.73 Z"
         id="path34" /></clipPath></defs><sodipodi:namedview
     id="namedview4"
     pagecolor="#ffffff"
     bordercolor="#666666"
     borderopacity="1.0"
     inkscape:pageshadow="2"
     inkscape:pageopacity="0.0"
     inkscape:pagecheckerboard="0"
     showgrid="false"
     inkscape:zoom="2.6532924"
     inkscape:cx="109.8635"
     inkscape:cy="131.72314"
     inkscape:window-width="1920"
     inkscape:window-height="1016"
     inkscape:window-x="0"
     inkscape:window-y="0"
     inkscape:window-maximized="1"
     inkscape:current-layer="g8"
     fit-margin-top="2"
     lock-margins="true"
     units="mm"
     fit-margin-left="2"
     fit-margin-right="2"
     fit-margin-bottom="2"
     inkscape:document-units="mm" /><g
     id="g8"
     inkscape:groupmode="layer"
     inkscape:label="Fig3"
     transform="matrix(1.3333333,0,0,-1.3333333,5.4804413,65.668895)"><g
       id="g14" /><g
       id="g16" /><g
       id="g28" /><g
       id="g30"
       transform="matrix(0.4368938,0,0,0.4368938,2.9444823,-87.857119)"
       style="stroke-width:2.28889"><g
         id="g32"
         clip-path="url(#clipPath36)"
         style="stroke-width:2.28889"><path
           d="M 33.73,31.91 H 359.4 V 300.85 H 33.73 Z"
           style="fill:#ffffff;fill-opacity:1;fill-rule:nonzero;stroke:none;stroke-width:2.28889"
           id="path38" /><path
           d="M 33.73,72.74 H 359.4"
           style="fill:none;stroke:#dedede;stroke-width:0.617999;stroke-linecap:butt;stroke-linejoin:round;stroke-miterlimit:10;stroke-dasharray:none;stroke-opacity:1"
           id="path40" /><path
           d="M 33.73,125.2 H 359.4"
           style="fill:none;stroke:#dedede;stroke-width:0.617999;stroke-linecap:butt;stroke-linejoin:round;stroke-miterlimit:10;stroke-dasharray:none;stroke-opacity:1"
           id="path42" /><path
           d="M 33.73,177.66 H 359.4"
           style="fill:none;stroke:#dedede;stroke-width:0.617999;stroke-linecap:butt;stroke-linejoin:round;stroke-miterlimit:10;stroke-dasharray:none;stroke-opacity:1"
           id="path44" /><path
           d="M 33.73,230.12 H 359.4"
           style="fill:none;stroke:#dedede;stroke-width:0.617999;stroke-linecap:butt;stroke-linejoin:round;stroke-miterlimit:10;stroke-dasharray:none;stroke-opacity:1"
           id="path46" /><path
           d="M 33.73,282.58 H 359.4"
           style="fill:none;stroke:#dedede;stroke-width:0.617999;stroke-linecap:butt;stroke-linejoin:round;stroke-miterlimit:10;stroke-dasharray:none;stroke-opacity:1"
           id="path48" /><path
           d="M 85.17,31.91 V 300.85"
           style="fill:none;stroke:#dedede;stroke-width:0.617999;stroke-linecap:butt;stroke-linejoin:round;stroke-miterlimit:10;stroke-dasharray:none;stroke-opacity:1"
           id="path50" /><path
           d="M 158.46,31.91 V 300.85"
           style="fill:none;stroke:#dedede;stroke-width:0.617999;stroke-linecap:butt;stroke-linejoin:round;stroke-miterlimit:10;stroke-dasharray:none;stroke-opacity:1"
           id="path52" /><path
           d="M 231.74,31.91 V 300.85"
           style="fill:none;stroke:#dedede;stroke-width:0.617999;stroke-linecap:butt;stroke-linejoin:round;stroke-miterlimit:10;stroke-dasharray:none;stroke-opacity:1"
           id="path54" /><path
           d="M 305.02,31.91 V 300.85"
           style="fill:none;stroke:#dedede;stroke-width:0.617999;stroke-linecap:butt;stroke-linejoin:round;stroke-miterlimit:10;stroke-dasharray:none;stroke-opacity:1"
           id="path56" /><path
           d="M 33.73,46.51 H 359.4"
           style="fill:none;stroke:#dedede;stroke-width:1.21311;stroke-linecap:butt;stroke-linejoin:round;stroke-miterlimit:10;stroke-dasharray:none;stroke-opacity:1"
           id="path58" /><path
           d="M 33.73,98.97 H 359.4"
           style="fill:none;stroke:#dedede;stroke-width:1.21311;stroke-linecap:butt;stroke-linejoin:round;stroke-miterlimit:10;stroke-dasharray:none;stroke-opacity:1"
           id="path60" /><path
           d="M 33.73,151.43 H 359.4"
           style="fill:none;stroke:#dedede;stroke-width:1.21311;stroke-linecap:butt;stroke-linejoin:round;stroke-miterlimit:10;stroke-dasharray:none;stroke-opacity:1"
           id="path62" /><path
           d="M 33.73,203.89 H 359.4"
           style="fill:none;stroke:#dedede;stroke-width:1.21311;stroke-linecap:butt;stroke-linejoin:round;stroke-miterlimit:10;stroke-dasharray:none;stroke-opacity:1"
           id="path64" /><path
           d="M 33.73,256.35 H 359.4"
           style="fill:none;stroke:#dedede;stroke-width:1.21311;stroke-linecap:butt;stroke-linejoin:round;stroke-miterlimit:10;stroke-dasharray:none;stroke-opacity:1"
           id="path66" /><path
           d="M 48.53,31.91 V 300.85"
           style="fill:none;stroke:#dedede;stroke-width:1.21311;stroke-linecap:butt;stroke-linejoin:round;stroke-miterlimit:10;stroke-dasharray:none;stroke-opacity:1"
           id="path68" /><path
           d="M 121.82,31.91 V 300.85"
           style="fill:none;stroke:#dedede;stroke-width:1.21311;stroke-linecap:butt;stroke-linejoin:round;stroke-miterlimit:10;stroke-dasharray:none;stroke-opacity:1"
           id="path70" /><path
           d="M 195.1,31.91 V 300.85"
           style="fill:none;stroke:#dedede;stroke-width:1.21311;stroke-linecap:butt;stroke-linejoin:round;stroke-miterlimit:10;stroke-dasharray:none;stroke-opacity:1"
           id="path72" /><path
           d="M 268.38,31.91 V 300.85"
           style="fill:none;stroke:#dedede;stroke-width:1.21311;stroke-linecap:butt;stroke-linejoin:round;stroke-miterlimit:10;stroke-dasharray:none;stroke-opacity:1"
           id="path74" /><path
           d="M 341.67,31.91 V 300.85"
           style="fill:none;stroke:#dedede;stroke-width:1.21311;stroke-linecap:butt;stroke-linejoin:round;stroke-miterlimit:10;stroke-dasharray:none;stroke-opacity:1"
           id="path76" /><path
           d="m 48.53,98.97 v 0 l 108.46,92.41 v 0 l 143.64,40.49 v 0 l 43.97,31.07 v 0"
           style="fill:none;stroke:#f8766d;stroke-width:1.46489;stroke-linecap:butt;stroke-linejoin:round;stroke-miterlimit:10;stroke-dasharray:none;stroke-opacity:1"
           id="path78" /><path
           d="m 48.53,98.97 v 0 0 l 108.46,-1.05 v 0 0 l 143.64,25 v 0 0 l 43.97,8.41 v 0 0"
           style="fill:none;stroke:#7cae00;stroke-width:1.46489;stroke-linecap:butt;stroke-linejoin:round;stroke-miterlimit:10;stroke-dasharray:none;stroke-opacity:1"
           id="path80" /><path
           d="m 48.53,98.97 v 0 0 0 0 0 0 0 l 108.46,13.93 v 0 0 0 0 0 0 0 l 143.64,13.48 v 0 0 0 0 0 0 0 l 43.97,5.58 v 0 0 0 0 0 0 0"
           style="fill:none;stroke:#00bfc4;stroke-width:1.46489;stroke-linecap:butt;stroke-linejoin:round;stroke-miterlimit:10;stroke-dasharray:none;stroke-opacity:1"
           id="path82" /><path
           d="m 48.53,98.97 v 0 0 0 0 0 0 0 0 0 0 0 0 0 0 0 0 0 0 0 0 0 0 0 0 0 0 0 0 0 l 108.46,28.16 v 0 0 0 0 0 0 0 0 0 0 0 0 0 0 0 0 0 0 0 0 0 0 0 0 0 0 0 0 0 l 143.64,43.95 v 0 0 0 0 0 0 0 0 0 0 0 0 0 0 0 0 0 0 0 0 0 0 0 0 0 0 0 0 0 l 43.97,29.4 v 0 0 0 0 0 0 0 0 0 0 0 0 0 0 0 0 0 0 0 0 0 0 0 0 0 0 0 0 0"
           style="fill:none;stroke:#c77cff;stroke-width:1.46489;stroke-linecap:butt;stroke-linejoin:round;stroke-miterlimit:10;stroke-dasharray:none;stroke-opacity:1"
           id="path84" /><path
           d="m 48.53,98.97 v 0 l 108.46,134.36 v 0 l 143.64,6.06 v 0 l 43.97,49.23 v 0 -51.37 0 l -43.97,-12.91 v 0 L 156.99,149.43 v 0 z"
           style="fill:#f8766d;fill-opacity:0.102;fill-rule:nonzero;stroke:none;stroke-width:2.28889"
           id="path86" /><path
           d="m 48.53,98.97 v 0 0 l 108.46,16.3 v 0 0 l 143.64,60.82 v 0 0 l 43.97,42.43 v 0 0 -174.38 0 0 l -43.97,25.61 v 0 0 L 156.99,80.57 v 0 0 z"
           style="fill:#7cae00;fill-opacity:0.102;fill-rule:nonzero;stroke:none;stroke-width:2.28889"
           id="path88" /><path
           d="m 48.53,98.97 v 0 0 0 0 0 0 0 l 108.46,28.02 v 0 0 0 0 0 0 0 l 143.64,21.02 v 0 0 0 0 0 0 0 l 43.97,22.53 v 0 0 0 0 0 0 0 -77.16 0 0 0 0 0 0 0 l -43.97,11.37 v 0 0 0 0 0 0 0 L 156.99,98.81 v 0 0 0 0 0 0 0 z"
           style="fill:#00bfc4;fill-opacity:0.102;fill-rule:nonzero;stroke:none;stroke-width:2.28889"
           id="path90" /><path
           d="m 48.53,98.97 v 0 0 0 0 0 0 0 0 0 0 0 0 0 0 0 0 0 0 0 0 0 0 0 0 0 0 0 0 0 l 108.46,32.62 v 0 0 0 0 0 0 0 0 0 0 0 0 0 0 0 0 0 0 0 0 0 0 0 0 0 0 0 0 0 l 143.64,49.29 v 0 0 0 0 0 0 0 0 0 0 0 0 0 0 0 0 0 0 0 0 0 0 0 0 0 0 0 0 0 l 43.97,34.01 v 0 0 0 0 0 0 0 0 0 0 0 0 0 0 0 0 0 0 0 0 0 0 0 0 0 0 0 0 0 -28.83 0 0 0 0 0 0 0 0 0 0 0 0 0 0 0 0 0 0 0 0 0 0 0 0 0 0 0 0 0 l -43.97,-24.77 v 0 0 0 0 0 0 0 0 0 0 0 0 0 0 0 0 0 0 0 0 0 0 0 0 0 0 0 0 0 L 156.99,122.66 v 0 0 0 0 0 0 0 0 0 0 0 0 0 0 0 0 0 0 0 0 0 0 0 0 0 0 0 0 0 L 48.53,98.97 v 0 0 0 0 0 0 0 0 0 0 0 0 0 0 0 0 0 0 0 0 0 z"
           style="fill:#c77cff;fill-opacity:0.102;fill-rule:nonzero;stroke:none;stroke-width:2.28889"
           id="path92" /><path
           d="M 33.73,31.91 H 359.4 V 300.85 H 33.73 Z"
           style="fill:none;stroke:#b3b3b3;stroke-width:2.44911;stroke-linecap:round;stroke-linejoin:round;stroke-miterlimit:10;stroke-dasharray:none;stroke-opacity:1"
           id="path94" /></g></g><g
       id="g96" /><g
       id="g98" /><g
       id="g100" /><g
       id="g102" /><g
       id="g104" /><g
       id="g106" /><g
       id="g108" /><g
       id="g110" /><g
       id="g112" /><g
       id="g114" /><g
       id="g116" /><g
       id="g118" /><g
       id="g142" /><g
       id="g144"
       transform="matrix(0.4368938,0,0,0.4368938,2.9444823,-87.857119)"
       style="stroke-width:2.28889"><path
         d="m 30.99,46.51 h 2.74"
         style="fill:none;stroke:#b3b3b3;stroke-width:1.21311;stroke-linecap:butt;stroke-linejoin:round;stroke-miterlimit:10;stroke-dasharray:none;stroke-opacity:1"
         id="path146" /><path
         d="m 30.99,98.97 h 2.74"
         style="fill:none;stroke:#b3b3b3;stroke-width:1.21311;stroke-linecap:butt;stroke-linejoin:round;stroke-miterlimit:10;stroke-dasharray:none;stroke-opacity:1"
         id="path148" /><path
         d="m 30.99,151.43 h 2.74"
         style="fill:none;stroke:#b3b3b3;stroke-width:1.21311;stroke-linecap:butt;stroke-linejoin:round;stroke-miterlimit:10;stroke-dasharray:none;stroke-opacity:1"
         id="path150" /><path
         d="m 30.99,203.89 h 2.74"
         style="fill:none;stroke:#b3b3b3;stroke-width:1.21311;stroke-linecap:butt;stroke-linejoin:round;stroke-miterlimit:10;stroke-dasharray:none;stroke-opacity:1"
         id="path152" /><path
         d="m 30.99,256.35 h 2.74"
         style="fill:none;stroke:#b3b3b3;stroke-width:1.21311;stroke-linecap:butt;stroke-linejoin:round;stroke-miterlimit:10;stroke-dasharray:none;stroke-opacity:1"
         id="path154" /></g><g
       id="g156" /><g
       id="g158" /><g
       id="g160" /><g
       id="g162" /><g
       id="g164" /><g
       id="g166" /><g
       id="g168" /><g
       id="g170" /><g
       id="g172" /><g
       id="g174"
       transform="matrix(0.4368938,0,0,0.4368938,2.9444823,-87.857119)"
       style="stroke-width:2.28889"><path
         d="m 48.53,29.17 v 2.74"
         style="fill:none;stroke:#b3b3b3;stroke-width:1.21311;stroke-linecap:butt;stroke-linejoin:round;stroke-miterlimit:10;stroke-dasharray:none;stroke-opacity:1"
         id="path176" /><path
         d="m 121.82,29.17 v 2.74"
         style="fill:none;stroke:#b3b3b3;stroke-width:1.21311;stroke-linecap:butt;stroke-linejoin:round;stroke-miterlimit:10;stroke-dasharray:none;stroke-opacity:1"
         id="path178" /><path
         d="m 195.1,29.17 v 2.74"
         style="fill:none;stroke:#b3b3b3;stroke-width:1.21311;stroke-linecap:butt;stroke-linejoin:round;stroke-miterlimit:10;stroke-dasharray:none;stroke-opacity:1"
         id="path180" /><path
         d="m 268.38,29.17 v 2.74"
         style="fill:none;stroke:#b3b3b3;stroke-width:1.21311;stroke-linecap:butt;stroke-linejoin:round;stroke-miterlimit:10;stroke-dasharray:none;stroke-opacity:1"
         id="path182" /><path
         d="m 341.67,29.17 v 2.74"
         style="fill:none;stroke:#b3b3b3;stroke-width:1.21311;stroke-linecap:butt;stroke-linejoin:round;stroke-miterlimit:10;stroke-dasharray:none;stroke-opacity:1"
         id="path184" /></g><g
       id="g186" /><g
       id="g210" /><g
       id="g212" /><g
       id="g214" /><g
       id="g216" /><g
       id="g218" /><g
       id="g220" /><g
       id="g222" /><g
       id="g224" /><g
       id="g232" /><g
       id="g240" /><g
       id="g242" /><g
       id="g244" /><g
       id="g246" /><g
       id="g248" /><g
       id="g250" /><g
       id="g252" /><g
       id="g258" /><g
       id="g266" /><g
       id="g272" /><g
       id="g278" /><g
       id="g284" /><g
       id="g290" /><g
       id="g296" /><g
       id="g302" /><g
       id="g308" /><g
       id="g314" /><g
       id="g320" /><g
       id="g326" /><g
       id="g332" /><g
       id="g338" /><g
       id="g346" /><g
       id="g354" /><g
       id="g362" /><g
       id="g370" /><g
       id="g372" /><g
       id="g374" /><g
       id="g376" /><g
       id="g378" /><g
       id="g380" /><g
       id="g382" /><g
       id="g384" /><g
       id="g386" /><g
       id="g388" /><g
       id="g390" /><g
       id="g392" /><g
       id="g394" /><g
       id="g396" /><g
       id="g398" /><g
       id="g406" /><g
       id="g408" /><g
       id="g410" /><g
       id="g412" /><text
       xml:space="preserve"
       style="font-size:8px;line-height:1.25;font-family:sans-serif;letter-spacing:0px;word-spacing:0px;stroke-width:0.75"
       x="10.919978"
       y="-21.228497"
       id="text6256-3"
       transform="scale(1,-1)"><tspan
         sodipodi:role="line"
         id="tspan6254-6"
         style="font-size:8px;stroke-width:0.75"
         x="10.919978"
         y="-21.228497">3</tspan></text><text
       xml:space="preserve"
       style="font-size:8px;line-height:1.25;font-family:sans-serif;letter-spacing:0px;word-spacing:0px;stroke-width:0.75"
       x="11.080134"
       y="1.7475921"
       id="text6256-3-7"
       transform="scale(1,-1)"><tspan
         sodipodi:role="line"
         id="tspan6254-6-5"
         style="font-size:8px;stroke-width:0.75"
         x="11.080134"
         y="1.7475921">2</tspan></text><text
       xml:space="preserve"
       style="font-size:8px;line-height:1.25;font-family:sans-serif;letter-spacing:0px;word-spacing:0px;stroke-width:0.75"
       x="11.017634"
       y="24.614307"
       id="text6256-3-3"
       transform="scale(1,-1)"><tspan
         sodipodi:role="line"
         id="tspan6254-6-56"
         style="font-size:8px;stroke-width:0.75"
         x="11.017634"
         y="24.614307">1</tspan></text><text
       xml:space="preserve"
       style="font-size:8px;line-height:1.25;font-family:sans-serif;letter-spacing:0px;word-spacing:0px;stroke-width:0.75"
       x="10.810603"
       y="47.52985"
       id="text6256-3-2"
       transform="scale(1,-1)"><tspan
         sodipodi:role="line"
         id="tspan6254-6-9"
         style="font-size:8px;stroke-width:0.75"
         x="10.810603"
         y="47.52985">0</tspan></text><text
       xml:space="preserve"
       style="font-size:8px;line-height:1.25;font-family:sans-serif;letter-spacing:0px;word-spacing:0px;stroke-width:0.75"
       x="21.60397"
       y="81.749352"
       id="text6256-3-2-7"
       transform="scale(1,-1)"><tspan
         sodipodi:role="line"
         id="tspan6254-6-9-0"
         style="font-size:8px;stroke-width:0.75"
         x="21.60397"
         y="81.749352">0</tspan></text><text
       xml:space="preserve"
       style="font-size:8px;line-height:1.25;font-family:sans-serif;letter-spacing:0px;word-spacing:0px;stroke-width:0.75"
       x="85.678558"
       y="81.749352"
       id="text6256-3-2-9"
       transform="scale(1,-1)"><tspan
         sodipodi:role="line"
         id="tspan6254-6-9-3"
         style="font-size:8px;stroke-width:0.75"
         x="85.678558"
         y="81.749352">5</tspan></text><text
       xml:space="preserve"
       style="font-size:8px;line-height:1.25;font-family:sans-serif;letter-spacing:0px;word-spacing:0px;stroke-width:0.75"
       x="146.95432"
       y="81.749352"
       id="text6256-3-2-6"
       transform="scale(1,-1)"><tspan
         sodipodi:role="line"
         id="tspan6254-6-9-06"
         style="font-size:8px;stroke-width:0.75"
         x="146.95432"
         y="81.749352">10</tspan></text><text
       xml:space="preserve"
       style="font-size:8px;line-height:1.25;font-family:sans-serif;letter-spacing:0px;word-spacing:0px;stroke-width:0.75"
       x="51.158451"
       y="90.738213"
       id="text6256-3-2-6-2"
       transform="scale(1,-1)"><tspan
         sodipodi:role="line"
         id="tspan6254-6-9-06-6"
         style="font-size:8px;stroke-width:0.75"
         x="51.158451"
         y="90.738213">Time (generations)</tspan></text><g
       id="g24787"
       transform="translate(8.6876639,19.5)"><g
         id="g274"
         transform="matrix(0.52981858,0,0,0.52981858,-190.50994,-221.67741)"
         style="stroke-width:1.88744"><path
           d="m 377.57,184.4 h 13.82"
           style="fill:none;stroke:#f8766d;stroke-width:1.20796;stroke-linecap:butt;stroke-linejoin:round;stroke-miterlimit:10;stroke-dasharray:none;stroke-opacity:1"
           id="path276" /></g><g
         id="g280"
         transform="matrix(0.52981858,0,0,0.52981858,-190.50994,-221.67741)"
         style="stroke-width:1.88744"><path
           d="m 376.55,176.47 h 15.86 v 15.86 h -15.86 z"
           style="fill:#f8766d;fill-opacity:0.102;fill-rule:nonzero;stroke:none;stroke-width:1.88744"
           id="path282" /></g><g
         id="g292"
         transform="matrix(0.52981858,0,0,0.52981858,-190.50994,-221.67741)"
         style="stroke-width:1.88744"><path
           d="m 377.57,167.12 h 13.82"
           style="fill:none;stroke:#7cae00;stroke-width:1.20796;stroke-linecap:butt;stroke-linejoin:round;stroke-miterlimit:10;stroke-dasharray:none;stroke-opacity:1"
           id="path294" /></g><g
         id="g298"
         transform="matrix(0.52981858,0,0,0.52981858,-190.50994,-221.67741)"
         style="stroke-width:1.88744"><path
           d="m 376.55,159.19 h 15.86 v 15.86 h -15.86 z"
           style="fill:#7cae00;fill-opacity:0.102;fill-rule:nonzero;stroke:none;stroke-width:1.88744"
           id="path300" /></g><g
         id="g310"
         transform="matrix(0.52981858,0,0,0.52981858,-190.50994,-221.67741)"
         style="stroke-width:1.88744"><path
           d="m 377.57,149.84 h 13.82"
           style="fill:none;stroke:#00bfc4;stroke-width:1.20796;stroke-linecap:butt;stroke-linejoin:round;stroke-miterlimit:10;stroke-dasharray:none;stroke-opacity:1"
           id="path312" /></g><g
         id="g316"
         transform="matrix(0.52981858,0,0,0.52981858,-190.50994,-221.67741)"
         style="stroke-width:1.88744"><path
           d="m 376.55,141.91 h 15.86 v 15.86 h -15.86 z"
           style="fill:#00bfc4;fill-opacity:0.102;fill-rule:nonzero;stroke:none;stroke-width:1.88744"
           id="path318" /></g><g
         id="g328"
         transform="matrix(0.52981858,0,0,0.52981858,-190.50994,-221.67741)"
         style="stroke-width:1.88744"><path
           d="m 377.57,132.56 h 13.82"
           style="fill:none;stroke:#c77cff;stroke-width:1.20796;stroke-linecap:butt;stroke-linejoin:round;stroke-miterlimit:10;stroke-dasharray:none;stroke-opacity:1"
           id="path330" /></g><g
         id="g334"
         transform="matrix(0.52981858,0,0,0.52981858,-190.50994,-221.67741)"
         style="stroke-width:1.88744"><path
           d="m 376.55,124.63 h 15.86 v 15.86 h -15.86 z"
           style="fill:#c77cff;fill-opacity:0.102;fill-rule:nonzero;stroke:none;stroke-width:1.88744"
           id="path336" /></g><text
         xml:space="preserve"
         style="font-size:8px;line-height:1.25;font-family:sans-serif;letter-spacing:0px;word-spacing:0px;stroke-width:0.75"
         x="20.485073"
         y="126.48277"
         id="text6256-3-2-6-2-7"
         transform="scale(1,-1)"><tspan
           sodipodi:role="line"
           id="tspan6254-6-9-06-6-9"
           style="font-size:8px;stroke-width:0.75"
           x="20.485073"
           y="126.48277">H141V,K261E,H265A,S446A</tspan></text><text
         xml:space="preserve"
         style="font-size:8px;line-height:1.25;font-family:sans-serif;letter-spacing:0px;word-spacing:0px;stroke-width:0.75"
         x="20.485073"
         y="135.63803"
         id="text6256-3-2-6-2-7-2"
         transform="scale(1,-1)"><tspan
           sodipodi:role="line"
           id="tspan6254-6-9-06-6-9-0"
           style="font-size:8px;stroke-width:0.75"
           x="20.485073"
           y="135.63803">H141V,K261E,S446A</tspan></text><text
         xml:space="preserve"
         style="font-size:8px;line-height:1.25;font-family:sans-serif;letter-spacing:0px;word-spacing:0px;stroke-width:0.75"
         x="20.485073"
         y="145.20151"
         id="text6256-3-2-6-2-7-23"
         transform="scale(1,-1)"><tspan
           sodipodi:role="line"
           id="tspan6254-6-9-06-6-9-7"
           style="font-size:8px;stroke-width:0.75"
           x="20.485073"
           y="145.20151">H265A</tspan></text><text
         xml:space="preserve"
         style="font-size:8px;line-height:1.25;font-family:sans-serif;letter-spacing:0px;word-spacing:0px;stroke-width:0.75"
         x="20.543667"
         y="154.42708"
         id="text6256-3-2-6-2-7-5"
         transform="scale(1,-1)"><tspan
           sodipodi:role="line"
           id="tspan6254-6-9-06-6-9-9"
           style="font-size:8px;stroke-width:0.75"
           x="20.543667"
           y="154.42708">base variant</tspan></text></g><text
       xml:space="preserve"
       style="font-size:8px;line-height:1.25;font-family:sans-serif;letter-spacing:0px;word-spacing:0px;stroke-width:0.75"
       x="-48.113995"
       y="7.6292729"
       id="text6256-3-2-6-2-1"
       transform="matrix(0,1,1,0,0,0)"><tspan
         sodipodi:role="line"
         id="tspan6254-6-9-06-6-8"
         style="font-size:8px;stroke-width:0.75"
         x="-48.113995"
         y="7.6292729">Log2FC (to g=0)</tspan></text><text
       xml:space="preserve"
       style="font-size:8px;line-height:1.25;font-family:sans-serif;letter-spacing:0px;word-spacing:0px;stroke-width:0.75"
       x="8.1309137"
       y="70.453201"
       id="text6256-3-1"
       transform="scale(1,-1)"><tspan
         sodipodi:role="line"
         id="tspan6254-6-2"
         style="font-size:8px;stroke-width:0.75"
         x="8.1309137"
         y="70.453201">-1</tspan></text></g></svg>
